<svg xmlns="http://www.w3.org/2000/svg" width="375" viewBox="0 0 375 375" height="375" version="1.0"><defs><clipPath id="a"><path d="M 72 6 L 296 6 L 296 207.75 L 72 207.75 Z M 72 6"/></clipPath><clipPath id="b"><path d="M 326 349 L 328 349 L 328 351.742188 L 326 351.742188 Z M 326 349"/></clipPath><clipPath id="c"><path d="M 329 349 L 331 349 L 331 351.742188 L 329 351.742188 Z M 329 349"/></clipPath><clipPath id="d"><path d="M 306.46875 330 L 329 330 L 329 351.742188 L 306.46875 351.742188 Z M 306.46875 330"/></clipPath><clipPath id="e"><path d="M 328 307.492188 L 350.71875 307.492188 L 350.71875 329 L 328 329 Z M 328 307.492188"/></clipPath><clipPath id="f"><path d="M 306.46875 307.492188 L 328 307.492188 L 328 330 L 306.46875 330 Z M 306.46875 307.492188"/></clipPath><clipPath id="g"><path d="M 329 329 L 350.71875 329 L 350.71875 351.742188 L 329 351.742188 Z M 329 329"/></clipPath></defs><path fill="#FFAB67" d="M 185.121094 111.734375 L 154.453125 185.734375 C 153.03125 189.171875 149.671875 191.414062 145.949219 191.414062 L 49.734375 191.414062 C 46.40625 191.414062 44.148438 188.039062 45.421875 184.96875 L 76.085938 110.96875 C 77.507812 107.53125 80.867188 105.285156 84.589844 105.285156 L 180.796875 105.285156 C 184.132812 105.285156 186.390625 108.664062 185.121094 111.734375 Z M 331.824219 15.957031 L 235.613281 15.957031 C 231.890625 15.957031 228.535156 18.199219 227.109375 21.636719 L 196.445312 95.636719 C 195.171875 98.707031 197.429688 102.085938 200.757812 102.085938 L 296.96875 102.085938 C 300.691406 102.085938 304.046875 99.839844 305.472656 96.40625 L 336.136719 22.40625 C 337.40625 19.335938 335.148438 15.957031 331.824219 15.957031 Z M 331.824219 15.957031"/><path fill="#FF6B5B" d="M 298.585938 111.734375 L 267.921875 185.734375 C 266.496094 189.171875 263.140625 191.414062 259.417969 191.414062 L 163.207031 191.414062 C 159.878906 191.414062 157.621094 188.039062 158.894531 184.96875 L 189.558594 110.96875 C 190.984375 107.53125 194.339844 105.285156 198.0625 105.285156 L 294.273438 105.285156 C 297.601562 105.285156 299.863281 108.664062 298.585938 111.734375 Z M 87.28125 102.085938 L 183.488281 102.085938 C 187.210938 102.085938 190.570312 99.839844 191.992188 96.40625 L 222.65625 22.40625 C 223.929688 19.335938 221.671875 15.957031 218.34375 15.957031 L 122.140625 15.957031 C 118.417969 15.957031 115.058594 18.199219 113.636719 21.636719 L 82.964844 95.632812 C 81.695312 98.707031 83.953125 102.085938 87.28125 102.085938 Z M 297.027344 70.722656 L 292.039062 67.257812 L 266.871094 75.710938 L 263.402344 79.828125 C 263.402344 79.828125 243.007812 81.777344 228.25 87.628906 C 217.28125 91.980469 214.230469 98.847656 213.382812 102.085938 L 296.960938 102.085938 C 300.683594 102.085938 304.042969 99.839844 305.46875 96.40625 L 318.835938 64.144531 C 308.304688 65.921875 297.027344 70.722656 297.027344 70.722656 Z M 120.851562 159.160156 C 107.398438 163.0625 103.0625 165.230469 103.0625 165.230469 C 103.0625 165.230469 76.375 169.566406 61.839844 175.855469 C 52.015625 180.101562 48.535156 186.820312 47.3125 190.738281 C 48.007812 191.160156 48.832031 191.414062 49.734375 191.414062 L 145.941406 191.414062 C 146.777344 191.414062 147.59375 191.296875 148.371094 191.085938 C 147.34375 186.632812 146.171875 181.046875 145.371094 175.636719 C 143.632812 163.933594 134.304688 155.257812 120.851562 159.160156 Z M 120.851562 159.160156"/><path fill="#FFF" d="M 193.667969 92.371094 L 191.992188 96.40625 C 191.679688 97.160156 191.265625 97.859375 190.78125 98.488281 L 172.652344 101.289062 L 172.566406 102.085938 L 106.105469 102.085938 L 88.976562 81.132812 C 75.753906 59.84375 78.4375 46.65625 84.292969 38.53125 C 90.152344 30.402344 108.707031 33.523438 108.707031 33.523438 C 129.710938 36.914062 154 45.363281 165.496094 49.746094 C 177.859375 54.460938 187.625 62.265625 190.390625 76.085938 C 191.796875 83.128906 192.914062 88.644531 193.667969 92.371094 Z M 193.667969 92.371094"/><g clip-path="url(#a)"><path fill="#C04F44" d="M 286.722656 57.714844 L 289.816406 68.441406 L 287.050781 73.15625 L 278.75 87.464844 L 267.84375 78.035156 L 268.660156 74.128906 C 268.660156 74.128906 264.269531 75.917969 257.753906 75.429688 C 251.25 74.9375 247.339844 66.648438 246.527344 57.222656 C 245.710938 47.792969 241.484375 32.832031 248.316406 19.179688 C 255.148438 5.523438 284.117188 6.175781 292.414062 18.039062 C 300.714844 29.917969 286.722656 57.714844 286.722656 57.714844 Z M 230.703125 102.085938 C 230.785156 100.664062 230.902344 98.84375 231.070312 97.21875 C 231.394531 93.964844 238.550781 88.4375 241.972656 84.539062 C 245.390625 80.636719 247.996094 76.898438 249.621094 74.625 C 251.25 72.351562 249.132812 71.210938 247.023438 72.1875 C 244.90625 73.160156 237.90625 76.898438 237.90625 76.898438 C 237.90625 76.898438 239.699219 67.46875 239.699219 64.378906 C 239.699219 61.292969 236.765625 42.105469 234.492188 42.429688 C 232.214844 42.753906 232.539062 46.332031 232.539062 46.332031 C 232.539062 46.332031 231.566406 43.078125 229.773438 43.734375 C 227.984375 44.382812 228.800781 47.148438 228.800781 47.148438 C 228.800781 47.148438 227.5 44.382812 226.03125 44.875 C 224.566406 45.363281 224.734375 48.777344 224.734375 48.777344 C 224.734375 48.777344 222.941406 48.128906 221.800781 48.777344 C 220.660156 49.425781 221.476562 63.894531 221.476562 63.894531 C 221.476562 63.894531 218.058594 74.792969 214.96875 82.917969 C 212.203125 90.191406 213.601562 96.8125 213.574219 102.085938 Z M 116.679688 41.78125 C 117.820312 45.359375 121.5625 45.359375 121.5625 45.359375 C 121.5625 45.359375 126.277344 63.890625 133.441406 65.03125 C 140.605469 66.167969 141.089844 61.777344 141.089844 61.777344 C 141.089844 61.777344 149.878906 63.074219 153.945312 56.574219 C 158.011719 50.070312 159.804688 36.578125 158.339844 23.085938 C 156.871094 9.589844 144.507812 4.386719 132.625 7.476562 C 119.332031 10.929688 114.078125 20.15625 118.46875 35.4375 C 118.464844 35.445312 115.539062 38.207031 116.679688 41.78125 Z M 97.800781 101.933594 L 157.847656 101.933594 L 117.820312 88.929688 L 112.289062 73.160156 L 88.980469 81.132812 C 88.980469 81.132812 90 86.488281 92.273438 92.015625 C 94.542969 97.542969 97.800781 101.933594 97.800781 101.933594 Z M 172.660156 102.085938 L 183.488281 102.085938 C 186.78125 102.085938 189.789062 100.332031 191.425781 97.550781 L 172.167969 97.550781 Z M 79.414062 113.316406 C 68.023438 125.996094 72.414062 139.007812 81.039062 145.996094 C 89.660156 152.988281 96.496094 153.964844 96.496094 153.964844 L 94.710938 166.96875 C 104.148438 172.003906 115.046875 166.316406 115.046875 166.316406 L 114.882812 158.027344 C 122.207031 158.027344 127.574219 152.5 127.574219 144.207031 C 127.574219 135.917969 123.015625 126.003906 117.808594 115.597656 C 112.605469 105.1875 90.800781 100.632812 79.414062 113.316406 Z M 167.066406 125.996094 C 164.574219 122.855469 160.667969 120.6875 160.667969 120.6875 C 160.667969 120.6875 151.878906 109.308594 151.339844 108.222656 C 150.796875 107.132812 149.171875 107.246094 149.390625 107.898438 C 149.609375 108.546875 153.296875 115.914062 153.296875 115.914062 C 153.296875 115.914062 146.675781 108.765625 145.8125 107.570312 C 144.945312 106.378906 143.425781 107.570312 143.75 108.222656 C 144.074219 108.871094 149.933594 117.328125 149.933594 117.328125 C 149.933594 117.328125 142.230469 110.714844 141.257812 109.578125 C 140.28125 108.441406 138.164062 109.414062 139.140625 110.71875 C 140.117188 112.019531 146.789062 120.148438 146.789062 120.148438 C 146.789062 120.148438 138 112.347656 137.191406 111.859375 C 136.375 111.367188 134.421875 111.695312 135.5625 113.648438 C 136.703125 115.597656 149.886719 129.257812 149.886719 129.257812 C 149.886719 129.257812 138.496094 126.167969 138.171875 127.632812 C 137.84375 129.097656 142.726562 131.535156 146.792969 134.457031 C 150.859375 137.386719 156.394531 138.847656 156.394531 138.847656 L 155.625 182.9375 L 169.699219 148.972656 C 169.566406 145.1875 169.414062 140.777344 169.355469 139.550781 C 169.238281 137.269531 169.5625 129.136719 167.066406 125.996094 Z M 251.679688 108.003906 C 236.613281 101.648438 227.160156 110.386719 224.5625 115.152344 C 221.960938 119.925781 219.355469 123.390625 219.355469 123.390625 C 219.355469 123.390625 212.628906 124.691406 212.410156 125.992188 C 212.191406 127.289062 216.316406 128.808594 216.316406 128.808594 C 216.316406 128.808594 214.367188 138.992188 214.578125 144.414062 C 214.796875 149.835938 229.550781 155.6875 229.550781 155.6875 L 228.679688 160.023438 L 236.925781 170.648438 L 239.097656 159.375 L 250.160156 153.953125 L 250.378906 149.617188 C 250.378906 149.617188 263.394531 143.335938 264.699219 130.761719 C 266 118.191406 261.445312 112.125 251.679688 108.003906 Z M 239.859375 179.480469 C 230.742188 176.226562 224.234375 180.457031 220.003906 185.65625 C 218.242188 187.824219 216.03125 189.820312 214.050781 191.410156 C 214.050781 191.410156 208.128906 197.523438 205.6875 199.476562 C 203.246094 201.425781 201.457031 202.890625 202.273438 203.539062 C 203.085938 204.1875 205.203125 203.375 205.203125 203.375 C 205.203125 203.375 203.738281 204.347656 204.386719 205 C 205.039062 205.648438 207.96875 204.832031 207.96875 204.832031 C 207.96875 204.832031 207.15625 206.457031 208.460938 206.621094 C 209.761719 206.789062 213.175781 205.480469 213.175781 205.480469 C 213.175781 205.480469 211.878906 207.429688 213.175781 207.597656 C 214.476562 207.761719 216.757812 207.273438 219.199219 205.808594 C 221.640625 204.34375 231.730469 197.839844 231.730469 197.839844 C 231.730469 197.839844 231.082031 201.578125 230.429688 204.34375 C 229.78125 207.105469 232.382812 206.292969 233.363281 204.832031 C 234.183594 203.605469 241.914062 194.320312 244.34375 191.402344 L 255.089844 191.402344 C 253.292969 189.125 247.417969 182.179688 239.859375 179.480469 Z M 239.859375 179.480469"/></g><path d="M 223.65625 196.648438 C 223.90625 196.925781 223.875 197.351562 223.597656 197.597656 L 214.378906 205.722656 C 214.246094 205.835938 214.085938 205.890625 213.933594 205.890625 C 213.75 205.890625 213.5625 205.8125 213.429688 205.660156 C 213.183594 205.382812 213.210938 204.957031 213.492188 204.707031 L 222.710938 196.582031 C 222.984375 196.347656 223.410156 196.371094 223.65625 196.648438 Z M 218.871094 195.007812 C 218.613281 194.734375 218.191406 194.722656 217.917969 194.976562 L 209.023438 203.320312 C 208.75 203.574219 208.738281 204 208.992188 204.273438 C 209.121094 204.414062 209.304688 204.484375 209.484375 204.484375 C 209.648438 204.484375 209.8125 204.425781 209.945312 204.300781 L 218.839844 195.957031 C 219.113281 195.703125 219.125 195.277344 218.871094 195.007812 Z M 214.742188 193.925781 C 214.488281 193.652344 214.0625 193.640625 213.792969 193.894531 L 204.898438 202.242188 C 204.625 202.496094 204.613281 202.917969 204.867188 203.191406 C 204.996094 203.332031 205.179688 203.402344 205.359375 203.402344 C 205.523438 203.402344 205.6875 203.34375 205.820312 203.21875 L 214.714844 194.875 C 214.984375 194.621094 215.003906 194.195312 214.742188 193.925781 Z M 231.824219 184.449219 C 231.726562 184.085938 231.347656 183.878906 230.992188 183.980469 C 230.632812 184.082031 230.425781 184.453125 230.523438 184.8125 L 232.332031 191.199219 C 232.285156 191.769531 232.039062 194.375 231.386719 196.695312 C 231.289062 197.054688 231.496094 197.425781 231.855469 197.523438 C 231.914062 197.539062 231.980469 197.546875 232.039062 197.546875 C 232.332031 197.546875 232.605469 197.351562 232.6875 197.054688 C 233.457031 194.308594 233.679688 191.304688 233.6875 191.179688 C 233.691406 191.101562 233.6875 191.027344 233.664062 190.949219 Z M 261.824219 45.683594 C 261.824219 46.492188 262.476562 47.148438 263.289062 47.148438 C 264.097656 47.148438 264.753906 46.492188 264.753906 45.683594 C 264.753906 44.875 264.097656 44.21875 263.289062 44.21875 C 262.476562 44.21875 261.824219 44.875 261.824219 45.683594 Z M 246.855469 46.824219 C 246.855469 47.632812 247.511719 48.289062 248.324219 48.289062 C 249.132812 48.289062 249.789062 47.632812 249.789062 46.824219 C 249.789062 46.015625 249.132812 45.359375 248.324219 45.359375 C 247.511719 45.359375 246.855469 46.015625 246.855469 46.824219 Z M 153.617188 41.296875 C 152.804688 41.296875 152.148438 41.953125 152.148438 42.761719 C 152.148438 43.570312 152.804688 44.226562 153.617188 44.226562 C 154.425781 44.226562 155.082031 43.570312 155.082031 42.761719 C 155.082031 41.953125 154.425781 41.296875 153.617188 41.296875 Z M 139.617188 42.921875 C 138.808594 42.921875 138.152344 43.574219 138.152344 44.382812 C 138.152344 45.195312 138.808594 45.847656 139.617188 45.847656 C 140.429688 45.847656 141.085938 45.195312 141.085938 44.382812 C 141.085938 43.574219 140.429688 42.921875 139.617188 42.921875 Z M 290.082031 39.289062 C 291.925781 43.515625 290.730469 51.105469 286.5 53.484375 L 286.71875 57.714844 C 286.71875 57.714844 294.199219 48.394531 295.832031 37.988281 C 297.457031 27.582031 297.894531 18.265625 290.300781 11.546875 C 282.703125 4.824219 262.53125 2.980469 252.117188 11 C 244.976562 16.5 242.570312 28.777344 243.222656 29.207031 C 243.871094 29.640625 249.078125 25.742188 249.078125 25.742188 C 249.078125 25.742188 250.921875 30.621094 252.660156 30.183594 C 254.398438 29.75 259.167969 24.980469 259.167969 24.980469 C 259.167969 24.980469 260.582031 29.53125 262.425781 29.3125 C 264.269531 29.09375 269.257812 24.21875 269.257812 24.21875 C 269.257812 24.21875 270.234375 30.070312 271.644531 29.851562 C 273.058594 29.632812 274.246094 29.09375 274.246094 29.09375 C 274.246094 29.09375 278.152344 47.195312 280.753906 45.894531 C 283.355469 44.597656 283.6875 36.464844 283.6875 36.464844 C 283.6875 36.464844 288.238281 35.058594 290.082031 39.289062 Z M 279.234375 66.601562 C 277.933594 65.84375 274.132812 71.804688 268.660156 74.136719 L 267.84375 78.039062 L 267.945312 78.128906 C 274.289062 75.648438 280.398438 67.28125 279.234375 66.601562 Z M 253.742188 49.222656 C 254.640625 45.96875 254.101562 42.980469 254.078125 42.847656 C 254.015625 42.484375 253.664062 42.242188 253.292969 42.3125 C 252.925781 42.375 252.683594 42.730469 252.753906 43.097656 C 252.761719 43.125 253.257812 45.921875 252.441406 48.867188 C 252.1875 49.792969 251.878906 50.710938 251.613281 51.511719 C 250.863281 53.78125 250.367188 55.28125 251.035156 56.164062 C 251.40625 56.660156 252.175781 56.828125 253.046875 56.828125 C 254.039062 56.828125 255.160156 56.609375 255.957031 56.414062 C 256.320312 56.324219 256.542969 55.964844 256.457031 55.597656 C 256.367188 55.238281 256 55.015625 255.640625 55.101562 C 254.089844 55.476562 252.402344 55.585938 252.105469 55.351562 C 251.863281 55.015625 252.484375 53.152344 252.890625 51.925781 C 253.167969 51.117188 253.476562 50.183594 253.742188 49.222656 Z M 257.925781 59.140625 C 258.070312 59.148438 261.542969 59.347656 265.261719 57.09375 C 266.929688 56.082031 267.710938 56.136719 267.886719 56.300781 C 268.035156 56.441406 268.070312 56.976562 267.679688 57.71875 C 266.703125 59.554688 265.386719 61.390625 262.320312 62.378906 C 261.964844 62.492188 261.769531 62.875 261.882812 63.222656 C 261.976562 63.507812 262.234375 63.6875 262.519531 63.6875 C 262.589844 63.6875 262.65625 63.675781 262.726562 63.652344 C 266.261719 62.515625 267.808594 60.328125 268.863281 58.34375 C 269.507812 57.121094 269.488281 55.964844 268.804688 55.320312 C 268.230469 54.777344 267.023438 54.441406 264.554688 55.941406 C 261.230469 57.953125 258.058594 57.796875 258.003906 57.796875 C 257.636719 57.773438 257.3125 58.054688 257.289062 58.421875 C 257.277344 58.800781 257.5625 59.117188 257.925781 59.140625 Z M 269.636719 35.691406 C 269.800781 35.359375 269.671875 34.953125 269.339844 34.789062 C 262.84375 31.488281 257.761719 35.449219 257.550781 35.621094 C 257.257812 35.851562 257.210938 36.277344 257.441406 36.566406 C 257.578125 36.730469 257.773438 36.820312 257.96875 36.820312 C 258.117188 36.820312 258.265625 36.773438 258.386719 36.671875 C 258.433594 36.636719 263 33.074219 268.726562 35.988281 C 269.0625 36.160156 269.472656 36.023438 269.636719 35.691406 Z M 244.929688 35.542969 C 244.65625 35.796875 244.644531 36.222656 244.898438 36.496094 C 245.152344 36.765625 245.578125 36.777344 245.851562 36.53125 C 245.976562 36.417969 248.902344 33.800781 252.28125 37.367188 C 252.414062 37.511719 252.597656 37.582031 252.773438 37.582031 C 252.9375 37.582031 253.105469 37.523438 253.234375 37.398438 C 253.507812 37.144531 253.519531 36.71875 253.257812 36.449219 C 248.9375 31.890625 244.972656 35.507812 244.929688 35.542969 Z M 288.242188 46.238281 C 288.277344 46.246094 288.3125 46.246094 288.347656 46.246094 C 288.675781 46.246094 288.964844 46.007812 289.011719 45.679688 C 289.609375 41.855469 286.707031 39.605469 286.582031 39.511719 C 286.285156 39.289062 285.867188 39.347656 285.640625 39.640625 C 285.417969 39.9375 285.472656 40.355469 285.765625 40.585938 C 285.859375 40.664062 288.148438 42.464844 287.679688 45.476562 C 287.621094 45.835938 287.875 46.1875 288.242188 46.238281 Z M 232.894531 65.460938 C 232.867188 65.832031 233.144531 66.15625 233.511719 66.1875 C 233.527344 66.1875 233.546875 66.1875 233.5625 66.1875 C 233.910156 66.1875 234.207031 65.921875 234.230469 65.566406 L 234.773438 58.953125 C 234.78125 58.910156 234.773438 58.863281 234.773438 58.824219 L 233.476562 47.007812 C 233.433594 46.640625 233.101562 46.367188 232.730469 46.410156 C 232.359375 46.453125 232.089844 46.78125 232.132812 47.152344 L 233.425781 58.90625 Z M 227.582031 66.832031 C 227.625 66.835938 227.664062 66.84375 227.707031 66.84375 C 228.023438 66.84375 228.304688 66.617188 228.367188 66.292969 L 229.78125 58.921875 C 229.792969 58.871094 229.792969 58.824219 229.792969 58.769531 L 229.359375 48.039062 C 229.34375 47.667969 229.019531 47.378906 228.664062 47.394531 C 228.289062 47.414062 228 47.726562 228.019531 48.09375 L 228.449219 58.746094 L 227.054688 66.039062 C 226.972656 66.40625 227.214844 66.761719 227.582031 66.832031 Z M 223.179688 67.574219 C 223.242188 67.59375 223.308594 67.605469 223.375 67.605469 C 223.664062 67.605469 223.929688 67.414062 224.015625 67.125 L 225.863281 60.949219 C 225.878906 60.878906 225.890625 60.808594 225.890625 60.738281 L 225.566406 49.683594 C 225.554688 49.308594 225.21875 49.019531 224.875 49.027344 C 224.503906 49.039062 224.210938 49.34375 224.21875 49.71875 L 224.542969 60.664062 L 222.730469 66.742188 C 222.617188 67.089844 222.816406 67.460938 223.179688 67.574219 Z M 225.269531 83.390625 C 225.390625 83.621094 225.625 83.75 225.867188 83.75 C 225.972656 83.75 226.082031 83.726562 226.179688 83.671875 L 237.246094 77.820312 C 237.578125 77.648438 237.699219 77.242188 237.523438 76.910156 C 237.351562 76.582031 236.945312 76.457031 236.613281 76.632812 L 225.546875 82.484375 C 225.21875 82.65625 225.09375 83.066406 225.269531 83.390625 Z M 297.199219 72.003906 C 296.824219 71.972656 296.5 72.238281 296.464844 72.613281 L 295.171875 86.625 C 295.136719 87.019531 294.851562 87.191406 294.734375 87.246094 C 294.613281 87.296875 294.300781 87.40625 293.976562 87.179688 L 285.914062 81.554688 C 285.605469 81.339844 285.1875 81.417969 284.972656 81.71875 C 284.761719 82.023438 284.839844 82.445312 285.140625 82.65625 L 293.203125 88.285156 C 293.570312 88.539062 293.980469 88.667969 294.40625 88.667969 C 294.710938 88.667969 295.011719 88.605469 295.300781 88.46875 C 295.992188 88.148438 296.441406 87.503906 296.511719 86.75 L 297.804688 72.734375 C 297.84375 72.363281 297.570312 72.035156 297.199219 72.003906 Z M 263.523438 81.429688 C 263.519531 81.429688 263.511719 81.429688 263.507812 81.429688 C 263.140625 81.429688 262.84375 81.71875 262.832031 82.085938 L 262.574219 92.1875 C 262.554688 92.914062 262.953125 93.558594 263.605469 93.867188 C 263.855469 93.984375 264.121094 94.042969 264.382812 94.042969 C 264.808594 94.042969 265.222656 93.890625 265.5625 93.59375 L 274.039062 86.183594 C 274.316406 85.941406 274.347656 85.515625 274.105469 85.230469 C 273.855469 84.953125 273.429688 84.925781 273.152344 85.167969 L 264.675781 92.578125 C 264.476562 92.753906 264.261719 92.683594 264.179688 92.648438 C 264.097656 92.613281 263.910156 92.496094 263.921875 92.222656 L 264.179688 82.121094 C 264.1875 81.746094 263.898438 81.433594 263.523438 81.429688 Z M 105.941406 156.5625 C 105.285156 157.609375 109.898438 160.441406 114.949219 161.003906 L 114.886719 158.027344 C 111.140625 158.1875 106.75 155.257812 105.941406 156.5625 Z M 112.75 126.320312 C 112.484375 126.066406 112.050781 126.074219 111.796875 126.34375 C 111.542969 126.617188 111.550781 127.042969 111.820312 127.296875 C 111.890625 127.359375 118.671875 133.816406 120.597656 135.738281 C 120.945312 136.089844 120.996094 136.285156 120.984375 136.324219 C 120.886719 136.703125 119.390625 137.179688 118.589844 137.433594 C 118.128906 137.582031 117.667969 137.730469 117.257812 137.882812 C 116.910156 138.019531 116.738281 138.410156 116.875 138.753906 C 116.976562 139.019531 117.234375 139.183594 117.5 139.183594 C 117.582031 139.183594 117.660156 139.171875 117.742188 139.136719 C 118.132812 138.988281 118.566406 138.847656 119.003906 138.710938 C 120.558594 138.214844 122.027344 137.746094 122.300781 136.636719 C 122.449219 136.042969 122.199219 135.414062 121.5625 134.785156 C 119.609375 132.851562 112.8125 126.386719 112.75 126.320312 Z M 106.359375 123.988281 C 106.316406 123.617188 105.992188 123.34375 105.621094 123.390625 C 100.3125 123.941406 98.882812 129.511719 98.871094 129.5625 C 98.78125 129.921875 99 130.289062 99.359375 130.378906 C 99.414062 130.390625 99.46875 130.394531 99.519531 130.394531 C 99.820312 130.394531 100.101562 130.1875 100.175781 129.886719 C 100.222656 129.699219 101.40625 125.1875 105.757812 124.734375 C 106.128906 124.683594 106.402344 124.355469 106.359375 123.988281 Z M 117.691406 115.921875 C 115.964844 115.382812 114.503906 115.503906 113.351562 116.277344 C 111.390625 117.585938 111.128906 120.296875 111.125 120.410156 C 111.089844 120.78125 111.367188 121.105469 111.730469 121.136719 C 111.757812 121.136719 111.773438 121.136719 111.792969 121.136719 C 112.132812 121.136719 112.429688 120.871094 112.460938 120.523438 C 112.460938 120.5 112.679688 118.332031 114.101562 117.386719 C 114.898438 116.855469 115.96875 116.796875 117.28125 117.203125 C 117.636719 117.316406 118.015625 117.113281 118.128906 116.761719 C 118.246094 116.410156 118.042969 116.035156 117.691406 115.921875 Z M 117.957031 142.09375 C 117.902344 142.113281 112.4375 143.640625 109.585938 142.597656 C 108.445312 142.175781 107.855469 142.5625 107.605469 142.832031 C 107.203125 143.269531 107.15625 143.925781 107.476562 144.628906 C 108.144531 146.085938 110.871094 148.464844 116.886719 148.464844 C 117.144531 148.464844 117.40625 148.460938 117.679688 148.453125 C 118.050781 148.441406 118.339844 148.128906 118.328125 147.757812 C 118.316406 147.386719 118.007812 147.085938 117.632812 147.109375 C 112.859375 147.253906 110.035156 145.867188 108.972656 144.503906 C 108.683594 144.125 108.617188 143.871094 108.613281 143.757812 C 108.683594 143.753906 108.84375 143.753906 109.121094 143.859375 C 112.382812 145.058594 118.082031 143.457031 118.324219 143.386719 C 118.675781 143.289062 118.882812 142.914062 118.785156 142.554688 C 118.683594 142.195312 118.316406 141.992188 117.957031 142.09375 Z M 97.800781 109.574219 L 112.933594 110.222656 C 104.792969 101.933594 89.011719 104.53125 81.203125 108.597656 C 73.394531 112.664062 66.070312 128.269531 68.347656 137.375 C 70.625 146.480469 71.765625 153.632812 63.140625 160.785156 C 54.515625 167.9375 57.441406 178.667969 57.441406 178.667969 C 57.441406 178.667969 61.835938 175.085938 70.949219 172.648438 C 80.0625 170.210938 94.703125 166.957031 94.703125 166.957031 C 94.703125 166.957031 97.304688 166.304688 97.636719 158.988281 C 97.960938 151.671875 95.195312 149.558594 95.195312 149.558594 C 92.261719 150.699219 85.753906 149.394531 84.621094 142.566406 C 83.480469 135.738281 89.503906 132.488281 89.503906 132.488281 L 93.894531 141.59375 C 99.589844 135.585938 97.800781 109.574219 97.800781 109.574219 Z M 156.410156 129.769531 L 150.554688 129.007812 C 150.1875 128.960938 149.84375 129.222656 149.796875 129.585938 C 149.75 129.953125 150.011719 130.296875 150.375 130.34375 L 156.234375 131.105469 C 156.261719 131.109375 156.292969 131.109375 156.324219 131.109375 C 156.652344 131.109375 156.941406 130.863281 156.992188 130.527344 C 157.042969 130.160156 156.785156 129.816406 156.410156 129.769531 Z M 88.804688 137.09375 C 88.46875 136.933594 88.066406 137.085938 87.914062 137.421875 C 86.953125 139.496094 86.132812 143.9375 89.839844 145.886719 C 89.941406 145.9375 90.046875 145.960938 90.152344 145.960938 C 90.394531 145.960938 90.632812 145.832031 90.75 145.601562 C 90.921875 145.269531 90.796875 144.863281 90.464844 144.691406 C 86.960938 142.851562 89.046875 138.179688 89.136719 137.984375 C 89.289062 137.640625 89.140625 137.246094 88.804688 137.09375 Z M 136.449219 175.832031 C 136.320312 175.484375 135.929688 175.3125 135.582031 175.441406 C 135.234375 175.570312 135.0625 175.960938 135.191406 176.308594 L 140.398438 189.96875 C 140.5 190.234375 140.757812 190.398438 141.027344 190.398438 C 141.109375 190.398438 141.183594 190.386719 141.269531 190.359375 C 141.617188 190.230469 141.789062 189.839844 141.65625 189.492188 Z M 112.128906 72.707031 C 112.21875 72.996094 112.484375 73.179688 112.773438 73.179688 C 112.835938 73.179688 112.910156 73.167969 112.972656 73.148438 C 113.328125 73.039062 113.527344 72.660156 113.417969 72.304688 L 108.210938 55.558594 C 108.097656 55.203125 107.71875 55.003906 107.363281 55.113281 C 107.007812 55.226562 106.808594 55.605469 106.921875 55.960938 Z M 170.667969 69.558594 C 170.296875 69.578125 170.003906 69.890625 170.023438 70.261719 L 171.164062 95.785156 C 171.183594 96.144531 171.476562 96.429688 171.839844 96.429688 C 171.851562 96.429688 171.855469 96.429688 171.867188 96.429688 C 172.238281 96.410156 172.53125 96.097656 172.511719 95.726562 L 171.371094 70.203125 C 171.359375 69.832031 171.039062 69.542969 170.667969 69.558594 Z M 150.023438 49.367188 C 149.453125 47.710938 147.414062 41.886719 147.414062 41.886719 L 146.144531 42.328125 C 146.144531 42.328125 148.175781 48.144531 148.746094 49.804688 C 149 50.550781 148.917969 50.851562 148.832031 50.910156 C 148.417969 51.199219 146.777344 50.648438 146.222656 50.203125 C 145.929688 49.972656 145.507812 50.019531 145.273438 50.308594 C 145.042969 50.597656 145.09375 51.023438 145.382812 51.253906 C 145.761719 51.554688 147.207031 52.332031 148.457031 52.332031 C 148.882812 52.332031 149.28125 52.246094 149.613281 52.015625 C 150.09375 51.664062 150.558594 50.933594 150.023438 49.367188 Z M 142.023438 37.398438 C 142.25 37.101562 142.195312 36.683594 141.898438 36.453125 C 138.75 34.039062 135.464844 36.027344 134.164062 37.421875 C 133.910156 37.695312 133.925781 38.117188 134.199219 38.371094 C 134.328125 38.496094 134.496094 38.554688 134.660156 38.554688 C 134.835938 38.554688 135.019531 38.484375 135.148438 38.34375 C 135.269531 38.214844 138.125 35.25 141.085938 37.523438 C 141.375 37.746094 141.800781 37.6875 142.023438 37.398438 Z M 155.808594 35.480469 C 156.007812 35.167969 155.914062 34.746094 155.601562 34.550781 C 152.910156 32.832031 150.199219 34.511719 149.136719 35.632812 C 148.882812 35.90625 148.894531 36.328125 149.164062 36.582031 C 149.292969 36.707031 149.460938 36.765625 149.625 36.765625 C 149.804688 36.765625 149.980469 36.695312 150.117188 36.558594 C 150.210938 36.460938 152.460938 34.152344 154.878906 35.6875 C 155.195312 35.886719 155.605469 35.792969 155.808594 35.480469 Z M 145.570312 53.507812 C 141.886719 54.855469 139.761719 52.074219 139.671875 51.957031 C 139.453125 51.660156 139.035156 51.59375 138.730469 51.8125 C 138.429688 52.03125 138.367188 52.453125 138.585938 52.753906 C 138.609375 52.78125 140.441406 55.222656 143.621094 55.222656 C 144.351562 55.222656 145.15625 55.089844 146.027344 54.773438 C 146.375 54.640625 146.558594 54.257812 146.429688 53.910156 C 146.308594 53.554688 145.917969 53.378906 145.570312 53.507812 Z M 164.113281 20.894531 C 164.113281 20.894531 166.230469 20 166.230469 18.621094 C 166.230469 17.238281 163.378906 14.472656 158.339844 12.523438 C 153.296875 10.578125 146.621094 0.0078125 135.234375 1.226562 C 123.84375 2.449219 123.601562 7.894531 123.601562 7.894531 C 116.769531 9.519531 113.675781 15.863281 113.675781 24.886719 C 113.675781 33.910156 116.851562 38.136719 116.851562 38.136719 C 116.851562 38.136719 117.09375 36.996094 118.476562 35.457031 C 119.859375 33.910156 122.460938 33.832031 122.460938 33.832031 C 122.460938 33.832031 125.875 42.449219 125.960938 43.34375 C 126.042969 44.242188 127.832031 45.542969 127.992188 43.914062 C 128.15625 42.289062 130.675781 30.011719 130.675781 30.011719 C 130.675781 30.011719 138.160156 31.960938 147.679688 31.558594 C 157.203125 31.152344 164.84375 29.445312 165.171875 27.980469 C 165.496094 26.515625 162.972656 26.433594 162.972656 26.433594 C 162.972656 26.433594 166.304688 26.191406 166.714844 23.992188 C 167.121094 21.785156 164.113281 20.894531 164.113281 20.894531 Z M 141.085938 61.78125 C 141.085938 61.78125 141.214844 61.800781 141.453125 61.824219 C 141.21875 61.792969 141.085938 61.78125 141.085938 61.78125 Z M 141.085938 61.78125 C 134.410156 60.808594 131.96875 58.203125 130.34375 56.253906 C 128.820312 54.421875 130.582031 63.15625 140.042969 63.730469 C 140.964844 62.796875 141.085938 61.78125 141.085938 61.78125 Z M 226.511719 121.445312 C 226.511719 122.28125 227.191406 122.960938 228.03125 122.960938 C 228.871094 122.960938 229.550781 122.28125 229.550781 121.445312 C 229.550781 120.605469 228.871094 119.925781 228.03125 119.925781 C 227.191406 119.925781 226.511719 120.605469 226.511719 121.445312 Z M 106.589844 132.5 C 106.589844 133.335938 107.269531 134.015625 108.109375 134.015625 C 108.949219 134.015625 109.628906 133.335938 109.628906 132.5 C 109.628906 131.660156 108.949219 130.980469 108.109375 130.980469 C 107.269531 130.980469 106.589844 131.660156 106.589844 132.5 Z M 116.566406 126.15625 C 116.566406 126.996094 117.246094 127.671875 118.085938 127.671875 C 118.925781 127.671875 119.605469 126.996094 119.605469 126.15625 C 119.605469 125.316406 118.925781 124.636719 118.085938 124.636719 C 117.246094 124.636719 116.566406 125.324219 116.566406 126.15625 Z M 250.160156 153.957031 L 249.074219 140.085938 C 249.074219 140.085938 256.230469 136.832031 256.230469 129.898438 C 256.230469 122.960938 251.242188 123.828125 251.242188 123.828125 C 251.242188 123.828125 248.855469 141.824219 243.867188 144.859375 C 238.878906 147.894531 229.542969 155.695312 229.542969 155.695312 C 221.296875 156.992188 210.015625 151.789062 211.101562 144.859375 C 212.191406 137.925781 216.308594 128.820312 216.308594 128.820312 C 227.59375 126.871094 238.660156 131.203125 238.660156 131.203125 L 244.296875 124.703125 L 244.730469 114.078125 C 238.652344 108.660156 228.886719 110.175781 224.550781 115.164062 C 219.992188 110.832031 219.125 101.945312 219.992188 100.855469 C 220.859375 99.769531 223.898438 101.289062 223.898438 101.289062 C 223.898438 101.289062 222.160156 96.734375 223.03125 95.65625 C 223.898438 94.566406 228.886719 97.390625 228.886719 97.390625 C 228.886719 97.390625 228.019531 93.054688 229.320312 92.839844 C 230.621094 92.621094 234.957031 96.742188 234.957031 96.742188 C 234.957031 96.742188 235.609375 93.925781 237.128906 93.925781 C 238.648438 93.925781 241.902344 99.777344 246.671875 104.109375 C 251.449219 108.445312 261.425781 107.363281 265.113281 120.800781 C 268.804688 134.242188 260.996094 144.425781 256.652344 147.894531 C 252.328125 151.359375 250.160156 153.957031 250.160156 153.957031 Z M 230.355469 134.15625 C 230.046875 133.253906 229 132.515625 226.960938 133.160156 C 222.996094 134.410156 219.601562 134.429688 219.574219 134.429688 C 219.199219 134.429688 218.898438 134.730469 218.898438 135.101562 C 218.898438 135.472656 219.199219 135.777344 219.574219 135.777344 C 219.71875 135.777344 223.195312 135.757812 227.367188 134.441406 C 228.285156 134.152344 228.953125 134.210938 229.082031 134.582031 C 229.371094 135.4375 227.996094 137.710938 224.335938 139.019531 C 223.988281 139.140625 223.804688 139.527344 223.929688 139.878906 C 224.03125 140.15625 224.285156 140.328125 224.5625 140.328125 C 224.636719 140.328125 224.714844 140.316406 224.785156 140.289062 C 228.996094 138.78125 230.949219 135.933594 230.355469 134.15625 Z M 236.070312 116.980469 C 236.199219 117.148438 236.402344 117.246094 236.601562 117.246094 C 236.742188 117.246094 236.890625 117.199219 237.007812 117.101562 C 237.304688 116.878906 237.359375 116.453125 237.132812 116.15625 C 234.285156 112.460938 229.160156 113.785156 226.847656 114.996094 C 226.519531 115.164062 226.394531 115.574219 226.566406 115.902344 C 226.738281 116.234375 227.144531 116.359375 227.476562 116.1875 C 227.710938 116.0625 233.203125 113.253906 236.070312 116.980469 Z M 252.554688 133.746094 C 252.65625 133.796875 252.765625 133.828125 252.875 133.828125 C 253.117188 133.828125 253.347656 133.695312 253.464844 133.472656 C 255.976562 128.8125 252.84375 126.15625 252.8125 126.132812 C 252.53125 125.894531 252.109375 125.9375 251.867188 126.222656 C 251.632812 126.503906 251.667969 126.929688 251.953125 127.164062 C 252.046875 127.25 254.25 129.171875 252.277344 132.835938 C 252.105469 133.160156 252.230469 133.566406 252.554688 133.746094 Z M 250.160156 153.957031 L 239.097656 159.378906 L 236.925781 170.652344 L 228.679688 160.027344 L 225.046875 162.898438 C 225.046875 162.898438 218.046875 162.574219 208.773438 163.875 C 199.5 165.171875 190.710938 166.636719 183.226562 176.550781 C 178.695312 182.5625 174.996094 188.03125 172.785156 191.410156 L 214.046875 191.410156 C 216.027344 189.816406 218.242188 187.820312 220 185.65625 C 224.230469 180.457031 230.738281 176.226562 239.851562 179.480469 C 247.410156 182.179688 253.289062 189.125 255.074219 191.410156 L 259.410156 191.410156 C 263.132812 191.410156 266.492188 189.164062 267.917969 185.730469 L 276.617188 164.730469 L 255.144531 160.945312 Z M 250.160156 153.957031"/><path d="M 335.765625 310.980469 C 335.867188 311.015625 335.96875 311.050781 336.074219 311.117188 C 336.140625 311.152344 336.242188 311.152344 336.347656 311.152344 C 336.621094 311.152344 336.859375 310.980469 336.996094 310.738281 C 337.132812 310.394531 336.964844 309.980469 336.621094 309.839844 C 336.519531 309.804688 336.414062 309.738281 336.277344 309.703125 C 335.9375 309.5625 335.523438 309.738281 335.386719 310.082031 C 335.25 310.425781 335.421875 310.84375 335.765625 310.980469 Z M 335.765625 310.980469"/><path d="M 346.515625 338.304688 C 346.617188 338.683594 346.71875 339.097656 346.789062 339.511719 L 346.925781 339.652344 C 346.925781 339.652344 346.925781 339.652344 346.960938 339.652344 C 347.199219 339.652344 347.4375 339.511719 347.574219 339.269531 C 347.644531 339.167969 347.679688 339.0625 347.746094 338.960938 C 347.917969 338.613281 347.78125 338.199219 347.4375 338.027344 C 347.0625 337.890625 346.6875 337.992188 346.515625 338.304688 Z M 346.515625 338.304688"/><path d="M 332.957031 310.117188 C 333.058594 310.152344 333.164062 310.152344 333.265625 310.1875 C 333.335938 310.1875 333.367188 310.21875 333.4375 310.21875 C 333.746094 310.21875 334.019531 310.011719 334.085938 309.703125 C 334.191406 309.324219 333.949219 308.941406 333.574219 308.875 C 333.472656 308.839844 333.335938 308.804688 333.230469 308.804688 C 332.855469 308.734375 332.511719 308.941406 332.410156 309.324219 C 332.339844 309.667969 332.582031 310.046875 332.957031 310.117188 Z M 332.957031 310.117188"/><path d="M 330.011719 309.667969 C 330.117188 309.667969 330.21875 309.667969 330.355469 309.703125 C 330.390625 309.703125 330.390625 309.703125 330.425781 309.703125 C 330.765625 309.703125 331.074219 309.425781 331.109375 309.082031 C 331.144531 308.699219 330.871094 308.355469 330.492188 308.320312 C 330.390625 308.320312 330.253906 308.285156 330.148438 308.285156 C 329.773438 308.25 329.429688 308.5625 329.429688 308.941406 C 329.363281 309.324219 329.636719 309.667969 330.011719 309.667969 Z M 330.011719 309.667969"/><path d="M 308.71875 324.246094 C 308.789062 324.28125 308.855469 324.28125 308.925781 324.28125 C 309.234375 324.28125 309.472656 324.074219 309.574219 323.796875 C 309.609375 323.691406 309.644531 323.589844 309.679688 323.484375 C 309.78125 323.140625 309.609375 322.726562 309.234375 322.621094 C 308.855469 322.519531 308.480469 322.691406 308.378906 323.070312 C 308.34375 323.175781 308.308594 323.3125 308.273438 323.414062 C 308.171875 323.761719 308.378906 324.140625 308.71875 324.246094 Z M 308.71875 324.246094"/><path d="M 307.625 326.179688 C 307.589844 326.28125 307.589844 326.421875 307.554688 326.523438 C 307.519531 326.90625 307.796875 327.25 308.171875 327.285156 C 308.207031 327.285156 308.238281 327.285156 308.273438 327.285156 C 308.617188 327.285156 308.890625 327.042969 308.960938 326.699219 C 308.960938 326.59375 308.992188 326.492188 308.992188 326.351562 C 309.0625 325.972656 308.789062 325.625 308.445312 325.558594 C 308.035156 325.523438 307.691406 325.800781 307.625 326.179688 Z M 307.625 326.179688"/><path d="M 307.351562 329.359375 C 307.351562 329.460938 307.351562 329.566406 307.351562 329.703125 L 307.351562 329.738281 C 307.351562 330.117188 307.660156 330.429688 308.035156 330.429688 C 308.410156 330.429688 308.71875 330.117188 308.71875 329.738281 L 308.71875 329.667969 C 308.71875 329.566406 308.71875 329.460938 308.71875 329.359375 C 308.71875 328.976562 308.410156 328.667969 308.035156 328.667969 C 307.691406 328.667969 307.351562 328.976562 307.351562 329.359375 Z M 307.351562 329.359375"/><path d="M 348.84375 323.277344 C 348.738281 322.898438 348.363281 322.726562 347.988281 322.828125 C 347.609375 322.933594 347.4375 323.3125 347.542969 323.691406 C 347.574219 323.796875 347.609375 323.898438 347.644531 324.003906 C 347.746094 324.3125 348.019531 324.488281 348.292969 324.488281 C 348.363281 324.488281 348.429688 324.488281 348.5 324.453125 C 348.875 324.347656 349.082031 323.96875 348.980469 323.589844 C 348.910156 323.519531 348.875 323.414062 348.84375 323.277344 Z M 348.84375 323.277344"/><path d="M 347.679688 320.308594 C 347.574219 320.101562 347.371094 319.960938 347.164062 319.925781 L 346.960938 321.550781 C 347.027344 321.585938 347.128906 321.585938 347.199219 321.585938 C 347.300781 321.585938 347.40625 321.550781 347.472656 321.515625 C 347.816406 321.34375 347.953125 320.929688 347.816406 320.582031 C 347.78125 320.515625 347.710938 320.410156 347.679688 320.308594 Z M 347.679688 320.308594"/><path d="M 348.191406 326.628906 C 348.191406 326.730469 348.226562 326.835938 348.226562 326.972656 C 348.261719 327.320312 348.570312 327.5625 348.910156 327.5625 C 348.945312 327.5625 348.980469 327.5625 349.011719 327.5625 C 349.390625 327.527344 349.664062 327.148438 349.59375 326.765625 C 349.59375 326.664062 349.5625 326.523438 349.5625 326.421875 C 349.492188 326.042969 349.152344 325.800781 348.773438 325.835938 C 348.398438 325.867188 348.15625 326.25 348.191406 326.628906 Z M 348.191406 326.628906"/><path d="M 349.800781 330.015625 C 349.800781 329.910156 349.800781 329.773438 349.800781 329.667969 L 349.800781 329.597656 C 349.800781 329.21875 349.492188 328.910156 349.117188 328.910156 C 348.738281 328.910156 348.429688 329.21875 348.429688 329.597656 L 348.429688 329.667969 C 348.429688 329.773438 348.429688 329.875 348.429688 330.015625 C 348.429688 330.394531 348.738281 330.703125 349.117188 330.703125 C 349.492188 330.703125 349.800781 330.394531 349.800781 330.015625 Z M 349.800781 330.015625"/><path d="M 349.527344 333.226562 C 349.5625 333.121094 349.5625 332.984375 349.59375 332.878906 C 349.664062 332.5 349.390625 332.15625 349.011719 332.085938 C 348.636719 332.015625 348.292969 332.292969 348.226562 332.671875 C 348.226562 332.777344 348.191406 332.878906 348.15625 333.019531 C 348.089844 333.398438 348.363281 333.746094 348.707031 333.8125 C 348.738281 333.8125 348.773438 333.8125 348.808594 333.8125 C 349.152344 333.777344 349.457031 333.539062 349.527344 333.226562 Z M 349.527344 333.226562"/><path d="M 348.125 336.785156 C 348.398438 336.785156 348.671875 336.613281 348.773438 336.300781 C 348.808594 336.195312 348.84375 336.058594 348.875 335.957031 C 348.980469 335.574219 348.773438 335.195312 348.429688 335.089844 C 348.054688 334.988281 347.679688 335.195312 347.574219 335.539062 C 347.542969 335.644531 347.507812 335.746094 347.472656 335.851562 C 347.371094 336.195312 347.542969 336.613281 347.917969 336.714844 C 347.953125 336.785156 348.019531 336.785156 348.125 336.785156 Z M 348.125 336.785156"/><g clip-path="url(#b)"><path d="M 327.101562 349.632812 C 327 349.632812 326.898438 349.601562 326.761719 349.601562 C 326.382812 349.566406 326.042969 349.839844 326.007812 350.222656 C 325.972656 350.601562 326.246094 350.945312 326.625 350.980469 C 326.726562 350.980469 326.863281 351.015625 326.964844 351.015625 C 326.964844 351.015625 327 351.015625 327 351.015625 C 327.34375 351.015625 327.652344 350.738281 327.683594 350.359375 C 327.753906 350.015625 327.480469 349.667969 327.101562 349.632812 Z M 327.101562 349.632812"/></g><path d="M 321.351562 348.320312 C 321.25 348.289062 321.148438 348.253906 321.042969 348.183594 C 320.703125 348.046875 320.289062 348.21875 320.152344 348.5625 C 320.015625 348.910156 320.1875 349.324219 320.53125 349.460938 C 320.632812 349.496094 320.734375 349.566406 320.871094 349.601562 C 320.941406 349.632812 321.042969 349.632812 321.113281 349.632812 C 321.386719 349.632812 321.660156 349.460938 321.761719 349.183594 C 321.867188 348.875 321.695312 348.460938 321.351562 348.320312 Z M 321.351562 348.320312"/><path d="M 324.160156 349.21875 C 324.054688 349.183594 323.953125 349.183594 323.851562 349.152344 C 323.472656 349.046875 323.097656 349.289062 323.03125 349.667969 C 322.925781 350.050781 323.167969 350.429688 323.542969 350.496094 C 323.644531 350.53125 323.78125 350.566406 323.886719 350.566406 C 323.917969 350.566406 323.988281 350.566406 324.023438 350.566406 C 324.332031 350.566406 324.605469 350.359375 324.671875 350.015625 C 324.777344 349.667969 324.535156 349.289062 324.160156 349.21875 Z M 324.160156 349.21875"/><path d="M 307.589844 332.878906 C 307.660156 333.226562 307.933594 333.46875 308.273438 333.46875 C 308.308594 333.46875 308.34375 333.46875 308.378906 333.46875 C 308.753906 333.398438 308.992188 333.054688 308.960938 332.671875 C 308.960938 332.570312 308.925781 332.464844 308.925781 332.328125 C 308.890625 331.949219 308.515625 331.671875 308.171875 331.742188 C 307.796875 331.777344 307.519531 332.15625 307.589844 332.5 C 307.554688 332.671875 307.554688 332.777344 307.589844 332.878906 Z M 307.589844 332.878906"/><g clip-path="url(#c)"><path d="M 330.082031 349.632812 C 329.980469 349.632812 329.875 349.632812 329.738281 349.667969 C 329.363281 349.703125 329.089844 350.015625 329.089844 350.394531 C 329.125 350.773438 329.398438 351.050781 329.773438 351.050781 C 329.773438 351.050781 329.808594 351.050781 329.808594 351.050781 C 329.910156 351.050781 330.046875 351.050781 330.148438 351.015625 C 330.527344 350.980469 330.800781 350.671875 330.765625 350.289062 C 330.765625 349.910156 330.457031 349.632812 330.082031 349.632812 Z M 330.082031 349.632812"/></g><path d="M 333.027344 349.183594 C 332.921875 349.21875 332.820312 349.21875 332.71875 349.253906 C 332.339844 349.324219 332.101562 349.703125 332.203125 350.082031 C 332.273438 350.394531 332.546875 350.636719 332.890625 350.636719 C 332.921875 350.636719 332.992188 350.636719 333.027344 350.636719 C 333.128906 350.601562 333.265625 350.601562 333.367188 350.566406 C 333.746094 350.496094 333.949219 350.117188 333.882812 349.738281 C 333.746094 349.359375 333.367188 349.117188 333.027344 349.183594 Z M 333.027344 349.183594"/><path d="M 335.832031 348.320312 C 335.730469 348.355469 335.628906 348.390625 335.523438 348.425781 C 335.183594 348.5625 334.976562 348.945312 335.113281 349.324219 C 335.21875 349.601562 335.492188 349.773438 335.765625 349.773438 C 335.832031 349.773438 335.9375 349.773438 336.003906 349.738281 C 336.105469 349.703125 336.210938 349.667969 336.347656 349.601562 C 336.6875 349.460938 336.859375 349.046875 336.722656 348.703125 C 336.585938 348.355469 336.210938 348.183594 335.832031 348.320312 Z M 335.832031 348.320312"/><path d="M 309.472656 338.996094 C 309.574219 339.203125 309.78125 339.339844 309.984375 339.375 L 310.191406 337.785156 C 310.191406 337.785156 310.191406 337.75 310.191406 337.75 C 310.019531 337.683594 309.816406 337.683594 309.644531 337.75 C 309.300781 337.925781 309.164062 338.339844 309.300781 338.683594 C 309.371094 338.789062 309.402344 338.890625 309.472656 338.996094 Z M 309.472656 338.996094"/><path d="M 308.308594 336.023438 C 308.410156 336.335938 308.683594 336.507812 308.960938 336.507812 C 309.027344 336.507812 309.097656 336.507812 309.164062 336.472656 C 309.542969 336.371094 309.710938 335.988281 309.609375 335.609375 C 309.574219 335.507812 309.542969 335.402344 309.507812 335.300781 C 309.402344 334.917969 309.027344 334.710938 308.652344 334.816406 C 308.273438 334.917969 308.070312 335.300781 308.171875 335.679688 C 308.238281 335.78125 308.273438 335.886719 308.308594 336.023438 Z M 308.308594 336.023438"/><path d="M 321.007812 311.085938 C 321.078125 311.085938 321.179688 311.085938 321.25 311.050781 C 321.351562 311.015625 321.453125 310.980469 321.558594 310.945312 C 321.898438 310.808594 322.105469 310.425781 321.96875 310.046875 C 321.832031 309.703125 321.453125 309.496094 321.078125 309.632812 C 320.976562 309.667969 320.871094 309.703125 320.734375 309.769531 C 320.394531 309.910156 320.222656 310.324219 320.359375 310.667969 C 320.496094 310.910156 320.734375 311.085938 321.007812 311.085938 Z M 321.007812 311.085938"/><path d="M 310.636719 321.03125 C 310.535156 320.652344 310.429688 320.238281 310.363281 319.789062 L 310.261719 319.683594 C 309.984375 319.652344 309.710938 319.789062 309.574219 320.066406 C 309.507812 320.167969 309.472656 320.273438 309.402344 320.375 C 309.234375 320.722656 309.371094 321.136719 309.710938 321.308594 C 309.816406 321.34375 309.917969 321.378906 310.019531 321.378906 C 310.292969 321.414062 310.535156 321.273438 310.636719 321.03125 Z M 310.636719 321.03125"/><path d="M 327 309.703125 C 327.035156 309.703125 327.035156 309.703125 327.070312 309.703125 C 327.171875 309.703125 327.273438 309.703125 327.410156 309.667969 C 327.789062 309.632812 328.0625 309.324219 328.0625 308.941406 C 328.027344 308.5625 327.71875 308.25 327.34375 308.285156 C 327.242188 308.285156 327.101562 308.285156 327 308.320312 C 326.625 308.355469 326.351562 308.664062 326.382812 309.046875 C 326.351562 309.425781 326.625 309.703125 327 309.703125 Z M 327 309.703125"/><path d="M 323.953125 310.152344 C 323.988281 310.152344 324.054688 310.152344 324.089844 310.117188 C 324.195312 310.082031 324.296875 310.082031 324.398438 310.046875 C 324.808594 309.980469 325.050781 309.632812 324.945312 309.253906 C 324.878906 308.875 324.5 308.632812 324.125 308.734375 C 324.023438 308.769531 323.886719 308.769531 323.78125 308.804688 C 323.441406 308.875 323.199219 309.253906 323.304688 309.632812 C 323.371094 309.945312 323.644531 310.152344 323.953125 310.152344 Z M 323.953125 310.152344"/><g clip-path="url(#d)"><path d="M 327.683594 335.574219 C 327.308594 335.230469 326.863281 335.089844 326.488281 335.023438 C 326.351562 334.261719 326.007812 333.710938 325.496094 333.328125 C 324.84375 332.847656 324.089844 332.8125 323.578125 332.878906 C 323.234375 332.292969 322.753906 331.914062 322.171875 331.707031 C 321.558594 331.5 320.976562 331.566406 320.496094 331.671875 C 320.257812 331.117188 319.914062 330.808594 319.605469 330.671875 C 318.714844 330.152344 317.6875 330.601562 317.585938 330.636719 C 317.519531 330.671875 317.449219 330.703125 317.378906 330.773438 C 317.378906 330.773438 315.667969 332.5 315.667969 332.5 C 315.601562 332.570312 314.847656 333.261719 314.8125 334.160156 L 311.9375 337.0625 C 311.730469 337.269531 311.5625 337.648438 311.527344 337.925781 L 311.253906 340.066406 C 311.253906 340.101562 311.21875 340.136719 311.21875 340.136719 L 306.871094 344.589844 C 306.597656 344.867188 306.597656 345.28125 306.871094 345.558594 C 307.007812 345.695312 307.179688 345.765625 307.351562 345.765625 C 307.519531 345.765625 307.691406 345.695312 307.828125 345.558594 L 312.210938 341.136719 C 312.417969 340.929688 312.589844 340.550781 312.621094 340.273438 L 312.894531 338.132812 C 312.894531 338.097656 312.929688 338.0625 312.929688 338.0625 L 315.464844 335.507812 C 315.667969 335.746094 316.285156 336.371094 317.105469 336.402344 C 317.175781 336.851562 317.414062 337.335938 317.894531 337.71875 C 317.894531 337.71875 317.929688 337.71875 317.929688 337.75 C 318.238281 337.957031 318.683594 338.132812 319.195312 338.132812 C 319.847656 338.132812 320.597656 337.855469 321.214844 336.992188 C 321.453125 336.679688 321.386719 336.265625 321.078125 336.023438 C 320.769531 335.78125 320.359375 335.851562 320.121094 336.164062 C 319.539062 336.957031 318.957031 336.75 318.714844 336.613281 C 318.375 336.335938 318.441406 335.957031 318.511719 335.746094 L 318.988281 335.195312 C 319.265625 334.917969 319.230469 334.46875 318.957031 334.226562 C 318.683594 333.953125 318.238281 333.984375 317.996094 334.261719 L 317.449219 334.851562 C 317.449219 334.851562 317.449219 334.882812 317.414062 334.882812 C 317.277344 335.058594 317.175781 335.058594 317.140625 335.058594 C 316.9375 335.058594 316.59375 334.78125 316.457031 334.609375 C 316.421875 334.574219 316.386719 334.539062 316.386719 334.503906 C 316.25 334.367188 316.21875 334.296875 316.21875 334.226562 C 316.21875 334.019531 316.457031 333.675781 316.59375 333.539062 C 316.628906 333.503906 318.238281 331.878906 318.238281 331.878906 C 318.40625 331.808594 318.75 331.777344 318.957031 331.878906 C 319.195312 332.015625 319.296875 332.398438 319.367188 332.707031 C 319.402344 332.914062 319.539062 333.121094 319.742188 333.226562 C 319.949219 333.328125 320.1875 333.328125 320.394531 333.191406 C 320.394531 333.191406 321.113281 332.8125 321.730469 333.019531 C 322.070312 333.121094 322.34375 333.433594 322.550781 333.917969 C 322.6875 334.226562 323.03125 334.402344 323.371094 334.296875 C 323.371094 334.296875 324.160156 334.089844 324.671875 334.46875 C 324.980469 334.675781 325.152344 335.125 325.1875 335.746094 C 325.1875 335.921875 325.289062 336.128906 325.425781 336.230469 C 325.5625 336.371094 325.769531 336.402344 325.941406 336.402344 C 326.078125 336.402344 326.519531 336.402344 326.761719 336.644531 C 326.933594 336.785156 327 337.027344 327.035156 337.371094 C 327.035156 337.371094 327.035156 337.40625 327.035156 337.40625 L 325.324219 339.097656 C 325.015625 338.339844 324.636719 337.613281 324.363281 337.09375 C 323.917969 336.300781 322.925781 335.988281 322.105469 336.371094 C 321.558594 336.613281 320.941406 337.199219 320.90625 338.582031 C 320.90625 338.890625 320.90625 339.375 320.90625 339.789062 C 318.511719 339.304688 316.730469 340.792969 316.628906 340.859375 C 316.355469 341.101562 316.285156 341.550781 316.558594 341.828125 C 316.695312 342 316.902344 342.070312 317.074219 342.070312 C 317.242188 342.070312 317.378906 342 317.519531 341.898438 C 317.550781 341.898438 319.503906 340.238281 321.933594 341.621094 C 322.277344 341.792969 322.6875 341.6875 322.859375 341.34375 C 323.03125 341 322.925781 340.585938 322.585938 340.410156 C 322.480469 340.34375 322.378906 340.308594 322.3125 340.273438 C 322.277344 339.960938 322.242188 339.304688 322.277344 338.582031 C 322.277344 337.75 322.585938 337.648438 322.652344 337.578125 C 322.824219 337.507812 323.097656 337.578125 323.167969 337.71875 C 323.917969 339.0625 324.636719 340.792969 324.535156 341.792969 C 324.125 342.3125 322.140625 344.589844 317.929688 345.316406 C 317.65625 345.351562 317.3125 345.523438 317.105469 345.765625 L 312.554688 350.359375 C 312.28125 350.636719 312.28125 351.050781 312.554688 351.328125 C 312.691406 351.464844 312.863281 351.535156 313.03125 351.535156 C 313.203125 351.535156 313.375 351.464844 313.511719 351.328125 L 318.066406 346.734375 C 318.101562 346.699219 318.132812 346.699219 318.167969 346.664062 C 323.542969 345.730469 325.699219 342.585938 325.769531 342.449219 C 325.800781 342.378906 325.835938 342.277344 325.871094 342.207031 C 325.972656 341.722656 325.90625 341.136719 325.800781 340.550781 L 327.992188 338.339844 C 328.199219 338.132812 328.40625 337.75 328.40625 337.371094 C 328.40625 336.4375 328.027344 335.886719 327.683594 335.574219 Z M 327.683594 335.574219"/></g><g clip-path="url(#e)"><path d="M 329.464844 323.761719 C 329.84375 324.105469 330.289062 324.246094 330.664062 324.3125 C 330.800781 325.074219 331.144531 325.625 331.65625 326.007812 C 332.308594 326.492188 333.058594 326.523438 333.574219 326.457031 C 333.917969 327.042969 334.394531 327.421875 334.976562 327.628906 C 335.59375 327.835938 336.175781 327.769531 336.65625 327.664062 C 336.894531 328.21875 337.238281 328.527344 337.546875 328.667969 C 337.886719 328.839844 338.230469 328.910156 338.539062 328.910156 C 339.085938 328.910156 339.496094 328.734375 339.566406 328.699219 C 339.632812 328.667969 339.703125 328.632812 339.769531 328.5625 C 339.769531 328.5625 341.480469 326.835938 341.480469 326.835938 C 341.550781 326.765625 342.304688 326.074219 342.335938 325.175781 L 345.214844 322.277344 C 345.417969 322.070312 345.589844 321.6875 345.625 321.414062 L 345.898438 319.269531 C 345.898438 319.234375 345.933594 319.203125 345.933594 319.203125 L 350.316406 314.78125 C 350.589844 314.503906 350.589844 314.089844 350.316406 313.8125 C 350.039062 313.535156 349.628906 313.535156 349.355469 313.8125 L 344.972656 318.234375 C 344.769531 318.441406 344.597656 318.820312 344.5625 319.097656 L 344.289062 321.238281 C 344.289062 321.273438 344.253906 321.308594 344.253906 321.308594 L 341.722656 323.863281 C 341.515625 323.625 340.898438 323 340.078125 322.96875 C 340.011719 322.519531 339.769531 322.035156 339.289062 321.652344 C 339.289062 321.652344 339.257812 321.652344 339.257812 321.621094 C 338.539062 321.101562 337.03125 320.894531 335.96875 322.378906 C 335.730469 322.691406 335.800781 323.105469 336.105469 323.347656 C 336.414062 323.589844 336.824219 323.519531 337.066406 323.207031 C 337.648438 322.414062 338.230469 322.621094 338.46875 322.757812 C 338.8125 323.035156 338.742188 323.414062 338.675781 323.625 L 338.160156 324.140625 C 337.886719 324.417969 337.921875 324.867188 338.195312 325.109375 C 338.46875 325.386719 338.914062 325.351562 339.152344 325.074219 L 339.703125 324.488281 C 339.703125 324.488281 339.703125 324.453125 339.734375 324.453125 C 339.871094 324.28125 339.976562 324.28125 340.011719 324.28125 C 340.214844 324.28125 340.558594 324.554688 340.695312 324.730469 C 340.730469 324.761719 340.761719 324.796875 340.761719 324.832031 C 340.898438 324.96875 340.933594 325.039062 340.933594 325.109375 C 340.933594 325.316406 340.695312 325.660156 340.558594 325.800781 C 340.523438 325.835938 338.914062 327.457031 338.914062 327.457031 C 338.742188 327.527344 338.402344 327.5625 338.195312 327.457031 C 337.957031 327.320312 337.851562 326.9375 337.785156 326.628906 C 337.75 326.421875 337.613281 326.214844 337.40625 326.109375 C 337.203125 326.007812 336.964844 326.007812 336.757812 326.144531 C 336.757812 326.144531 336.039062 326.523438 335.421875 326.316406 C 335.082031 326.214844 334.804688 325.902344 334.601562 325.417969 C 334.464844 325.109375 334.121094 324.9375 333.777344 325.039062 C 333.777344 325.039062 332.992188 325.246094 332.476562 324.867188 C 332.171875 324.660156 332 324.210938 331.964844 323.589844 C 331.964844 323.414062 331.863281 323.207031 331.726562 323.105469 C 331.589844 322.96875 331.382812 322.933594 331.210938 322.933594 C 331.074219 322.933594 330.628906 322.933594 330.390625 322.691406 C 330.21875 322.550781 330.148438 322.3125 330.117188 321.964844 C 330.117188 321.964844 330.117188 321.929688 330.117188 321.929688 L 331.828125 320.238281 C 332.136719 320.996094 332.511719 321.722656 332.785156 322.242188 C 333.09375 322.792969 333.710938 323.140625 334.328125 323.140625 C 334.566406 323.140625 334.804688 323.105469 335.046875 323 C 335.59375 322.757812 336.210938 322.171875 336.242188 320.789062 C 336.242188 320.480469 336.242188 319.996094 336.242188 319.582031 C 336.585938 319.652344 336.894531 319.683594 337.203125 319.683594 C 339.121094 319.683594 340.421875 318.578125 340.523438 318.511719 C 340.796875 318.269531 340.867188 317.820312 340.59375 317.542969 C 340.351562 317.265625 339.90625 317.199219 339.632812 317.472656 C 339.597656 317.472656 337.648438 319.132812 335.21875 317.75 C 334.875 317.578125 334.464844 317.683594 334.292969 318.027344 C 334.121094 318.371094 334.222656 318.789062 334.566406 318.960938 C 334.667969 319.027344 334.773438 319.0625 334.839844 319.097656 C 334.875 319.410156 334.910156 320.066406 334.875 320.789062 C 334.875 321.621094 334.566406 321.722656 334.5 321.792969 C 334.328125 321.863281 334.054688 321.792969 333.984375 321.652344 C 333.230469 320.308594 332.511719 318.578125 332.613281 317.578125 C 333.027344 317.058594 335.011719 314.78125 339.222656 314.054688 C 339.496094 314.019531 339.839844 313.847656 340.042969 313.605469 L 344.597656 309.011719 C 344.871094 308.734375 344.871094 308.320312 344.597656 308.042969 C 344.324219 307.769531 343.914062 307.769531 343.640625 308.042969 L 339.050781 312.570312 C 339.015625 312.605469 338.984375 312.605469 338.949219 312.636719 C 333.574219 313.570312 331.417969 316.714844 331.347656 316.851562 C 331.3125 316.921875 331.28125 317.027344 331.246094 317.09375 C 331.144531 317.578125 331.210938 318.164062 331.3125 318.753906 L 329.125 320.964844 C 328.917969 321.171875 328.710938 321.550781 328.710938 321.929688 C 328.746094 322.898438 329.125 323.449219 329.464844 323.761719 Z M 329.464844 323.761719"/></g><g clip-path="url(#f)"><path d="M 311.59375 319.097656 C 311.628906 319.132812 311.628906 319.167969 311.664062 319.203125 C 312.589844 324.625 315.703125 326.765625 315.839844 326.871094 C 315.910156 326.90625 316.011719 326.9375 316.078125 326.972656 C 316.25 327.007812 316.457031 327.042969 316.660156 327.042969 C 317.003906 327.042969 317.378906 327.007812 317.757812 326.90625 L 319.949219 329.117188 C 320.152344 329.324219 320.53125 329.53125 320.90625 329.53125 C 321.867188 329.53125 322.414062 329.117188 322.6875 328.804688 C 323.03125 328.425781 323.167969 327.976562 323.234375 327.597656 C 323.988281 327.457031 324.535156 327.113281 324.914062 326.558594 C 325.359375 325.902344 325.425781 325.144531 325.359375 324.660156 C 325.941406 324.3125 326.351562 323.832031 326.519531 323.242188 C 326.726562 322.621094 326.660156 322.035156 326.554688 321.585938 C 327 321.378906 327.34375 321.101562 327.546875 320.6875 C 328.027344 319.789062 327.617188 318.753906 327.582031 318.648438 C 327.546875 318.578125 327.515625 318.511719 327.445312 318.441406 C 327.445312 318.441406 325.734375 316.714844 325.734375 316.714844 C 325.664062 316.644531 324.980469 315.886719 324.089844 315.851562 L 321.214844 312.949219 C 321.007812 312.742188 320.632812 312.570312 320.359375 312.535156 L 318.238281 312.257812 C 318.203125 312.257812 318.167969 312.222656 318.167969 312.222656 L 313.753906 307.769531 C 313.476562 307.492188 313.066406 307.492188 312.792969 307.769531 C 312.519531 308.042969 312.519531 308.457031 312.792969 308.734375 L 317.175781 313.15625 C 317.378906 313.363281 317.757812 313.535156 318.03125 313.570312 L 320.152344 313.847656 C 320.1875 313.847656 320.222656 313.882812 320.222656 313.882812 L 322.753906 316.402344 C 322.515625 316.609375 321.898438 317.234375 321.867188 318.027344 C 321.421875 318.097656 320.941406 318.339844 320.566406 318.820312 C 320.566406 318.820312 320.566406 318.855469 320.53125 318.855469 C 320.015625 319.582031 319.8125 321.101562 321.285156 322.171875 C 321.421875 322.277344 321.558594 322.3125 321.695312 322.3125 C 321.898438 322.3125 322.105469 322.207031 322.242188 322.035156 C 322.449219 321.722656 322.414062 321.308594 322.105469 321.066406 C 321.316406 320.480469 321.523438 319.890625 321.660156 319.683594 C 321.933594 319.339844 322.3125 319.410156 322.515625 319.476562 L 323.0625 319.996094 C 323.199219 320.132812 323.371094 320.167969 323.542969 320.167969 C 323.714844 320.167969 323.917969 320.101562 324.054688 319.960938 C 324.332031 319.683594 324.296875 319.234375 324.023438 318.996094 L 323.441406 318.441406 C 323.441406 318.441406 323.40625 318.441406 323.40625 318.40625 C 323.234375 318.269531 323.234375 318.164062 323.234375 318.128906 C 323.234375 317.921875 323.507812 317.578125 323.679688 317.441406 C 323.714844 317.40625 323.75 317.371094 323.78125 317.371094 C 323.917969 317.199219 323.988281 317.199219 324.054688 317.199219 C 324.261719 317.199219 324.605469 317.441406 324.742188 317.578125 C 324.777344 317.613281 326.382812 319.234375 326.382812 319.234375 C 326.417969 319.410156 326.488281 319.71875 326.382812 319.960938 C 326.246094 320.203125 325.871094 320.339844 325.5625 320.375 C 325.359375 320.410156 325.152344 320.550781 325.050781 320.757812 C 324.945312 320.964844 324.945312 321.207031 325.050781 321.414062 C 325.050781 321.414062 325.460938 322.136719 325.21875 322.757812 C 325.117188 323.105469 324.808594 323.382812 324.332031 323.589844 C 324.023438 323.726562 323.851562 324.074219 323.953125 324.417969 C 323.953125 324.417969 324.160156 325.210938 323.78125 325.730469 C 323.578125 326.042969 323.132812 326.214844 322.515625 326.25 C 322.34375 326.25 322.140625 326.351562 322.035156 326.492188 C 321.898438 326.628906 321.867188 326.835938 321.867188 327.007812 C 321.867188 327.148438 321.867188 327.597656 321.625 327.835938 C 321.488281 328.011719 321.25 328.078125 320.90625 328.113281 C 320.90625 328.113281 320.871094 328.113281 320.871094 328.113281 L 319.195312 326.421875 C 319.949219 326.109375 320.667969 325.730469 321.179688 325.453125 C 321.96875 325.003906 322.277344 324.003906 321.898438 323.175781 C 321.660156 322.65625 321.078125 322 319.707031 321.964844 C 319.402344 321.964844 318.921875 321.964844 318.511719 321.964844 C 318.988281 319.546875 317.519531 317.75 317.449219 317.648438 C 317.210938 317.371094 316.765625 317.300781 316.492188 317.578125 C 316.21875 317.820312 316.148438 318.269531 316.421875 318.546875 C 316.421875 318.578125 318.066406 320.550781 316.695312 322.96875 C 316.523438 323.3125 316.628906 323.726562 316.96875 323.898438 C 317.074219 323.96875 317.210938 324.003906 317.3125 324.003906 C 317.550781 324.003906 317.792969 323.863281 317.894531 323.65625 C 317.960938 323.554688 317.996094 323.449219 318.03125 323.382812 C 318.339844 323.347656 318.988281 323.3125 319.707031 323.347656 C 320.53125 323.347656 320.632812 323.65625 320.703125 323.726562 C 320.769531 323.898438 320.703125 324.175781 320.566406 324.246094 C 319.230469 325.003906 317.519531 325.730469 316.523438 325.625 C 316.011719 325.210938 313.753906 323.207031 313.03125 318.960938 C 313 318.683594 312.828125 318.339844 312.589844 318.128906 L 308 313.535156 C 307.726562 313.261719 307.316406 313.261719 307.042969 313.535156 C 306.769531 313.8125 306.769531 314.226562 307.042969 314.503906 Z M 311.59375 319.097656"/></g><g clip-path="url(#g)"><path d="M 345.554688 340.238281 C 345.523438 340.203125 345.523438 340.167969 345.488281 340.136719 C 344.5625 334.710938 341.449219 332.570312 341.3125 332.464844 C 341.242188 332.433594 341.140625 332.398438 341.070312 332.363281 C 340.59375 332.257812 340.011719 332.328125 339.429688 332.433594 L 337.238281 330.222656 C 337.03125 330.015625 336.65625 329.804688 336.277344 329.804688 C 335.320312 329.804688 334.773438 330.222656 334.5 330.53125 C 334.15625 330.910156 334.019531 331.359375 333.949219 331.742188 C 333.195312 331.878906 332.648438 332.222656 332.273438 332.777344 C 331.828125 333.433594 331.757812 334.195312 331.828125 334.675781 C 331.246094 335.023438 330.835938 335.507812 330.664062 336.09375 C 330.457031 336.714844 330.527344 337.300781 330.628906 337.75 C 330.183594 337.957031 329.84375 338.234375 329.636719 338.648438 C 329.15625 339.546875 329.566406 340.585938 329.601562 340.6875 C 329.636719 340.757812 329.671875 340.824219 329.738281 340.894531 C 329.738281 340.894531 331.453125 342.621094 331.453125 342.621094 C 331.519531 342.691406 332.203125 343.449219 333.09375 343.484375 L 335.96875 346.386719 C 336.175781 346.59375 336.550781 346.765625 336.824219 346.800781 L 338.949219 347.078125 C 338.984375 347.078125 339.015625 347.113281 339.015625 347.113281 L 343.398438 351.535156 C 343.535156 351.671875 343.707031 351.742188 343.878906 351.742188 C 344.050781 351.742188 344.222656 351.671875 344.359375 351.535156 C 344.632812 351.257812 344.632812 350.84375 344.359375 350.566406 L 339.976562 346.144531 C 339.769531 345.9375 339.394531 345.765625 339.121094 345.730469 L 336.996094 345.453125 C 336.964844 345.453125 336.929688 345.421875 336.929688 345.421875 L 334.394531 342.898438 C 334.636719 342.691406 335.25 342.070312 335.285156 341.273438 C 335.730469 341.207031 336.210938 340.964844 336.585938 340.480469 C 336.585938 340.480469 336.585938 340.445312 336.621094 340.445312 C 337.132812 339.71875 337.339844 338.199219 335.867188 337.128906 C 335.558594 336.886719 335.148438 336.957031 334.910156 337.269531 C 334.703125 337.578125 334.738281 337.992188 335.046875 338.234375 C 335.832031 338.824219 335.628906 339.410156 335.492188 339.617188 C 335.21875 339.960938 334.839844 339.894531 334.636719 339.824219 L 334.085938 339.339844 C 333.8125 339.0625 333.367188 339.097656 333.128906 339.375 C 332.855469 339.652344 332.890625 340.101562 333.164062 340.34375 C 333.164062 340.34375 333.777344 340.894531 333.777344 340.929688 C 333.949219 341.066406 333.949219 341.171875 333.949219 341.207031 C 333.949219 341.414062 333.675781 341.757812 333.503906 341.898438 C 333.472656 341.929688 333.4375 341.964844 333.402344 341.964844 C 333.265625 342.136719 333.195312 342.136719 333.128906 342.136719 C 332.921875 342.136719 332.582031 341.898438 332.445312 341.757812 L 330.800781 340.101562 C 330.765625 339.925781 330.699219 339.617188 330.800781 339.375 C 330.9375 339.132812 331.3125 338.996094 331.621094 338.960938 C 331.828125 338.925781 332.035156 338.789062 332.136719 338.582031 C 332.238281 338.375 332.238281 338.132812 332.136719 337.925781 C 332.136719 337.925781 331.726562 337.199219 331.964844 336.578125 C 332.066406 336.230469 332.375 335.957031 332.855469 335.746094 C 333.164062 335.609375 333.335938 335.265625 333.230469 334.917969 C 333.230469 334.917969 333.027344 334.125 333.402344 333.605469 C 333.609375 333.296875 334.054688 333.121094 334.667969 333.089844 C 334.839844 333.089844 335.046875 332.984375 335.148438 332.847656 C 335.285156 332.707031 335.320312 332.5 335.320312 332.328125 C 335.320312 332.191406 335.320312 331.742188 335.558594 331.5 C 335.695312 331.328125 335.9375 331.257812 336.277344 331.222656 C 336.277344 331.222656 336.3125 331.222656 336.3125 331.222656 L 337.988281 332.914062 C 337.238281 333.226562 336.519531 333.605469 336.003906 333.882812 C 335.21875 334.332031 334.910156 335.332031 335.285156 336.164062 C 335.523438 336.679688 336.105469 337.335938 337.476562 337.371094 C 337.785156 337.371094 338.265625 337.371094 338.675781 337.371094 C 338.195312 339.789062 339.667969 341.585938 339.734375 341.6875 C 339.871094 341.863281 340.078125 341.929688 340.25 341.929688 C 340.421875 341.929688 340.558594 341.863281 340.695312 341.757812 C 340.96875 341.515625 341.035156 341.066406 340.761719 340.792969 C 340.761719 340.757812 339.121094 338.789062 340.488281 336.371094 C 340.660156 336.023438 340.558594 335.609375 340.214844 335.4375 C 339.871094 335.265625 339.460938 335.367188 339.289062 335.714844 C 339.222656 335.816406 339.1875 335.921875 339.152344 335.988281 C 338.847656 336.023438 338.160156 336.023438 337.476562 336.023438 C 336.65625 336.023438 336.550781 335.714844 336.484375 335.644531 C 336.414062 335.472656 336.484375 335.195312 336.621094 335.125 C 337.957031 334.367188 339.667969 333.640625 340.660156 333.746094 C 341.175781 334.160156 343.433594 336.164062 344.152344 340.410156 C 344.1875 340.6875 344.359375 341.03125 344.597656 341.242188 L 349.152344 345.835938 C 349.289062 345.972656 349.457031 346.042969 349.628906 346.042969 C 349.800781 346.042969 349.972656 345.972656 350.109375 345.835938 C 350.382812 345.558594 350.382812 345.144531 350.109375 344.867188 Z M 345.554688 340.238281"/></g><g><g><g><path d="M 47.59375 -13.171875 C 47.59375 -11.984375 47.488281 -10.554688 47.28125 -8.890625 C 47.070312 -7.234375 46.671875 -5.648438 46.078125 -4.140625 C 45.484375 -2.628906 44.679688 -1.351562 43.671875 -0.3125 C 42.671875 0.726562 41.335938 1.25 39.671875 1.25 C 37.484375 1.25 35.835938 0.445312 34.734375 -1.15625 C 33.640625 -2.757812 32.851562 -4.671875 32.375 -6.890625 C 31.90625 -9.117188 31.625 -11.390625 31.53125 -13.703125 C 31.445312 -16.015625 31.375 -17.851562 31.3125 -19.21875 C 27.039062 -18.5 22.832031 -17.875 18.6875 -17.34375 C 18.5625 -15.976562 18.304688 -14.285156 17.921875 -12.265625 C 17.535156 -10.253906 16.941406 -8.3125 16.140625 -6.4375 C 15.335938 -4.570312 14.300781 -2.957031 13.03125 -1.59375 C 11.757812 -0.238281 10.203125 0.4375 8.359375 0.4375 C 6.941406 0.4375 5.832031 -0.078125 5.03125 -1.109375 C 4.226562 -2.148438 3.617188 -3.378906 3.203125 -4.796875 C 2.785156 -6.222656 2.53125 -7.691406 2.4375 -9.203125 C 2.351562 -10.710938 2.3125 -11.972656 2.3125 -12.984375 C 2.3125 -16.367188 2.578125 -19.707031 3.109375 -23 C 3.648438 -26.289062 4.273438 -29.566406 4.984375 -32.828125 C 5.335938 -34.546875 5.8125 -36.5625 6.40625 -38.875 C 7 -41.1875 7.722656 -43.570312 8.578125 -46.03125 C 9.441406 -48.5 10.453125 -50.929688 11.609375 -53.328125 C 12.765625 -55.734375 14.082031 -57.882812 15.5625 -59.78125 C 17.050781 -61.675781 18.742188 -63.21875 20.640625 -64.40625 C 22.535156 -65.59375 24.640625 -66.1875 26.953125 -66.1875 C 29.203125 -66.1875 31.15625 -65.679688 32.8125 -64.671875 C 34.476562 -63.660156 35.929688 -62.320312 37.171875 -60.65625 C 38.421875 -59 39.460938 -57.117188 40.296875 -55.015625 C 41.128906 -52.910156 41.828125 -50.773438 42.390625 -48.609375 C 42.953125 -46.453125 43.425781 -44.332031 43.8125 -42.25 C 44.195312 -40.175781 44.535156 -38.335938 44.828125 -36.734375 C 45.597656 -32.878906 46.25 -28.976562 46.78125 -25.03125 C 47.320312 -21.09375 47.59375 -17.140625 47.59375 -13.171875 Z M 30.421875 -34.78125 C 30.421875 -35.488281 30.375 -36.660156 30.28125 -38.296875 C 30.195312 -39.929688 30.003906 -41.5625 29.703125 -43.1875 C 29.410156 -44.820312 28.953125 -46.273438 28.328125 -47.546875 C 27.710938 -48.828125 26.867188 -49.46875 25.796875 -49.46875 C 25.203125 -49.46875 24.640625 -49.066406 24.109375 -48.265625 C 23.578125 -47.460938 23.101562 -46.453125 22.6875 -45.234375 C 22.269531 -44.015625 21.894531 -42.664062 21.5625 -41.1875 C 21.238281 -39.707031 20.957031 -38.285156 20.71875 -36.921875 C 20.488281 -35.554688 20.3125 -34.320312 20.1875 -33.21875 C 20.070312 -32.125 19.984375 -31.34375 19.921875 -30.875 C 23.484375 -31.164062 26.984375 -31.609375 30.421875 -32.203125 Z M 30.421875 -34.78125" transform="translate(18.733 283.908)"/></g></g><g><g><path d="M 35.671875 -34.15625 C 35.671875 -33.863281 35.640625 -33.550781 35.578125 -33.21875 C 35.523438 -32.894531 35.4375 -32.585938 35.3125 -32.296875 C 34.78125 -30.929688 33.953125 -29.785156 32.828125 -28.859375 C 31.703125 -27.941406 30.367188 -27.484375 28.828125 -27.484375 C 26.515625 -27.484375 24.941406 -28.640625 24.109375 -30.953125 C 23.992188 -31.253906 23.9375 -31.597656 23.9375 -31.984375 C 23.9375 -32.367188 23.90625 -32.769531 23.84375 -33.1875 L 23.84375 -35.765625 C 23.71875 -36.585938 23.507812 -37.238281 23.21875 -37.71875 C 22.925781 -38.195312 22.421875 -38.4375 21.703125 -38.4375 C 20.691406 -38.4375 19.726562 -37.796875 18.8125 -36.515625 C 17.894531 -35.242188 17.09375 -33.734375 16.40625 -31.984375 C 15.726562 -30.234375 15.179688 -28.4375 14.765625 -26.59375 C 14.347656 -24.757812 14.140625 -23.28125 14.140625 -22.15625 C 14.140625 -21.257812 14.195312 -20.171875 14.3125 -18.890625 C 14.4375 -17.617188 14.675781 -16.390625 15.03125 -15.203125 C 15.382812 -14.023438 15.875 -13.003906 16.5 -12.140625 C 17.125 -11.285156 17.941406 -10.859375 18.953125 -10.859375 C 19.953125 -10.859375 20.882812 -11.164062 21.75 -11.78125 C 22.613281 -12.40625 23.457031 -13.132812 24.28125 -13.96875 C 25.050781 -14.675781 25.894531 -15.414062 26.8125 -16.1875 C 27.738281 -16.957031 28.796875 -17.34375 29.984375 -17.34375 C 31.460938 -17.34375 32.628906 -16.804688 33.484375 -15.734375 C 34.347656 -14.671875 34.78125 -13.457031 34.78125 -12.09375 C 34.78125 -10.082031 34.242188 -8.203125 33.171875 -6.453125 C 32.109375 -4.703125 30.773438 -3.1875 29.171875 -1.90625 C 27.578125 -0.632812 25.800781 0.367188 23.84375 1.109375 C 21.882812 1.847656 20.015625 2.21875 18.234375 2.21875 C 15.035156 2.21875 12.320312 1.421875 10.09375 -0.171875 C 7.875 -1.773438 6.082031 -3.804688 4.71875 -6.265625 C 3.351562 -8.734375 2.375 -11.421875 1.78125 -14.328125 C 1.1875 -17.234375 0.890625 -19.988281 0.890625 -22.59375 C 0.890625 -25.613281 1.300781 -28.890625 2.125 -32.421875 C 2.957031 -35.953125 4.234375 -39.226562 5.953125 -42.25 C 7.679688 -45.28125 9.894531 -47.800781 12.59375 -49.8125 C 15.289062 -51.832031 18.503906 -52.84375 22.234375 -52.84375 C 24.546875 -52.84375 26.546875 -52.335938 28.234375 -51.328125 C 29.929688 -50.316406 31.328125 -48.992188 32.421875 -47.359375 C 33.523438 -45.734375 34.359375 -43.910156 34.921875 -41.890625 C 35.484375 -39.878906 35.765625 -37.894531 35.765625 -35.9375 C 35.765625 -35.644531 35.765625 -35.347656 35.765625 -35.046875 C 35.765625 -34.753906 35.734375 -34.457031 35.671875 -34.15625 Z M 35.671875 -34.15625" transform="translate(69.442 283.908)"/></g></g><g><g><path d="M 35.671875 -34.15625 C 35.671875 -33.863281 35.640625 -33.550781 35.578125 -33.21875 C 35.523438 -32.894531 35.4375 -32.585938 35.3125 -32.296875 C 34.78125 -30.929688 33.953125 -29.785156 32.828125 -28.859375 C 31.703125 -27.941406 30.367188 -27.484375 28.828125 -27.484375 C 26.515625 -27.484375 24.941406 -28.640625 24.109375 -30.953125 C 23.992188 -31.253906 23.9375 -31.597656 23.9375 -31.984375 C 23.9375 -32.367188 23.90625 -32.769531 23.84375 -33.1875 L 23.84375 -35.765625 C 23.71875 -36.585938 23.507812 -37.238281 23.21875 -37.71875 C 22.925781 -38.195312 22.421875 -38.4375 21.703125 -38.4375 C 20.691406 -38.4375 19.726562 -37.796875 18.8125 -36.515625 C 17.894531 -35.242188 17.09375 -33.734375 16.40625 -31.984375 C 15.726562 -30.234375 15.179688 -28.4375 14.765625 -26.59375 C 14.347656 -24.757812 14.140625 -23.28125 14.140625 -22.15625 C 14.140625 -21.257812 14.195312 -20.171875 14.3125 -18.890625 C 14.4375 -17.617188 14.675781 -16.390625 15.03125 -15.203125 C 15.382812 -14.023438 15.875 -13.003906 16.5 -12.140625 C 17.125 -11.285156 17.941406 -10.859375 18.953125 -10.859375 C 19.953125 -10.859375 20.882812 -11.164062 21.75 -11.78125 C 22.613281 -12.40625 23.457031 -13.132812 24.28125 -13.96875 C 25.050781 -14.675781 25.894531 -15.414062 26.8125 -16.1875 C 27.738281 -16.957031 28.796875 -17.34375 29.984375 -17.34375 C 31.460938 -17.34375 32.628906 -16.804688 33.484375 -15.734375 C 34.347656 -14.671875 34.78125 -13.457031 34.78125 -12.09375 C 34.78125 -10.082031 34.242188 -8.203125 33.171875 -6.453125 C 32.109375 -4.703125 30.773438 -3.1875 29.171875 -1.90625 C 27.578125 -0.632812 25.800781 0.367188 23.84375 1.109375 C 21.882812 1.847656 20.015625 2.21875 18.234375 2.21875 C 15.035156 2.21875 12.320312 1.421875 10.09375 -0.171875 C 7.875 -1.773438 6.082031 -3.804688 4.71875 -6.265625 C 3.351562 -8.734375 2.375 -11.421875 1.78125 -14.328125 C 1.1875 -17.234375 0.890625 -19.988281 0.890625 -22.59375 C 0.890625 -25.613281 1.300781 -28.890625 2.125 -32.421875 C 2.957031 -35.953125 4.234375 -39.226562 5.953125 -42.25 C 7.679688 -45.28125 9.894531 -47.800781 12.59375 -49.8125 C 15.289062 -51.832031 18.503906 -52.84375 22.234375 -52.84375 C 24.546875 -52.84375 26.546875 -52.335938 28.234375 -51.328125 C 29.929688 -50.316406 31.328125 -48.992188 32.421875 -47.359375 C 33.523438 -45.734375 34.359375 -43.910156 34.921875 -41.890625 C 35.484375 -39.878906 35.765625 -37.894531 35.765625 -35.9375 C 35.765625 -35.644531 35.765625 -35.347656 35.765625 -35.046875 C 35.765625 -34.753906 35.734375 -34.457031 35.671875 -34.15625 Z M 35.671875 -34.15625" transform="translate(107.43 283.908)"/></g></g><g><g><path d="M 19.578125 2.578125 C 16.546875 2.578125 13.898438 1.773438 11.640625 0.171875 C 9.390625 -1.421875 7.492188 -3.460938 5.953125 -5.953125 C 4.410156 -8.453125 3.253906 -11.226562 2.484375 -14.28125 C 1.710938 -17.332031 1.328125 -20.34375 1.328125 -23.3125 C 1.328125 -26.445312 1.710938 -29.691406 2.484375 -33.046875 C 3.253906 -36.398438 4.441406 -39.453125 6.046875 -42.203125 C 7.648438 -44.960938 9.695312 -47.21875 12.1875 -48.96875 C 14.675781 -50.71875 17.640625 -51.59375 21.078125 -51.59375 C 24.398438 -51.59375 27.234375 -50.6875 29.578125 -48.875 C 31.921875 -47.070312 33.800781 -44.820312 35.21875 -42.125 C 36.644531 -39.425781 37.65625 -36.472656 38.25 -33.265625 C 38.84375 -30.066406 39.050781 -27.046875 38.875 -24.203125 C 38.695312 -21.054688 38.207031 -17.878906 37.40625 -14.671875 C 36.601562 -11.472656 35.429688 -8.597656 33.890625 -6.046875 C 32.347656 -3.492188 30.390625 -1.421875 28.015625 0.171875 C 25.648438 1.773438 22.835938 2.578125 19.578125 2.578125 Z M 20.453125 -37.625 C 19.566406 -37.625 18.78125 -37.148438 18.09375 -36.203125 C 17.414062 -35.253906 16.851562 -34.097656 16.40625 -32.734375 C 15.96875 -31.367188 15.628906 -29.929688 15.390625 -28.421875 C 15.148438 -26.910156 15.03125 -25.59375 15.03125 -24.46875 C 15.03125 -23.039062 15.160156 -21.492188 15.421875 -19.828125 C 15.691406 -18.171875 16.066406 -16.644531 16.546875 -15.25 C 17.023438 -13.863281 17.601562 -12.707031 18.28125 -11.78125 C 18.957031 -10.863281 19.742188 -10.40625 20.640625 -10.40625 C 21.585938 -10.40625 22.398438 -10.847656 23.078125 -11.734375 C 23.765625 -12.628906 24.316406 -13.757812 24.734375 -15.125 C 25.148438 -16.488281 25.445312 -17.984375 25.625 -19.609375 C 25.800781 -21.242188 25.890625 -22.773438 25.890625 -24.203125 C 25.890625 -25.503906 25.769531 -26.941406 25.53125 -28.515625 C 25.289062 -30.085938 24.945312 -31.550781 24.5 -32.90625 C 24.0625 -34.269531 23.5 -35.394531 22.8125 -36.28125 C 22.132812 -37.175781 21.347656 -37.625 20.453125 -37.625 Z M 20.453125 -37.625" transform="translate(145.417 283.908)"/></g></g><g><g><path d="M 41.625 -25.4375 C 41.625 -22.175781 41.296875 -18.941406 40.640625 -15.734375 C 39.992188 -12.535156 38.898438 -9.675781 37.359375 -7.15625 C 35.816406 -4.632812 33.753906 -2.601562 31.171875 -1.0625 C 28.597656 0.476562 25.382812 1.25 21.53125 1.25 C 17.726562 1.25 14.550781 0.492188 12 -1.015625 C 9.457031 -2.535156 7.425781 -4.539062 5.90625 -7.03125 C 4.394531 -9.519531 3.328125 -12.332031 2.703125 -15.46875 C 2.085938 -18.613281 1.78125 -21.820312 1.78125 -25.09375 C 1.78125 -28.644531 2.195312 -32.171875 3.03125 -35.671875 C 3.207031 -36.617188 3.546875 -37.9375 4.046875 -39.625 C 4.546875 -41.320312 5.195312 -42.984375 6 -44.609375 C 6.800781 -46.242188 7.71875 -47.65625 8.75 -48.84375 C 9.789062 -50.03125 10.9375 -50.625 12.1875 -50.625 C 13.375 -50.625 14.320312 -50.296875 15.03125 -49.640625 C 15.738281 -48.984375 16.300781 -48.164062 16.71875 -47.1875 C 17.132812 -46.207031 17.398438 -45.171875 17.515625 -44.078125 C 17.640625 -42.984375 17.703125 -41.988281 17.703125 -41.09375 C 17.703125 -39.726562 17.597656 -38.394531 17.390625 -37.09375 C 17.179688 -35.789062 16.957031 -34.488281 16.71875 -33.1875 C 16.488281 -31.40625 16.269531 -29.625 16.0625 -27.84375 C 15.851562 -26.0625 15.75 -24.28125 15.75 -22.5 C 15.75 -21.613281 15.789062 -20.617188 15.875 -19.515625 C 15.96875 -18.421875 16.191406 -17.367188 16.546875 -16.359375 C 16.898438 -15.359375 17.398438 -14.515625 18.046875 -13.828125 C 18.703125 -13.148438 19.625 -12.8125 20.8125 -12.8125 C 22.351562 -12.8125 23.582031 -13.222656 24.5 -14.046875 C 25.425781 -14.878906 26.109375 -15.914062 26.546875 -17.15625 C 26.992188 -18.40625 27.273438 -19.742188 27.390625 -21.171875 C 27.515625 -22.597656 27.578125 -23.90625 27.578125 -25.09375 C 27.578125 -27.695312 27.398438 -30.257812 27.046875 -32.78125 C 26.691406 -35.300781 26.363281 -37.863281 26.0625 -40.46875 C 26 -40.769531 25.96875 -41.1875 25.96875 -41.71875 C 25.96875 -42.613281 26.113281 -43.503906 26.40625 -44.390625 C 26.707031 -45.273438 27.125 -46.070312 27.65625 -46.78125 C 28.195312 -47.5 28.851562 -48.078125 29.625 -48.515625 C 30.394531 -48.960938 31.253906 -49.1875 32.203125 -49.1875 C 33.503906 -49.1875 34.660156 -48.726562 35.671875 -47.8125 C 36.679688 -46.894531 37.523438 -45.707031 38.203125 -44.25 C 38.890625 -42.800781 39.453125 -41.171875 39.890625 -39.359375 C 40.335938 -37.554688 40.691406 -35.78125 40.953125 -34.03125 C 41.222656 -32.28125 41.398438 -30.632812 41.484375 -29.09375 C 41.578125 -27.550781 41.625 -26.332031 41.625 -25.4375 Z M 41.625 -25.4375" transform="translate(186.163 283.908)"/></g></g><g><g><path d="M 28.734375 -48.921875 C 28.734375 -47.203125 28.15625 -45.925781 27 -45.09375 C 25.84375 -44.269531 24.550781 -43.484375 23.125 -42.734375 C 21.707031 -41.992188 20.421875 -41.117188 19.265625 -40.109375 C 18.109375 -39.109375 17.53125 -37.597656 17.53125 -35.578125 C 17.53125 -34.515625 17.78125 -33.597656 18.28125 -32.828125 C 18.78125 -32.054688 19.398438 -31.359375 20.140625 -30.734375 C 20.890625 -30.109375 21.707031 -29.46875 22.59375 -28.8125 C 23.488281 -28.164062 24.304688 -27.425781 25.046875 -26.59375 C 25.785156 -25.769531 26.40625 -24.765625 26.90625 -23.578125 C 27.414062 -22.390625 27.671875 -20.9375 27.671875 -19.21875 C 27.671875 -16.726562 27.03125 -14.28125 25.75 -11.875 C 24.476562 -9.46875 22.847656 -7.332031 20.859375 -5.46875 C 18.867188 -3.601562 16.628906 -2.101562 14.140625 -0.96875 C 11.648438 0.15625 9.191406 0.71875 6.765625 0.71875 C 5.753906 0.71875 4.742188 0.640625 3.734375 0.484375 C 2.722656 0.335938 1.816406 0.0546875 1.015625 -0.359375 C 0.222656 -0.773438 -0.4375 -1.351562 -0.96875 -2.09375 C -1.507812 -2.832031 -1.78125 -3.796875 -1.78125 -4.984375 C -1.78125 -6.640625 -1.453125 -7.925781 -0.796875 -8.84375 C -0.148438 -9.769531 0.675781 -10.5 1.6875 -11.03125 C 2.695312 -11.5625 3.78125 -11.972656 4.9375 -12.265625 C 6.09375 -12.566406 7.175781 -12.941406 8.1875 -13.390625 C 9.195312 -13.835938 10.023438 -14.414062 10.671875 -15.125 C 11.328125 -15.832031 11.65625 -16.835938 11.65625 -18.140625 C 11.65625 -19.390625 11.164062 -20.679688 10.1875 -22.015625 C 9.207031 -23.347656 8.125 -24.769531 6.9375 -26.28125 C 5.75 -27.800781 4.664062 -29.421875 3.6875 -31.140625 C 2.707031 -32.859375 2.21875 -34.753906 2.21875 -36.828125 C 2.21875 -39.378906 2.738281 -41.734375 3.78125 -43.890625 C 4.820312 -46.054688 6.21875 -47.941406 7.96875 -49.546875 C 9.71875 -51.148438 11.71875 -52.410156 13.96875 -53.328125 C 16.21875 -54.242188 18.585938 -54.703125 21.078125 -54.703125 C 22.023438 -54.703125 22.957031 -54.613281 23.875 -54.4375 C 24.800781 -54.257812 25.617188 -53.945312 26.328125 -53.5 C 27.046875 -53.0625 27.625 -52.472656 28.0625 -51.734375 C 28.507812 -50.992188 28.734375 -50.054688 28.734375 -48.921875 Z M 28.734375 -48.921875" transform="translate(230.556 283.908)"/></g></g><g><g><path d="M 23.390625 3.203125 C 19.179688 3.203125 15.90625 2.648438 13.5625 1.546875 C 11.21875 0.453125 9.46875 -1.097656 8.3125 -3.109375 C 7.15625 -5.128906 6.457031 -7.5625 6.21875 -10.40625 C 5.988281 -13.25 5.875 -16.421875 5.875 -19.921875 C 5.875 -22.710938 5.960938 -25.515625 6.140625 -28.328125 C 6.316406 -31.148438 6.582031 -34.160156 6.9375 -37.359375 C 6.101562 -37.359375 5.445312 -37.34375 4.96875 -37.3125 C 4.5 -37.289062 4.117188 -37.28125 3.828125 -37.28125 C 1.929688 -37.28125 0.285156 -37.691406 -1.109375 -38.515625 C -2.503906 -39.347656 -3.203125 -40.625 -3.203125 -42.34375 C -3.203125 -43.414062 -2.800781 -44.363281 -2 -45.1875 C -1.195312 -46.019531 -0.175781 -46.734375 1.0625 -47.328125 C 2.3125 -47.921875 3.660156 -48.394531 5.109375 -48.75 C 6.566406 -49.101562 7.945312 -49.34375 9.25 -49.46875 C 9.25 -51.125 9.367188 -52.957031 9.609375 -54.96875 C 9.847656 -56.988281 10.273438 -58.875 10.890625 -60.625 C 11.515625 -62.375 12.359375 -63.84375 13.421875 -65.03125 C 14.492188 -66.21875 15.863281 -66.8125 17.53125 -66.8125 C 18.476562 -66.8125 19.320312 -66.53125 20.0625 -65.96875 C 20.800781 -65.40625 21.40625 -64.691406 21.875 -63.828125 C 22.351562 -62.960938 22.710938 -61.992188 22.953125 -60.921875 C 23.191406 -59.859375 23.3125 -58.828125 23.3125 -57.828125 C 23.3125 -56.640625 23.222656 -55.421875 23.046875 -54.171875 C 22.867188 -52.929688 22.539062 -51.390625 22.0625 -49.546875 C 23.070312 -49.671875 23.753906 -49.742188 24.109375 -49.765625 C 24.460938 -49.796875 24.789062 -49.8125 25.09375 -49.8125 C 26.09375 -49.8125 27.140625 -49.722656 28.234375 -49.546875 C 29.335938 -49.367188 30.347656 -49.070312 31.265625 -48.65625 C 32.179688 -48.238281 32.9375 -47.6875 33.53125 -47 C 34.125 -46.320312 34.421875 -45.507812 34.421875 -44.5625 C 34.421875 -43.5 33.988281 -42.550781 33.125 -41.71875 C 32.269531 -40.882812 31.191406 -40.171875 29.890625 -39.578125 C 28.585938 -38.992188 27.191406 -38.535156 25.703125 -38.203125 C 24.222656 -37.878906 22.832031 -37.660156 21.53125 -37.546875 C 21.175781 -35.109375 20.921875 -32.863281 20.765625 -30.8125 C 20.617188 -28.769531 20.457031 -26.710938 20.28125 -24.640625 C 20.164062 -23.628906 20.0625 -22.601562 19.96875 -21.5625 C 19.882812 -20.53125 19.84375 -19.484375 19.84375 -18.421875 C 19.84375 -17.648438 19.867188 -16.742188 19.921875 -15.703125 C 19.984375 -14.660156 20.191406 -13.664062 20.546875 -12.71875 C 20.898438 -11.769531 21.460938 -10.953125 22.234375 -10.265625 C 23.003906 -9.585938 24.070312 -9.25 25.4375 -9.25 C 26.269531 -9.25 27.128906 -9.320312 28.015625 -9.46875 C 28.910156 -9.625 29.800781 -9.703125 30.6875 -9.703125 C 32.226562 -9.703125 33.335938 -9.164062 34.015625 -8.09375 C 34.703125 -7.03125 35.046875 -5.664062 35.046875 -4 C 35.046875 -2.757812 34.675781 -1.675781 33.9375 -0.75 C 33.195312 0.164062 32.265625 0.90625 31.140625 1.46875 C 30.015625 2.03125 28.753906 2.457031 27.359375 2.75 C 25.960938 3.050781 24.640625 3.203125 23.390625 3.203125 Z M 23.390625 3.203125" transform="translate(260.18 283.908)"/></g></g><g><g><path d="M 17.34375 -62.09375 C 17.34375 -61.257812 17.117188 -60.515625 16.671875 -59.859375 C 16.234375 -59.210938 15.65625 -58.632812 14.9375 -58.125 C 14.226562 -57.625 13.457031 -57.238281 12.625 -56.96875 C 11.800781 -56.707031 11.03125 -56.578125 10.3125 -56.578125 C 9.132812 -56.578125 8.097656 -56.875 7.203125 -57.46875 C 6.316406 -58.0625 5.875 -58.976562 5.875 -60.21875 C 5.875 -61.113281 6.09375 -61.898438 6.53125 -62.578125 C 6.976562 -63.265625 7.523438 -63.828125 8.171875 -64.265625 C 8.828125 -64.710938 9.570312 -65.054688 10.40625 -65.296875 C 11.238281 -65.535156 12.039062 -65.65625 12.8125 -65.65625 C 13.9375 -65.65625 14.972656 -65.382812 15.921875 -64.84375 C 16.867188 -64.3125 17.34375 -63.394531 17.34375 -62.09375 Z M 18.0625 -31.84375 C 18.0625 -31.019531 18.0625 -30.144531 18.0625 -29.21875 C 18.0625 -28.300781 18.03125 -27.425781 17.96875 -26.59375 C 17.90625 -25.59375 17.875 -24.242188 17.875 -22.546875 C 17.875 -20.859375 17.816406 -19.035156 17.703125 -17.078125 C 17.585938 -15.117188 17.394531 -13.128906 17.125 -11.109375 C 16.851562 -9.097656 16.421875 -7.257812 15.828125 -5.59375 C 15.234375 -3.9375 14.445312 -2.585938 13.46875 -1.546875 C 12.5 -0.515625 11.269531 0.03125 9.78125 0.09375 C 8.65625 0.144531 7.707031 -0.300781 6.9375 -1.25 C 6.164062 -2.195312 5.523438 -3.425781 5.015625 -4.9375 C 4.515625 -6.445312 4.144531 -8.132812 3.90625 -10 C 3.675781 -11.875 3.5 -13.6875 3.375 -15.4375 C 3.257812 -17.1875 3.203125 -18.800781 3.203125 -20.28125 C 3.203125 -21.757812 3.203125 -22.859375 3.203125 -23.578125 C 3.203125 -24.523438 3.203125 -25.875 3.203125 -27.625 C 3.203125 -29.375 3.257812 -31.253906 3.375 -33.265625 C 3.5 -35.285156 3.722656 -37.332031 4.046875 -39.40625 C 4.367188 -41.476562 4.84375 -43.375 5.46875 -45.09375 C 6.09375 -46.820312 6.90625 -48.21875 7.90625 -49.28125 C 8.914062 -50.351562 10.195312 -50.890625 11.75 -50.890625 C 13.34375 -50.890625 14.554688 -50.085938 15.390625 -48.484375 C 16.222656 -46.878906 16.84375 -45.007812 17.25 -42.875 C 17.664062 -40.738281 17.90625 -38.617188 17.96875 -36.515625 C 18.03125 -34.410156 18.0625 -32.851562 18.0625 -31.84375 Z M 18.0625 -31.84375" transform="translate(294.343 283.908)"/></g></g><g><g><path d="M 40.203125 -45.90625 C 40.203125 -44.957031 40.023438 -43.960938 39.671875 -42.921875 C 39.316406 -41.878906 38.875 -40.820312 38.34375 -39.75 C 37.8125 -38.6875 37.25 -37.664062 36.65625 -36.6875 C 36.0625 -35.71875 35.523438 -34.816406 35.046875 -33.984375 C 33.859375 -32.085938 32.6875 -30.160156 31.53125 -28.203125 C 30.375 -26.242188 29.203125 -24.316406 28.015625 -22.421875 C 28.554688 -21.585938 29.300781 -20.425781 30.25 -18.9375 C 31.195312 -17.457031 32.128906 -15.898438 33.046875 -14.265625 C 33.960938 -12.640625 34.75 -11.023438 35.40625 -9.421875 C 36.0625 -7.828125 36.390625 -6.46875 36.390625 -5.34375 C 36.390625 -4.269531 35.972656 -3.226562 35.140625 -2.21875 C 34.304688 -1.21875 33.296875 -0.71875 32.109375 -0.71875 C 30.867188 -0.71875 29.609375 -1.160156 28.328125 -2.046875 C 27.054688 -2.929688 25.8125 -3.984375 24.59375 -5.203125 C 23.382812 -6.421875 22.273438 -7.695312 21.265625 -9.03125 C 20.253906 -10.363281 19.394531 -11.472656 18.6875 -12.359375 C 17.914062 -11.535156 16.921875 -10.410156 15.703125 -8.984375 C 14.484375 -7.554688 13.175781 -6.160156 11.78125 -4.796875 C 10.394531 -3.429688 9.019531 -2.257812 7.65625 -1.28125 C 6.289062 -0.3125 5.070312 0.171875 4 0.171875 C 2.757812 0.171875 1.78125 -0.269531 1.0625 -1.15625 C 0.351562 -2.039062 0 -3.078125 0 -4.265625 C 0 -5.453125 0.398438 -6.960938 1.203125 -8.796875 C 2.003906 -10.640625 2.953125 -12.539062 4.046875 -14.5 C 5.140625 -16.457031 6.234375 -18.328125 7.328125 -20.109375 C 8.429688 -21.890625 9.28125 -23.28125 9.875 -24.28125 C 9.28125 -25.351562 8.535156 -26.765625 7.640625 -28.515625 C 6.753906 -30.265625 5.910156 -32.101562 5.109375 -34.03125 C 4.316406 -35.957031 3.632812 -37.851562 3.0625 -39.71875 C 2.5 -41.582031 2.21875 -43.140625 2.21875 -44.390625 C 2.21875 -45.753906 2.632812 -46.847656 3.46875 -47.671875 C 4.300781 -48.503906 5.398438 -48.921875 6.765625 -48.921875 C 8.242188 -48.921875 9.632812 -48.34375 10.9375 -47.1875 C 12.25 -46.03125 13.46875 -44.632812 14.59375 -43 C 15.71875 -41.375 16.707031 -39.6875 17.5625 -37.9375 C 18.425781 -36.1875 19.125 -34.75 19.65625 -33.625 C 20.375 -34.695312 21.367188 -36.148438 22.640625 -37.984375 C 23.910156 -39.828125 25.347656 -41.632812 26.953125 -43.40625 C 28.554688 -45.1875 30.21875 -46.726562 31.9375 -48.03125 C 33.65625 -49.34375 35.285156 -50 36.828125 -50 C 37.835938 -50 38.648438 -49.566406 39.265625 -48.703125 C 39.890625 -47.847656 40.203125 -46.914062 40.203125 -45.90625 Z M 40.203125 -45.90625" transform="translate(316.05 283.908)"/></g></g></g><g><g><g><path d="M 7.375 -17.015625 C 8.28125 -17.015625 9.160156 -16.878906 10.015625 -16.609375 C 10.878906 -16.347656 11.523438 -16.085938 11.953125 -15.828125 L 12.5625 -15.4375 L 11.015625 -12.390625 C 10.890625 -12.472656 10.71875 -12.578125 10.5 -12.703125 C 10.289062 -12.835938 9.890625 -13.007812 9.296875 -13.21875 C 8.703125 -13.4375 8.148438 -13.546875 7.640625 -13.546875 C 7.003906 -13.546875 6.515625 -13.410156 6.171875 -13.140625 C 5.828125 -12.867188 5.65625 -12.503906 5.65625 -12.046875 C 5.65625 -11.816406 5.734375 -11.601562 5.890625 -11.40625 C 6.054688 -11.21875 6.332031 -11.007812 6.71875 -10.78125 C 7.113281 -10.5625 7.457031 -10.382812 7.75 -10.25 C 8.050781 -10.113281 8.507812 -9.910156 9.125 -9.640625 C 10.207031 -9.179688 11.128906 -8.554688 11.890625 -7.765625 C 12.660156 -6.972656 13.046875 -6.078125 13.046875 -5.078125 C 13.046875 -4.117188 12.875 -3.28125 12.53125 -2.5625 C 12.1875 -1.851562 11.710938 -1.296875 11.109375 -0.890625 C 10.503906 -0.484375 9.835938 -0.1875 9.109375 0 C 8.378906 0.195312 7.59375 0.296875 6.75 0.296875 C 6.019531 0.296875 5.300781 0.222656 4.59375 0.078125 C 3.894531 -0.0664062 3.304688 -0.25 2.828125 -0.46875 C 2.359375 -0.695312 1.9375 -0.914062 1.5625 -1.125 C 1.1875 -1.34375 0.910156 -1.53125 0.734375 -1.6875 L 0.46875 -1.90625 L 2.375 -5.109375 C 2.53125 -4.972656 2.75 -4.796875 3.03125 -4.578125 C 3.320312 -4.367188 3.828125 -4.085938 4.546875 -3.734375 C 5.265625 -3.390625 5.898438 -3.21875 6.453125 -3.21875 C 8.066406 -3.21875 8.875 -3.765625 8.875 -4.859375 C 8.875 -5.085938 8.816406 -5.300781 8.703125 -5.5 C 8.585938 -5.695312 8.382812 -5.890625 8.09375 -6.078125 C 7.800781 -6.273438 7.539062 -6.429688 7.3125 -6.546875 C 7.09375 -6.660156 6.726562 -6.835938 6.21875 -7.078125 C 5.71875 -7.316406 5.347656 -7.492188 5.109375 -7.609375 C 4.085938 -8.109375 3.300781 -8.734375 2.75 -9.484375 C 2.195312 -10.234375 1.921875 -11.039062 1.921875 -11.90625 C 1.921875 -13.40625 2.472656 -14.628906 3.578125 -15.578125 C 4.691406 -16.535156 5.957031 -17.015625 7.375 -17.015625 Z M 7.375 -17.015625" transform="translate(82.394 340.912)"/></g></g></g><g><g><g><path d="M 0.15625 -13.359375 L 0.15625 -16.703125 L 11.90625 -16.703125 L 11.90625 -13.359375 L 7.9375 -13.359375 L 7.9375 0 L 4.125 0 L 4.125 -13.359375 Z M 0.15625 -13.359375" transform="translate(99.682 340.912)"/></g></g></g><g><g><g><path d="M 9.703125 -16.703125 L 16.4375 0 L 12.359375 0 L 11.125 -3.34375 L 4.765625 -3.34375 L 3.53125 0 L -0.5625 0 L 6.171875 -16.703125 Z M 9.828125 -6.6875 L 7.953125 -11.546875 L 7.921875 -11.546875 L 6.0625 -6.6875 Z M 9.828125 -6.6875" transform="translate(115.432 340.912)"/></g></g></g><g><g><g><path d="M -0.609375 -16.703125 L 3.96875 -16.703125 L 7.453125 -11.359375 L 10.9375 -16.703125 L 15.515625 -16.703125 L 9.359375 -7.5 L 9.359375 0 L 5.546875 0 L 5.546875 -7.5 Z M -0.609375 -16.703125" transform="translate(134.988 340.912)"/></g></g></g><g><g><g><path d="M 5.015625 -16.703125 L 5.015625 0 L 1.21875 0 L 1.21875 -16.703125 Z M 5.015625 -16.703125" transform="translate(162.784 340.912)"/></g></g></g><g><g><g><path d="M 5.015625 -10.375 L 5.015625 0 L 1.21875 0 L 1.21875 -16.703125 L 5.015625 -16.703125 L 11.65625 -6.34375 L 11.703125 -6.34375 L 11.703125 -16.703125 L 15.515625 -16.703125 L 15.515625 0 L 11.703125 0 L 5.0625 -10.375 Z M 5.015625 -10.375" transform="translate(172.703 340.912)"/></g></g></g><g><g><g><path d="M 0.15625 -13.359375 L 0.15625 -16.703125 L 11.90625 -16.703125 L 11.90625 -13.359375 L 7.9375 -13.359375 L 7.9375 0 L 4.125 0 L 4.125 -13.359375 Z M 0.15625 -13.359375" transform="translate(202.32 340.912)"/></g></g></g><g><g><g><path d="M 0.46875 -8.359375 C 0.46875 -10.773438 1.289062 -12.820312 2.9375 -14.5 C 4.582031 -16.175781 6.566406 -17.015625 8.890625 -17.015625 C 11.222656 -17.015625 13.207031 -16.179688 14.84375 -14.515625 C 16.476562 -12.847656 17.296875 -10.796875 17.296875 -8.359375 C 17.296875 -5.921875 16.488281 -3.867188 14.875 -2.203125 C 13.269531 -0.535156 11.273438 0.296875 8.890625 0.296875 C 6.441406 0.296875 4.425781 -0.523438 2.84375 -2.171875 C 1.257812 -3.828125 0.46875 -5.890625 0.46875 -8.359375 Z M 4.578125 -8.359375 C 4.578125 -7.484375 4.710938 -6.679688 4.984375 -5.953125 C 5.253906 -5.234375 5.722656 -4.625 6.390625 -4.125 C 7.066406 -3.625 7.898438 -3.375 8.890625 -3.375 C 10.304688 -3.375 11.375 -3.859375 12.09375 -4.828125 C 12.820312 -5.804688 13.1875 -6.984375 13.1875 -8.359375 C 13.1875 -9.722656 12.816406 -10.894531 12.078125 -11.875 C 11.335938 -12.851562 10.273438 -13.34375 8.890625 -13.34375 C 7.515625 -13.34375 6.453125 -12.851562 5.703125 -11.875 C 4.953125 -10.894531 4.578125 -9.722656 4.578125 -8.359375 Z M 4.578125 -8.359375" transform="translate(218.07 340.912)"/></g></g></g><g><g><g><path d="M 14.046875 -16.703125 L 14.046875 -5.9375 C 14.046875 -3.882812 13.492188 -2.332031 12.390625 -1.28125 C 11.285156 -0.226562 9.664062 0.296875 7.53125 0.296875 C 5.394531 0.296875 3.773438 -0.226562 2.671875 -1.28125 C 1.566406 -2.332031 1.015625 -3.882812 1.015625 -5.9375 L 1.015625 -16.703125 L 4.8125 -16.703125 L 4.8125 -7.046875 C 4.8125 -5.691406 5.023438 -4.75 5.453125 -4.21875 C 5.878906 -3.695312 6.570312 -3.4375 7.53125 -3.4375 C 8.488281 -3.4375 9.179688 -3.695312 9.609375 -4.21875 C 10.035156 -4.75 10.25 -5.691406 10.25 -7.046875 L 10.25 -16.703125 Z M 14.046875 -16.703125" transform="translate(239.51 340.912)"/></g></g></g><g><g><g><path d="M 10.109375 -3.4375 C 10.679688 -3.4375 11.238281 -3.523438 11.78125 -3.703125 C 12.332031 -3.878906 12.738281 -4.050781 13 -4.21875 L 13.390625 -4.46875 L 15 -1.234375 C 14.945312 -1.191406 14.875 -1.132812 14.78125 -1.0625 C 14.6875 -1 14.46875 -0.875 14.125 -0.6875 C 13.78125 -0.507812 13.410156 -0.351562 13.015625 -0.21875 C 12.628906 -0.0820312 12.117188 0.0351562 11.484375 0.140625 C 10.847656 0.242188 10.191406 0.296875 9.515625 0.296875 C 7.960938 0.296875 6.488281 -0.0820312 5.09375 -0.84375 C 3.707031 -1.601562 2.585938 -2.648438 1.734375 -3.984375 C 0.890625 -5.328125 0.46875 -6.773438 0.46875 -8.328125 C 0.46875 -9.492188 0.71875 -10.617188 1.21875 -11.703125 C 1.71875 -12.785156 2.378906 -13.710938 3.203125 -14.484375 C 4.035156 -15.253906 5.003906 -15.867188 6.109375 -16.328125 C 7.222656 -16.785156 8.359375 -17.015625 9.515625 -17.015625 C 10.597656 -17.015625 11.59375 -16.882812 12.5 -16.625 C 13.414062 -16.363281 14.0625 -16.109375 14.4375 -15.859375 L 15 -15.46875 L 13.390625 -12.234375 C 13.296875 -12.316406 13.148438 -12.414062 12.953125 -12.53125 C 12.765625 -12.644531 12.382812 -12.796875 11.8125 -12.984375 C 11.25 -13.171875 10.679688 -13.265625 10.109375 -13.265625 C 9.191406 -13.265625 8.367188 -13.113281 7.640625 -12.8125 C 6.910156 -12.519531 6.332031 -12.128906 5.90625 -11.640625 C 5.476562 -11.160156 5.148438 -10.640625 4.921875 -10.078125 C 4.703125 -9.515625 4.59375 -8.941406 4.59375 -8.359375 C 4.59375 -7.085938 5.066406 -5.945312 6.015625 -4.9375 C 6.972656 -3.9375 8.335938 -3.4375 10.109375 -3.4375 Z M 10.109375 -3.4375" transform="translate(258.255 340.912)"/></g></g></g><g><g><g><path d="M 5.015625 -6.703125 L 5.015625 0 L 1.21875 0 L 1.21875 -16.703125 L 5.015625 -16.703125 L 5.015625 -10.046875 L 10.40625 -10.046875 L 10.40625 -16.703125 L 14.21875 -16.703125 L 14.21875 0 L 10.40625 0 L 10.40625 -6.703125 Z M 5.015625 -6.703125" transform="translate(277.184 340.912)"/></g></g></g></svg>