<?xml version="1.0" encoding="UTF-8"?><svg xmlns="http://www.w3.org/2000/svg" xmlns:xlink="http://www.w3.org/1999/xlink" width="375pt" zoomAndPan="magnify" viewBox="0 0 375 374.999991" height="374.999991pt" preserveAspectRatio="xMidYMid meet" version="1.2"><defs><g/><clipPath xml:id="clip1" id="clip1"><path d="M 261 66.542969 L 360.894531 66.542969 L 360.894531 166.292969 L 261 166.292969 Z M 261 66.542969 "/></clipPath><clipPath xml:id="clip2" id="clip2"><path d="M 254.394531 102 L 312 102 L 312 131 L 254.394531 131 Z M 254.394531 102 "/></clipPath><clipPath xml:id="clip3" id="clip3"><path d="M 23.984375 74 L 278.984375 74 L 278.984375 179 L 23.984375 179 Z M 23.984375 74 "/></clipPath><clipPath xml:id="clip4" id="clip4"><path d="M 29 60.859375 L 274 60.859375 L 274 155 L 29 155 Z M 29 60.859375 "/></clipPath><clipPath xml:id="clip5" id="clip5"><path d="M 157 146 L 269 146 L 269 297.109375 L 157 297.109375 Z M 157 146 "/></clipPath></defs><g xml:id="surface1" id="surface1"><rect x="0" width="375" y="0" height="374.999991" style="fill:rgb(100%,100%,100%);fill-opacity:1;stroke:none;"/><rect x="0" width="375" y="0" height="374.999991" style="fill:rgb(100%,100%,100%);fill-opacity:1;stroke:none;"/><rect x="0" width="375" y="0" height="374.999991" style="fill:rgb(89.019775%,62.348938%,96.469116%);fill-opacity:1;stroke:none;"/><path style=" stroke:none;fill-rule:nonzero;fill:rgb(8.628845%,43.919373%,96.859741%);fill-opacity:1;" d="M 311.101562 67.925781 C 337.824219 67.925781 359.484375 89.636719 359.484375 116.417969 C 359.484375 143.195312 337.824219 164.90625 311.101562 164.90625 C 286.726562 164.90625 266.5625 146.84375 263.207031 123.34375 C 262.886719 121.082031 262.71875 118.769531 262.71875 116.417969 C 262.71875 114.0625 262.886719 111.75 263.207031 109.488281 C 266.5625 85.988281 286.726562 67.925781 311.101562 67.925781 Z M 311.101562 67.925781 "/><path style=" stroke:none;fill-rule:nonzero;fill:rgb(99.609375%,99.21875%,93.728638%);fill-opacity:1;" d="M 309.6875 114.839844 L 297.246094 103.757812 C 296.375 103.007812 295.066406 103.109375 294.324219 103.980469 C 293.578125 104.851562 293.675781 106.164062 294.546875 106.910156 L 302.832031 114.339844 L 257.191406 114.339844 C 256.046875 114.339844 255.117188 115.269531 255.117188 116.417969 C 255.117188 117.5625 256.046875 118.496094 257.191406 118.496094 L 302.832031 118.496094 L 294.546875 125.921875 C 293.675781 126.667969 293.574219 127.980469 294.320312 128.851562 C 294.730469 129.332031 295.3125 129.574219 295.898438 129.574219 C 296.375 129.574219 296.855469 129.414062 297.246094 129.074219 L 309.6875 117.992188 C 310.144531 117.597656 310.410156 117.023438 310.410156 116.417969 C 310.410156 115.8125 310.144531 115.234375 309.6875 114.839844 Z M 309.6875 114.839844 "/><g clip-rule="nonzero" clip-path="url(#clip1)"><path style=" stroke:none;fill-rule:nonzero;fill:rgb(12.159729%,12.939453%,16.859436%);fill-opacity:1;" d="M 311.101562 166.292969 C 286.496094 166.292969 265.320312 147.910156 261.839844 123.539062 C 261.730469 122.78125 262.257812 122.078125 263.015625 121.972656 C 263.765625 121.871094 264.46875 122.390625 264.578125 123.148438 C 267.863281 146.164062 287.863281 163.519531 311.101562 163.519531 C 337.019531 163.519531 358.101562 142.390625 358.101562 116.417969 C 358.101562 90.441406 337.019531 69.3125 311.101562 69.3125 C 287.863281 69.3125 267.863281 86.667969 264.578125 109.6875 C 264.46875 110.445312 263.761719 110.96875 263.015625 110.863281 C 262.257812 110.753906 261.730469 110.050781 261.839844 109.292969 C 265.320312 84.921875 286.496094 66.542969 311.101562 66.542969 C 338.542969 66.542969 360.867188 88.914062 360.867188 116.417969 C 360.867188 143.917969 338.542969 166.292969 311.101562 166.292969 Z M 311.101562 166.292969 "/></g><path style=" stroke:none;fill-rule:nonzero;fill:rgb(12.159729%,12.939453%,16.859436%);fill-opacity:1;" d="M 332.527344 80.710938 C 332.410156 80.710938 332.289062 80.679688 332.175781 80.613281 C 331.296875 80.09375 330.382812 79.597656 329.457031 79.136719 C 329.113281 78.96875 328.972656 78.550781 329.144531 78.207031 C 329.3125 77.867188 329.730469 77.726562 330.070312 77.894531 C 331.023438 78.371094 331.972656 78.882812 332.878906 79.421875 C 333.207031 79.617188 333.316406 80.039062 333.121094 80.371094 C 332.992188 80.585938 332.761719 80.710938 332.527344 80.710938 Z M 336.675781 83.511719 C 336.527344 83.511719 336.382812 83.464844 336.257812 83.367188 C 335.808594 83.027344 335.355469 82.695312 334.894531 82.371094 C 334.582031 82.148438 334.507812 81.71875 334.726562 81.40625 C 334.945312 81.09375 335.378906 81.015625 335.691406 81.234375 C 336.164062 81.570312 336.636719 81.914062 337.09375 82.265625 C 337.398438 82.5 337.457031 82.933594 337.222656 83.238281 C 337.089844 83.417969 336.882812 83.511719 336.675781 83.511719 Z M 311.101562 159.363281 C 290.015625 159.363281 271.789062 143.625 268.710938 122.75 C 268.65625 122.375 268.917969 122.019531 269.292969 121.964844 C 269.667969 121.90625 270.023438 122.171875 270.078125 122.550781 C 273.058594 142.746094 290.695312 157.980469 311.101562 157.980469 C 333.96875 157.980469 352.570312 139.332031 352.570312 116.417969 C 352.570312 104.722656 347.617188 93.507812 338.976562 85.640625 C 338.691406 85.382812 338.671875 84.945312 338.929688 84.664062 C 339.183594 84.382812 339.625 84.359375 339.902344 84.617188 C 348.832031 92.742188 353.953125 104.332031 353.953125 116.417969 C 353.953125 140.097656 334.730469 159.363281 311.101562 159.363281 Z M 269.394531 110.875 C 269.363281 110.875 269.328125 110.871094 269.292969 110.867188 C 268.917969 110.8125 268.65625 110.457031 268.710938 110.082031 C 271.789062 89.207031 290.015625 73.46875 311.101562 73.46875 C 316.167969 73.46875 321.132812 74.347656 325.855469 76.082031 C 326.210938 76.214844 326.398438 76.613281 326.265625 76.972656 C 326.132812 77.332031 325.738281 77.515625 325.378906 77.382812 C 320.808594 75.703125 316.007812 74.855469 311.101562 74.855469 C 290.695312 74.855469 273.058594 90.085938 270.078125 110.28125 C 270.027344 110.625 269.734375 110.875 269.394531 110.875 Z M 269.394531 110.875 "/><g clip-rule="nonzero" clip-path="url(#clip2)"><path style=" stroke:none;fill-rule:nonzero;fill:rgb(12.159729%,12.939453%,16.859436%);fill-opacity:1;" d="M 295.898438 130.269531 C 295.089844 130.269531 294.324219 129.917969 293.796875 129.300781 C 293.316406 128.742188 293.082031 128.023438 293.136719 127.289062 C 293.195312 126.550781 293.535156 125.878906 294.09375 125.394531 L 301.023438 119.1875 L 257.191406 119.1875 C 255.664062 119.1875 254.425781 117.945312 254.425781 116.417969 C 254.425781 114.886719 255.664062 113.644531 257.191406 113.644531 L 301.023438 113.644531 L 294.085938 107.425781 C 292.9375 106.445312 292.804688 104.691406 293.796875 103.53125 C 294.789062 102.375 296.535156 102.238281 297.695312 103.230469 L 310.140625 114.320312 C 310.75 114.84375 311.101562 115.609375 311.101562 116.417969 C 311.101562 117.230469 310.75 117.996094 310.136719 118.519531 L 297.707031 129.59375 C 297.195312 130.03125 296.554688 130.269531 295.898438 130.269531 Z M 257.191406 115.03125 C 256.429688 115.03125 255.808594 115.652344 255.808594 116.417969 C 255.808594 117.179688 256.429688 117.800781 257.191406 117.800781 L 302.832031 117.800781 C 303.121094 117.800781 303.375 117.980469 303.476562 118.246094 C 303.582031 118.515625 303.507812 118.820312 303.292969 119.011719 L 295.003906 126.4375 C 294.417969 126.945312 294.347656 127.820312 294.84375 128.398438 C 295.324219 128.960938 296.234375 129.03125 296.796875 128.546875 L 309.226562 117.472656 C 309.546875 117.203125 309.71875 116.820312 309.71875 116.417969 C 309.71875 116.011719 309.542969 115.628906 309.238281 115.363281 C 309.234375 115.363281 309.230469 115.359375 309.226562 115.359375 L 296.789062 104.273438 C 296.21875 103.785156 295.34375 103.851562 294.847656 104.433594 C 294.351562 105.011719 294.417969 105.886719 294.996094 106.382812 L 303.292969 113.820312 C 303.507812 114.011719 303.582031 114.3125 303.480469 114.585938 C 303.375 114.851562 303.121094 115.03125 302.832031 115.03125 Z M 257.191406 115.03125 "/></g><g clip-rule="nonzero" clip-path="url(#clip3)"><path style=" stroke:none;fill-rule:nonzero;fill:rgb(11.759949%,11.759949%,11.759949%);fill-opacity:1;" d="M 261.472656 178.949219 L 41.496094 178.949219 C 31.871094 178.949219 23.996094 171.082031 23.996094 161.46875 L 23.996094 91.550781 C 23.996094 81.9375 31.871094 74.074219 41.496094 74.074219 L 261.472656 74.074219 C 271.101562 74.074219 278.976562 81.9375 278.976562 91.550781 L 278.976562 161.46875 C 278.976562 171.082031 271.101562 178.949219 261.472656 178.949219 "/></g><path style=" stroke:none;fill-rule:nonzero;fill:rgb(5.488586%,28.239441%,61.959839%);fill-opacity:1;" d="M 261.542969 173.332031 L 41.433594 173.332031 C 34.9375 173.332031 29.621094 168.015625 29.621094 161.53125 L 29.621094 91.488281 C 29.621094 85 34.9375 79.691406 41.433594 79.691406 L 261.542969 79.691406 C 268.035156 79.691406 273.351562 85 273.351562 91.488281 L 273.351562 161.53125 C 273.351562 168.015625 268.035156 173.332031 261.542969 173.332031 "/><g clip-rule="nonzero" clip-path="url(#clip4)"><path style=" stroke:none;fill-rule:nonzero;fill:rgb(8.628845%,43.919373%,96.859741%);fill-opacity:1;" d="M 261.542969 154.601562 L 41.433594 154.601562 C 34.9375 154.601562 29.621094 149.289062 29.621094 142.804688 L 29.621094 72.761719 C 29.621094 66.269531 34.9375 60.960938 41.433594 60.960938 L 261.542969 60.960938 C 268.035156 60.960938 273.351562 66.269531 273.351562 72.761719 L 273.351562 142.804688 C 273.351562 149.289062 268.035156 154.601562 261.542969 154.601562 "/></g><g clip-rule="nonzero" clip-path="url(#clip5)"><path style=" stroke:none;fill-rule:nonzero;fill:rgb(11.759949%,11.759949%,11.759949%);fill-opacity:1;" d="M 268.53125 228.925781 C 268.53125 228.925781 268.199219 222.871094 268.082031 220.054688 C 267.820312 213.699219 263.636719 208.734375 257.894531 207.980469 C 257.515625 207.929688 257.128906 207.902344 256.757812 207.902344 C 252.726562 207.902344 250.539062 210.335938 249.316406 213.347656 C 249.191406 212.179688 249.042969 211.015625 248.855469 209.863281 C 247.652344 202.632812 243.644531 197.957031 238.628906 197.957031 C 236.960938 197.957031 233.359375 198.578125 230.734375 203.390625 C 230.644531 201.910156 230.515625 200.4375 230.3125 199.011719 C 229.980469 196.695312 228.6875 191.09375 223.851562 189.164062 C 222.578125 188.65625 221.3125 188.402344 220.078125 188.402344 C 217.339844 188.402344 214.917969 189.648438 213.183594 191.835938 L 213.183594 156.085938 L 213 155.503906 C 211.316406 150.066406 207.035156 146.691406 201.828125 146.691406 C 195.917969 146.691406 190.785156 151.050781 190.394531 156.410156 C 189.199219 172.769531 189.601562 189.589844 189.992188 205.867188 C 190.148438 212.558594 190.316406 219.4375 190.367188 226.207031 C 190.308594 226.136719 190.253906 226.0625 190.195312 225.984375 C 182.550781 215.921875 175.050781 206.890625 167.28125 206.890625 C 166.441406 206.890625 165.613281 206.996094 164.816406 207.21875 C 160.429688 208.433594 158.558594 211.148438 157.757812 213.21875 C 155.0625 220.1875 160.460938 229.671875 165.730469 238.011719 C 166.234375 238.820312 166.675781 239.507812 166.996094 240.054688 C 168.574219 242.710938 170.183594 245.5 171.835938 248.351562 C 179.296875 261.253906 187.757812 275.875 197.203125 286.171875 C 203.484375 293.023438 214.859375 297.105469 227.636719 297.109375 C 227.636719 297.109375 227.640625 297.109375 227.640625 297.109375 C 236.132812 297.109375 244.070312 295.324219 249.949219 292.011719 C 262.167969 285.132812 266.710938 273.613281 268.042969 264.75 C 269.636719 254.160156 268.582031 229.992188 268.53125 228.925781 "/></g><path style=" stroke:none;fill-rule:nonzero;fill:rgb(11.759949%,11.759949%,11.759949%);fill-opacity:1;" d="M 223.171875 291.539062 C 210.398438 291.539062 199.023438 287.449219 192.742188 280.601562 C 183.296875 270.300781 174.835938 255.679688 167.371094 242.777344 C 165.71875 239.925781 164.109375 237.140625 162.535156 234.484375 C 162.210938 233.941406 161.773438 233.246094 161.265625 232.441406 C 155.996094 224.097656 150.597656 214.617188 153.296875 207.648438 C 154.09375 205.582031 155.96875 202.863281 160.355469 201.648438 C 161.144531 201.429688 161.976562 201.316406 162.820312 201.316406 C 170.589844 201.316406 178.089844 210.347656 185.734375 220.414062 C 185.792969 220.488281 185.847656 220.566406 185.90625 220.640625 C 185.855469 213.871094 185.6875 206.984375 185.53125 200.292969 C 185.140625 184.023438 184.738281 167.199219 185.929688 150.835938 C 186.324219 145.476562 191.453125 141.121094 197.367188 141.121094 C 202.574219 141.121094 206.855469 144.496094 208.539062 149.929688 L 208.722656 150.515625 L 208.722656 186.261719 C 210.457031 184.078125 212.878906 182.828125 215.617188 182.828125 C 216.851562 182.828125 218.117188 183.082031 219.390625 183.59375 C 224.226562 185.527344 225.519531 191.125 225.851562 193.4375 C 226.054688 194.867188 226.183594 196.335938 226.273438 197.816406 C 228.898438 193.003906 232.5 192.386719 234.167969 192.386719 C 239.179688 192.386719 243.191406 197.058594 244.386719 204.292969 C 244.578125 205.445312 244.730469 206.609375 244.855469 207.773438 C 246.074219 204.761719 248.265625 202.332031 252.296875 202.332031 C 252.667969 202.332031 253.050781 202.355469 253.433594 202.40625 C 259.175781 203.164062 263.359375 208.128906 263.621094 214.484375 C 263.738281 217.296875 264.070312 223.355469 264.070312 223.355469 C 264.121094 224.421875 265.175781 248.589844 263.582031 259.179688 C 262.246094 268.042969 257.707031 279.558594 245.488281 286.4375 C 239.609375 289.75 231.671875 291.539062 223.179688 291.539062 C 223.179688 291.539062 223.171875 291.539062 223.171875 291.539062 "/><path style=" stroke:none;fill-rule:nonzero;fill:rgb(100%,100%,100%);fill-opacity:1;" d="M 260.023438 223.578125 C 260.023438 223.578125 259.683594 217.488281 259.566406 214.648438 C 259.414062 210.886719 257.195312 206.988281 252.90625 206.425781 C 247.4375 205.707031 247.511719 214.558594 247.144531 218.5 C 246.804688 222.109375 242.105469 221.871094 241.71875 218.5 C 241.210938 214.0625 241.117188 209.34375 240.390625 204.957031 C 238.785156 195.25 231.324219 192.65625 228.417969 203.433594 C 228.007812 204.957031 228.179688 206.765625 228.164062 208.34375 C 228.128906 211.894531 223.0625 211.753906 222.738281 208.34375 C 222.3125 203.785156 222.480469 198.527344 221.835938 194.011719 C 221.496094 191.644531 220.386719 188.355469 217.878906 187.351562 C 213.921875 185.773438 211.386719 188.375 210.4375 191.765625 C 210.183594 192.65625 210.125 193.667969 210.085938 194.722656 L 210.085938 200.667969 C 210.011719 204.15625 204.695312 204.15625 204.664062 200.667969 L 204.664062 151.128906 C 201.726562 141.652344 190.429688 144.882812 189.976562 151.128906 C 188.210938 175.351562 189.976562 200.296875 189.976562 224.597656 C 189.976562 226.804688 186.910156 228.359375 185.351562 226.507812 C 181.085938 221.453125 169.359375 203.359375 161.4375 205.550781 C 149.632812 208.820312 162.910156 227.164062 166.027344 232.417969 C 174.714844 247.089844 184.554688 265.675781 195.738281 277.863281 C 205.96875 289.023438 230.519531 290.210938 243.507812 282.90625 C 253.660156 277.191406 258.417969 266.253906 259.570312 258.578125 C 261.121094 248.253906 260.023438 223.578125 260.023438 223.578125 "/><path style=" stroke:none;fill-rule:nonzero;fill:rgb(5.488586%,28.239441%,61.959839%);fill-opacity:1;" d="M 97.820312 123.542969 L 97.820312 132.175781 L 72.558594 132.175781 L 72.558594 80.527344 L 81.644531 80.527344 L 81.644531 123.542969 L 97.820312 123.542969 "/><path style=" stroke:none;fill-rule:nonzero;fill:rgb(5.488586%,28.239441%,61.959839%);fill-opacity:1;" d="M 124.855469 115.578125 L 124.855469 97.132812 C 124.855469 91.519531 122.570312 88.425781 117.984375 88.425781 C 113.40625 88.425781 111.042969 91.519531 111.042969 97.132812 L 111.042969 115.578125 C 111.042969 121.183594 113.40625 124.28125 117.984375 124.28125 C 122.570312 124.28125 124.855469 121.183594 124.855469 115.578125 Z M 101.664062 115.578125 L 101.664062 97.132812 C 101.664062 86.207031 107.71875 79.644531 117.984375 79.644531 C 128.179688 79.644531 134.242188 86.207031 134.242188 97.132812 L 134.242188 115.578125 C 134.242188 126.496094 128.179688 133.0625 117.984375 133.0625 C 107.71875 133.0625 101.664062 126.496094 101.664062 115.578125 "/><path style=" stroke:none;fill-rule:nonzero;fill:rgb(5.488586%,28.239441%,61.959839%);fill-opacity:1;" d="M 141.03125 116.609375 L 141.03125 96.09375 C 141.03125 85.398438 146.945312 79.644531 156.84375 79.644531 C 166.445312 79.644531 171.910156 85.398438 172.277344 95.875 L 163.195312 95.875 C 162.972656 90.636719 160.976562 88.425781 156.84375 88.425781 C 152.703125 88.425781 150.414062 90.710938 150.414062 96.09375 L 150.414062 116.609375 C 150.414062 121.992188 152.777344 124.28125 156.988281 124.28125 C 161.347656 124.28125 163.710938 121.992188 163.710938 116.757812 L 163.710938 111.738281 L 156.546875 111.738281 L 156.546875 103.699219 L 172.574219 103.699219 L 172.574219 116.757812 C 172.351562 127.234375 166.589844 133.0625 156.84375 133.0625 C 147.015625 133.0625 141.03125 127.234375 141.03125 116.609375 "/><path style=" stroke:none;fill-rule:nonzero;fill:rgb(5.488586%,28.239441%,61.959839%);fill-opacity:1;" d="M 188.898438 80.527344 L 188.898438 132.175781 L 179.8125 132.175781 L 179.8125 80.527344 L 188.898438 80.527344 "/><path style=" stroke:none;fill-rule:nonzero;fill:rgb(5.488586%,28.239441%,61.959839%);fill-opacity:1;" d="M 230.414062 80.527344 L 230.414062 132.175781 L 221.402344 132.175781 L 211.425781 109.746094 C 209.875 105.691406 208.027344 100.964844 206.625 97.132812 L 206.40625 97.351562 C 207.070312 103.179688 207.511719 111.960938 207.511719 117.347656 L 207.511719 132.175781 L 198.574219 132.175781 L 198.574219 80.527344 L 207.585938 80.527344 L 218.371094 104.804688 C 219.703125 108.125 221.253906 112.179688 222.507812 115.355469 L 222.730469 115.132812 C 221.988281 109.304688 221.476562 100.964844 221.476562 96.246094 L 221.476562 80.527344 L 230.414062 80.527344 "/><path style=" stroke:none;fill-rule:nonzero;fill:rgb(100%,100%,100%);fill-opacity:1;" d="M 97.820312 125.683594 L 97.820312 134.316406 L 72.558594 134.316406 L 72.558594 82.664062 L 81.644531 82.664062 L 81.644531 125.683594 L 97.820312 125.683594 "/><path style=" stroke:none;fill-rule:nonzero;fill:rgb(100%,100%,100%);fill-opacity:1;" d="M 124.855469 117.714844 L 124.855469 99.269531 C 124.855469 93.660156 122.570312 90.566406 117.984375 90.566406 C 113.40625 90.566406 111.042969 93.660156 111.042969 99.269531 L 111.042969 117.714844 C 111.042969 123.320312 113.40625 126.421875 117.984375 126.421875 C 122.570312 126.421875 124.855469 123.320312 124.855469 117.714844 Z M 101.664062 117.714844 L 101.664062 99.269531 C 101.664062 88.347656 107.71875 81.785156 117.984375 81.785156 C 128.179688 81.785156 134.242188 88.347656 134.242188 99.269531 L 134.242188 117.714844 C 134.242188 128.636719 128.179688 135.203125 117.984375 135.203125 C 107.71875 135.203125 101.664062 128.636719 101.664062 117.714844 "/><path style=" stroke:none;fill-rule:nonzero;fill:rgb(100%,100%,100%);fill-opacity:1;" d="M 141.03125 118.746094 L 141.03125 98.234375 C 141.03125 87.535156 146.945312 81.785156 156.84375 81.785156 C 166.445312 81.785156 171.910156 87.535156 172.277344 98.011719 L 163.195312 98.011719 C 162.972656 92.773438 160.976562 90.566406 156.84375 90.566406 C 152.703125 90.566406 150.414062 92.847656 150.414062 98.234375 L 150.414062 118.746094 C 150.414062 124.132812 152.777344 126.421875 156.988281 126.421875 C 161.347656 126.421875 163.710938 124.132812 163.710938 118.898438 L 163.710938 113.878906 L 156.546875 113.878906 L 156.546875 105.835938 L 172.574219 105.835938 L 172.574219 118.898438 C 172.351562 129.375 166.589844 135.203125 156.84375 135.203125 C 147.015625 135.203125 141.03125 129.375 141.03125 118.746094 "/><path style=" stroke:none;fill-rule:nonzero;fill:rgb(100%,100%,100%);fill-opacity:1;" d="M 188.898438 82.664062 L 188.898438 134.316406 L 179.8125 134.316406 L 179.8125 82.664062 L 188.898438 82.664062 "/><path style=" stroke:none;fill-rule:nonzero;fill:rgb(100%,100%,100%);fill-opacity:1;" d="M 230.414062 82.664062 L 230.414062 134.316406 L 221.402344 134.316406 L 211.425781 111.882812 C 209.875 107.828125 208.027344 103.105469 206.625 99.269531 L 206.40625 99.492188 C 207.070312 105.316406 207.511719 114.097656 207.511719 119.488281 L 207.511719 134.316406 L 198.574219 134.316406 L 198.574219 82.664062 L 207.585938 82.664062 L 218.371094 106.941406 C 219.703125 110.265625 221.253906 114.320312 222.507812 117.496094 L 222.730469 117.273438 C 221.988281 111.441406 221.476562 103.105469 221.476562 98.382812 L 221.476562 82.664062 L 230.414062 82.664062 "/><g style="fill:rgb(0%,0%,0%);fill-opacity:1;"><g transform="translate(94.261718, 359.743923)"><path style="stroke:none;" d="M 11.515625 -19.609375 C 11.515625 -18.921875 11.28125 -18.410156 10.8125 -18.078125 C 10.351562 -17.742188 9.835938 -17.425781 9.265625 -17.125 C 8.703125 -16.832031 8.1875 -16.484375 7.71875 -16.078125 C 7.257812 -15.671875 7.03125 -15.066406 7.03125 -14.265625 C 7.03125 -13.835938 7.128906 -13.46875 7.328125 -13.15625 C 7.523438 -12.84375 7.769531 -12.5625 8.0625 -12.3125 C 8.363281 -12.070312 8.691406 -11.816406 9.046875 -11.546875 C 9.410156 -11.285156 9.738281 -10.988281 10.03125 -10.65625 C 10.332031 -10.320312 10.582031 -9.914062 10.78125 -9.4375 C 10.988281 -8.96875 11.09375 -8.390625 11.09375 -7.703125 C 11.09375 -6.703125 10.835938 -5.71875 10.328125 -4.75 C 9.816406 -3.789062 9.160156 -2.9375 8.359375 -2.1875 C 7.566406 -1.4375 6.671875 -0.835938 5.671875 -0.390625 C 4.671875 0.0546875 3.679688 0.28125 2.703125 0.28125 C 2.304688 0.28125 1.90625 0.25 1.5 0.1875 C 1.09375 0.132812 0.726562 0.0234375 0.40625 -0.140625 C 0.0820312 -0.304688 -0.179688 -0.535156 -0.390625 -0.828125 C -0.609375 -1.128906 -0.71875 -1.519531 -0.71875 -2 C -0.71875 -2.664062 -0.582031 -3.179688 -0.3125 -3.546875 C -0.0507812 -3.910156 0.273438 -4.203125 0.671875 -4.421875 C 1.078125 -4.640625 1.507812 -4.804688 1.96875 -4.921875 C 2.4375 -5.035156 2.875 -5.179688 3.28125 -5.359375 C 3.6875 -5.546875 4.019531 -5.78125 4.28125 -6.0625 C 4.539062 -6.34375 4.671875 -6.75 4.671875 -7.28125 C 4.671875 -7.78125 4.472656 -8.296875 4.078125 -8.828125 C 3.691406 -9.359375 3.257812 -9.925781 2.78125 -10.53125 C 2.300781 -11.144531 1.863281 -11.796875 1.46875 -12.484375 C 1.082031 -13.171875 0.890625 -13.929688 0.890625 -14.765625 C 0.890625 -15.785156 1.097656 -16.726562 1.515625 -17.59375 C 1.929688 -18.46875 2.488281 -19.222656 3.1875 -19.859375 C 3.894531 -20.503906 4.695312 -21.007812 5.59375 -21.375 C 6.5 -21.75 7.453125 -21.9375 8.453125 -21.9375 C 8.828125 -21.9375 9.195312 -21.898438 9.5625 -21.828125 C 9.9375 -21.753906 10.265625 -21.628906 10.546875 -21.453125 C 10.835938 -21.273438 11.070312 -21.035156 11.25 -20.734375 C 11.425781 -20.441406 11.515625 -20.066406 11.515625 -19.609375 Z M 11.515625 -19.609375 "/></g></g><g style="fill:rgb(0%,0%,0%);fill-opacity:1;"><g transform="translate(106.136427, 359.743923)"><path style="stroke:none;" d="M 9.375 1.28125 C 7.6875 1.28125 6.375 1.0625 5.4375 0.625 C 4.5 0.1875 3.796875 -0.429688 3.328125 -1.234375 C 2.867188 -2.046875 2.59375 -3.023438 2.5 -4.171875 C 2.40625 -5.316406 2.359375 -6.585938 2.359375 -7.984375 C 2.359375 -9.097656 2.390625 -10.21875 2.453125 -11.34375 C 2.523438 -12.476562 2.632812 -13.691406 2.78125 -14.984375 C 2.445312 -14.984375 2.1875 -14.972656 2 -14.953125 C 1.8125 -14.941406 1.65625 -14.9375 1.53125 -14.9375 C 0.769531 -14.9375 0.113281 -15.101562 -0.4375 -15.4375 C -1 -15.769531 -1.28125 -16.28125 -1.28125 -16.96875 C -1.28125 -17.394531 -1.117188 -17.773438 -0.796875 -18.109375 C -0.484375 -18.441406 -0.078125 -18.726562 0.421875 -18.96875 C 0.921875 -19.207031 1.460938 -19.394531 2.046875 -19.53125 C 2.628906 -19.675781 3.179688 -19.773438 3.703125 -19.828125 C 3.703125 -20.492188 3.75 -21.226562 3.84375 -22.03125 C 3.945312 -22.84375 4.125 -23.597656 4.375 -24.296875 C 4.625 -25.003906 4.960938 -25.59375 5.390625 -26.0625 C 5.816406 -26.539062 6.363281 -26.78125 7.03125 -26.78125 C 7.40625 -26.78125 7.738281 -26.664062 8.03125 -26.4375 C 8.332031 -26.21875 8.578125 -25.929688 8.765625 -25.578125 C 8.960938 -25.234375 9.109375 -24.847656 9.203125 -24.421875 C 9.296875 -23.992188 9.34375 -23.578125 9.34375 -23.171875 C 9.34375 -22.703125 9.304688 -22.21875 9.234375 -21.71875 C 9.160156 -21.21875 9.03125 -20.597656 8.84375 -19.859375 C 9.25 -19.910156 9.519531 -19.941406 9.65625 -19.953125 C 9.800781 -19.960938 9.9375 -19.96875 10.0625 -19.96875 C 10.457031 -19.96875 10.875 -19.929688 11.3125 -19.859375 C 11.757812 -19.785156 12.164062 -19.664062 12.53125 -19.5 C 12.90625 -19.332031 13.207031 -19.113281 13.4375 -18.84375 C 13.675781 -18.570312 13.796875 -18.242188 13.796875 -17.859375 C 13.796875 -17.429688 13.625 -17.050781 13.28125 -16.71875 C 12.9375 -16.382812 12.503906 -16.097656 11.984375 -15.859375 C 11.460938 -15.628906 10.90625 -15.445312 10.3125 -15.3125 C 9.71875 -15.1875 9.15625 -15.097656 8.625 -15.046875 C 8.488281 -14.078125 8.390625 -13.179688 8.328125 -12.359375 C 8.265625 -11.535156 8.195312 -10.707031 8.125 -9.875 C 8.082031 -9.46875 8.039062 -9.054688 8 -8.640625 C 7.96875 -8.234375 7.953125 -7.8125 7.953125 -7.375 C 7.953125 -7.070312 7.960938 -6.710938 7.984375 -6.296875 C 8.015625 -5.878906 8.097656 -5.476562 8.234375 -5.09375 C 8.378906 -4.71875 8.601562 -4.390625 8.90625 -4.109375 C 9.21875 -3.835938 9.648438 -3.703125 10.203125 -3.703125 C 10.535156 -3.703125 10.878906 -3.734375 11.234375 -3.796875 C 11.585938 -3.859375 11.941406 -3.890625 12.296875 -3.890625 C 12.921875 -3.890625 13.367188 -3.675781 13.640625 -3.25 C 13.910156 -2.820312 14.046875 -2.273438 14.046875 -1.609375 C 14.046875 -1.109375 13.894531 -0.671875 13.59375 -0.296875 C 13.300781 0.0664062 12.925781 0.359375 12.46875 0.578125 C 12.019531 0.804688 11.515625 0.976562 10.953125 1.09375 C 10.398438 1.21875 9.875 1.28125 9.375 1.28125 Z M 9.375 1.28125 "/></g></g><g style="fill:rgb(0%,0%,0%);fill-opacity:1;"><g transform="translate(119.829786, 359.743923)"><path style="stroke:none;" d="M 16.21875 -5.03125 C 16.21875 -4.601562 16.203125 -4.039062 16.171875 -3.34375 C 16.140625 -2.65625 16.039062 -1.984375 15.875 -1.328125 C 15.707031 -0.679688 15.441406 -0.125 15.078125 0.34375 C 14.722656 0.820312 14.226562 1.0625 13.59375 1.0625 C 12.707031 1.0625 12.023438 0.773438 11.546875 0.203125 C 11.078125 -0.359375 10.851562 -1.066406 10.875 -1.921875 C 10.113281 -1.253906 9.25 -0.726562 8.28125 -0.34375 C 7.320312 0.03125 6.34375 0.21875 5.34375 0.21875 C 4.65625 0.21875 4 0.0507812 3.375 -0.28125 C 2.757812 -0.613281 2.210938 -1.039062 1.734375 -1.5625 C 1.265625 -2.09375 0.882812 -2.679688 0.59375 -3.328125 C 0.3125 -3.984375 0.171875 -4.632812 0.171875 -5.28125 C 0.171875 -6.414062 0.519531 -7.410156 1.21875 -8.265625 C 1.925781 -9.128906 2.789062 -9.863281 3.8125 -10.46875 C 4.832031 -11.070312 5.921875 -11.550781 7.078125 -11.90625 C 8.234375 -12.257812 9.257812 -12.5 10.15625 -12.625 C 10.15625 -12.738281 10.160156 -12.84375 10.171875 -12.9375 C 10.191406 -13.039062 10.203125 -13.148438 10.203125 -13.265625 C 10.203125 -14.003906 10 -14.597656 9.59375 -15.046875 C 9.1875 -15.492188 8.613281 -15.71875 7.875 -15.71875 C 7.28125 -15.71875 6.769531 -15.617188 6.34375 -15.421875 C 5.914062 -15.222656 5.507812 -15 5.125 -14.75 C 4.75 -14.5 4.367188 -14.269531 3.984375 -14.0625 C 3.609375 -13.863281 3.179688 -13.765625 2.703125 -13.765625 C 2.179688 -13.765625 1.734375 -13.929688 1.359375 -14.265625 C 0.992188 -14.597656 0.8125 -15.023438 0.8125 -15.546875 C 0.8125 -16.328125 1.039062 -17.039062 1.5 -17.6875 C 1.96875 -18.332031 2.550781 -18.875 3.25 -19.3125 C 3.957031 -19.75 4.722656 -20.09375 5.546875 -20.34375 C 6.367188 -20.59375 7.125 -20.71875 7.8125 -20.71875 C 8.445312 -20.71875 9.085938 -20.640625 9.734375 -20.484375 C 10.378906 -20.328125 10.984375 -20.085938 11.546875 -19.765625 C 12.117188 -19.453125 12.632812 -19.0625 13.09375 -18.59375 C 13.5625 -18.132812 13.941406 -17.59375 14.234375 -16.96875 C 14.660156 -16.09375 15.003906 -15.160156 15.265625 -14.171875 C 15.523438 -13.179688 15.722656 -12.171875 15.859375 -11.140625 C 16.003906 -10.109375 16.097656 -9.070312 16.140625 -8.03125 C 16.191406 -7 16.21875 -6 16.21875 -5.03125 Z M 10.515625 -6.171875 L 10.40625 -8.59375 C 10.363281 -8.59375 10.316406 -8.597656 10.265625 -8.609375 C 10.222656 -8.617188 10.175781 -8.625 10.125 -8.625 C 9.8125 -8.625 9.421875 -8.546875 8.953125 -8.390625 C 8.492188 -8.242188 8.050781 -8.03125 7.625 -7.75 C 7.195312 -7.476562 6.832031 -7.175781 6.53125 -6.84375 C 6.238281 -6.507812 6.09375 -6.164062 6.09375 -5.8125 C 6.09375 -5.476562 6.210938 -5.25 6.453125 -5.125 C 6.691406 -5.007812 6.96875 -4.953125 7.28125 -4.953125 C 7.800781 -4.953125 8.359375 -5.085938 8.953125 -5.359375 C 9.546875 -5.640625 10.066406 -5.910156 10.515625 -6.171875 Z M 10.515625 -6.171875 "/></g></g><g style="fill:rgb(0%,0%,0%);fill-opacity:1;"><g transform="translate(137.124783, 359.743923)"><path style="stroke:none;" d="M 8.8125 10.375 C 8.238281 10.375 7.585938 10.285156 6.859375 10.109375 C 6.140625 9.929688 5.457031 9.675781 4.8125 9.34375 C 4.164062 9.007812 3.625 8.601562 3.1875 8.125 C 2.75 7.65625 2.53125 7.109375 2.53125 6.484375 C 2.53125 6.253906 2.585938 6.019531 2.703125 5.78125 C 2.828125 5.539062 2.988281 5.332031 3.1875 5.15625 C 3.394531 4.976562 3.613281 4.832031 3.84375 4.71875 C 4.082031 4.613281 4.332031 4.5625 4.59375 4.5625 C 4.882812 4.5625 5.164062 4.601562 5.4375 4.6875 C 5.707031 4.769531 5.988281 4.875 6.28125 5 C 6.582031 5.113281 6.878906 5.21875 7.171875 5.3125 C 7.472656 5.40625 7.789062 5.453125 8.125 5.453125 C 8.71875 5.453125 9.234375 5.25 9.671875 4.84375 C 10.117188 4.445312 10.492188 3.921875 10.796875 3.265625 C 11.109375 2.609375 11.359375 1.878906 11.546875 1.078125 C 11.742188 0.285156 11.894531 -0.5 12 -1.28125 C 12.101562 -2.0625 12.175781 -2.796875 12.21875 -3.484375 C 12.269531 -4.179688 12.3125 -4.742188 12.34375 -5.171875 C 11.507812 -3.910156 10.679688 -2.941406 9.859375 -2.265625 C 9.035156 -1.585938 8.03125 -1.25 6.84375 -1.25 C 5.9375 -1.25 5.144531 -1.4375 4.46875 -1.8125 C 3.789062 -2.195312 3.210938 -2.695312 2.734375 -3.3125 C 2.265625 -3.9375 1.875 -4.644531 1.5625 -5.4375 C 1.257812 -6.226562 1.03125 -7.050781 0.875 -7.90625 C 0.71875 -8.769531 0.613281 -9.609375 0.5625 -10.421875 C 0.519531 -11.242188 0.523438 -12 0.578125 -12.6875 C 0.597656 -13.21875 0.660156 -13.90625 0.765625 -14.75 C 0.867188 -15.59375 1.039062 -16.414062 1.28125 -17.21875 C 1.519531 -18.03125 1.851562 -18.710938 2.28125 -19.265625 C 2.707031 -19.828125 3.265625 -20.085938 3.953125 -20.046875 C 4.410156 -20.015625 4.78125 -19.816406 5.0625 -19.453125 C 5.34375 -19.085938 5.570312 -18.628906 5.75 -18.078125 C 5.9375 -17.535156 6.070312 -16.9375 6.15625 -16.28125 C 6.238281 -15.625 6.289062 -14.972656 6.3125 -14.328125 C 6.332031 -13.691406 6.335938 -13.101562 6.328125 -12.5625 C 6.316406 -12.03125 6.3125 -11.625 6.3125 -11.34375 C 6.3125 -10.9375 6.320312 -10.53125 6.34375 -10.125 C 6.375 -9.71875 6.457031 -9.351562 6.59375 -9.03125 C 6.738281 -8.71875 6.957031 -8.460938 7.25 -8.265625 C 7.550781 -8.078125 7.972656 -7.984375 8.515625 -7.984375 C 9.140625 -7.984375 9.632812 -8.140625 10 -8.453125 C 10.375 -8.765625 10.648438 -9.148438 10.828125 -9.609375 C 11.003906 -10.078125 11.113281 -10.578125 11.15625 -11.109375 C 11.207031 -11.640625 11.234375 -12.144531 11.234375 -12.625 C 11.234375 -12.957031 11.234375 -13.359375 11.234375 -13.828125 C 11.234375 -14.304688 11.238281 -14.804688 11.25 -15.328125 C 11.257812 -15.859375 11.304688 -16.378906 11.390625 -16.890625 C 11.472656 -17.398438 11.601562 -17.863281 11.78125 -18.28125 C 11.957031 -18.695312 12.191406 -19.035156 12.484375 -19.296875 C 12.785156 -19.554688 13.175781 -19.6875 13.65625 -19.6875 C 14.25 -19.6875 14.757812 -19.453125 15.1875 -18.984375 C 15.613281 -18.523438 15.972656 -17.921875 16.265625 -17.171875 C 16.566406 -16.421875 16.804688 -15.59375 16.984375 -14.6875 C 17.171875 -13.789062 17.3125 -12.894531 17.40625 -12 C 17.5 -11.101562 17.5625 -10.28125 17.59375 -9.53125 C 17.632812 -8.789062 17.65625 -8.207031 17.65625 -7.78125 C 17.65625 -6.78125 17.617188 -5.640625 17.546875 -4.359375 C 17.472656 -3.085938 17.332031 -1.78125 17.125 -0.4375 C 16.925781 0.894531 16.625 2.207031 16.21875 3.5 C 15.820312 4.800781 15.296875 5.960938 14.640625 6.984375 C 13.984375 8.003906 13.179688 8.820312 12.234375 9.4375 C 11.285156 10.0625 10.144531 10.375 8.8125 10.375 Z M 8.8125 10.375 "/></g></g><g style="fill:rgb(0%,0%,0%);fill-opacity:1;"><g transform="translate(156.024471, 359.743923)"><path style="stroke:none;" d=""/></g></g><g style="fill:rgb(0%,0%,0%);fill-opacity:1;"><g transform="translate(164.61848, 359.743923)"><path style="stroke:none;" d="M 6.953125 -24.890625 C 6.953125 -24.554688 6.863281 -24.257812 6.6875 -24 C 6.507812 -23.738281 6.273438 -23.503906 5.984375 -23.296875 C 5.703125 -23.097656 5.394531 -22.941406 5.0625 -22.828125 C 4.726562 -22.722656 4.421875 -22.671875 4.140625 -22.671875 C 3.660156 -22.671875 3.242188 -22.789062 2.890625 -23.03125 C 2.535156 -23.269531 2.359375 -23.640625 2.359375 -24.140625 C 2.359375 -24.492188 2.445312 -24.804688 2.625 -25.078125 C 2.800781 -25.359375 3.019531 -25.585938 3.28125 -25.765625 C 3.539062 -25.941406 3.835938 -26.078125 4.171875 -26.171875 C 4.503906 -26.265625 4.828125 -26.3125 5.140625 -26.3125 C 5.585938 -26.3125 6 -26.203125 6.375 -25.984375 C 6.757812 -25.773438 6.953125 -25.410156 6.953125 -24.890625 Z M 7.234375 -12.765625 C 7.234375 -12.429688 7.234375 -12.078125 7.234375 -11.703125 C 7.234375 -11.335938 7.222656 -10.988281 7.203125 -10.65625 C 7.179688 -10.257812 7.171875 -9.722656 7.171875 -9.046875 C 7.171875 -8.367188 7.144531 -7.632812 7.09375 -6.84375 C 7.050781 -6.0625 6.972656 -5.265625 6.859375 -4.453125 C 6.753906 -3.648438 6.582031 -2.914062 6.34375 -2.25 C 6.101562 -1.582031 5.785156 -1.039062 5.390625 -0.625 C 5.003906 -0.207031 4.515625 0.0078125 3.921875 0.03125 C 3.472656 0.0625 3.09375 -0.109375 2.78125 -0.484375 C 2.46875 -0.867188 2.210938 -1.363281 2.015625 -1.96875 C 1.816406 -2.582031 1.664062 -3.265625 1.5625 -4.015625 C 1.46875 -4.765625 1.394531 -5.488281 1.34375 -6.1875 C 1.300781 -6.882812 1.28125 -7.53125 1.28125 -8.125 C 1.28125 -8.71875 1.28125 -9.160156 1.28125 -9.453125 C 1.28125 -9.828125 1.28125 -10.363281 1.28125 -11.0625 C 1.28125 -11.769531 1.300781 -12.523438 1.34375 -13.328125 C 1.394531 -14.140625 1.484375 -14.960938 1.609375 -15.796875 C 1.742188 -16.628906 1.9375 -17.390625 2.1875 -18.078125 C 2.4375 -18.765625 2.765625 -19.320312 3.171875 -19.75 C 3.578125 -20.175781 4.085938 -20.390625 4.703125 -20.390625 C 5.347656 -20.390625 5.835938 -20.066406 6.171875 -19.421875 C 6.503906 -18.785156 6.753906 -18.039062 6.921875 -17.1875 C 7.085938 -16.332031 7.179688 -15.484375 7.203125 -14.640625 C 7.222656 -13.796875 7.234375 -13.171875 7.234375 -12.765625 Z M 7.234375 -12.765625 "/></g></g><g style="fill:rgb(0%,0%,0%);fill-opacity:1;"><g transform="translate(173.319468, 359.743923)"><path style="stroke:none;" d="M 11.203125 1 C 10.796875 1 10.472656 0.8125 10.234375 0.4375 C 9.992188 0.0703125 9.8125 -0.34375 9.6875 -0.8125 C 9.570312 -1.289062 9.5 -1.773438 9.46875 -2.265625 C 9.4375 -2.753906 9.421875 -3.128906 9.421875 -3.390625 C 9.421875 -4.097656 9.457031 -4.804688 9.53125 -5.515625 C 9.613281 -6.234375 9.707031 -6.945312 9.8125 -7.65625 C 9.925781 -8.375 10.023438 -9.085938 10.109375 -9.796875 C 10.191406 -10.515625 10.234375 -11.234375 10.234375 -11.953125 C 10.234375 -12.234375 10.21875 -12.539062 10.1875 -12.875 C 10.164062 -13.207031 10.113281 -13.519531 10.03125 -13.8125 C 9.945312 -14.113281 9.8125 -14.359375 9.625 -14.546875 C 9.4375 -14.734375 9.1875 -14.828125 8.875 -14.828125 C 8.664062 -14.828125 8.429688 -14.65625 8.171875 -14.3125 C 7.910156 -13.96875 7.664062 -13.578125 7.4375 -13.140625 C 7.207031 -12.703125 7.015625 -12.257812 6.859375 -11.8125 C 6.703125 -11.375 6.625 -11.050781 6.625 -10.84375 C 6.625 -10.320312 6.628906 -9.789062 6.640625 -9.25 C 6.660156 -8.71875 6.671875 -8.175781 6.671875 -7.625 L 6.671875 -5.5625 C 6.640625 -5.132812 6.597656 -4.691406 6.546875 -4.234375 C 6.503906 -3.785156 6.4375 -3.347656 6.34375 -2.921875 C 6.269531 -2.492188 6.160156 -2.082031 6.015625 -1.6875 C 5.878906 -1.300781 5.695312 -0.957031 5.46875 -0.65625 C 5.25 -0.363281 4.984375 -0.125 4.671875 0.0625 C 4.359375 0.257812 3.988281 0.359375 3.5625 0.359375 C 3.09375 0.359375 2.703125 0.203125 2.390625 -0.109375 C 2.078125 -0.421875 1.828125 -0.816406 1.640625 -1.296875 C 1.453125 -1.785156 1.316406 -2.332031 1.234375 -2.9375 C 1.148438 -3.539062 1.085938 -4.132812 1.046875 -4.71875 C 1.015625 -5.300781 1.003906 -5.835938 1.015625 -6.328125 C 1.023438 -6.816406 1.03125 -7.203125 1.03125 -7.484375 L 1.03125 -9.171875 C 1.03125 -10.066406 1.007812 -10.953125 0.96875 -11.828125 C 0.9375 -12.710938 0.921875 -13.597656 0.921875 -14.484375 C 0.921875 -14.953125 0.925781 -15.554688 0.9375 -16.296875 C 0.957031 -17.035156 1.050781 -17.753906 1.21875 -18.453125 C 1.382812 -19.148438 1.65625 -19.75 2.03125 -20.25 C 2.414062 -20.75 2.972656 -21 3.703125 -21 C 4.035156 -21 4.332031 -20.890625 4.59375 -20.671875 C 4.863281 -20.460938 5.097656 -20.203125 5.296875 -19.890625 C 5.492188 -19.585938 5.65625 -19.253906 5.78125 -18.890625 C 5.914062 -18.535156 6.019531 -18.226562 6.09375 -17.96875 C 6.332031 -18.300781 6.613281 -18.625 6.9375 -18.9375 C 7.257812 -19.25 7.617188 -19.519531 8.015625 -19.75 C 8.421875 -19.988281 8.875 -20.179688 9.375 -20.328125 C 9.875 -20.472656 10.445312 -20.546875 11.09375 -20.546875 C 12.300781 -20.546875 13.242188 -20.253906 13.921875 -19.671875 C 14.597656 -19.085938 15.097656 -18.359375 15.421875 -17.484375 C 15.742188 -16.617188 15.941406 -15.6875 16.015625 -14.6875 C 16.085938 -13.6875 16.125 -12.785156 16.125 -11.984375 C 16.125 -11.578125 16.085938 -10.972656 16.015625 -10.171875 C 15.941406 -9.378906 15.828125 -8.5 15.671875 -7.53125 C 15.515625 -6.570312 15.304688 -5.585938 15.046875 -4.578125 C 14.785156 -3.566406 14.476562 -2.644531 14.125 -1.8125 C 13.769531 -0.988281 13.347656 -0.316406 12.859375 0.203125 C 12.367188 0.734375 11.816406 1 11.203125 1 Z M 11.203125 1 "/></g></g><g style="fill:rgb(0%,0%,0%);fill-opacity:1;"><g transform="translate(190.364846, 359.743923)"><path style="stroke:none;" d=""/></g></g><g style="fill:rgb(0%,0%,0%);fill-opacity:1;"><g transform="translate(198.958855, 359.743923)"><path style="stroke:none;" d="M 9.375 1.28125 C 7.6875 1.28125 6.375 1.0625 5.4375 0.625 C 4.5 0.1875 3.796875 -0.429688 3.328125 -1.234375 C 2.867188 -2.046875 2.59375 -3.023438 2.5 -4.171875 C 2.40625 -5.316406 2.359375 -6.585938 2.359375 -7.984375 C 2.359375 -9.097656 2.390625 -10.21875 2.453125 -11.34375 C 2.523438 -12.476562 2.632812 -13.691406 2.78125 -14.984375 C 2.445312 -14.984375 2.1875 -14.972656 2 -14.953125 C 1.8125 -14.941406 1.65625 -14.9375 1.53125 -14.9375 C 0.769531 -14.9375 0.113281 -15.101562 -0.4375 -15.4375 C -1 -15.769531 -1.28125 -16.28125 -1.28125 -16.96875 C -1.28125 -17.394531 -1.117188 -17.773438 -0.796875 -18.109375 C -0.484375 -18.441406 -0.078125 -18.726562 0.421875 -18.96875 C 0.921875 -19.207031 1.460938 -19.394531 2.046875 -19.53125 C 2.628906 -19.675781 3.179688 -19.773438 3.703125 -19.828125 C 3.703125 -20.492188 3.75 -21.226562 3.84375 -22.03125 C 3.945312 -22.84375 4.125 -23.597656 4.375 -24.296875 C 4.625 -25.003906 4.960938 -25.59375 5.390625 -26.0625 C 5.816406 -26.539062 6.363281 -26.78125 7.03125 -26.78125 C 7.40625 -26.78125 7.738281 -26.664062 8.03125 -26.4375 C 8.332031 -26.21875 8.578125 -25.929688 8.765625 -25.578125 C 8.960938 -25.234375 9.109375 -24.847656 9.203125 -24.421875 C 9.296875 -23.992188 9.34375 -23.578125 9.34375 -23.171875 C 9.34375 -22.703125 9.304688 -22.21875 9.234375 -21.71875 C 9.160156 -21.21875 9.03125 -20.597656 8.84375 -19.859375 C 9.25 -19.910156 9.519531 -19.941406 9.65625 -19.953125 C 9.800781 -19.960938 9.9375 -19.96875 10.0625 -19.96875 C 10.457031 -19.96875 10.875 -19.929688 11.3125 -19.859375 C 11.757812 -19.785156 12.164062 -19.664062 12.53125 -19.5 C 12.90625 -19.332031 13.207031 -19.113281 13.4375 -18.84375 C 13.675781 -18.570312 13.796875 -18.242188 13.796875 -17.859375 C 13.796875 -17.429688 13.625 -17.050781 13.28125 -16.71875 C 12.9375 -16.382812 12.503906 -16.097656 11.984375 -15.859375 C 11.460938 -15.628906 10.90625 -15.445312 10.3125 -15.3125 C 9.71875 -15.1875 9.15625 -15.097656 8.625 -15.046875 C 8.488281 -14.078125 8.390625 -13.179688 8.328125 -12.359375 C 8.265625 -11.535156 8.195312 -10.707031 8.125 -9.875 C 8.082031 -9.46875 8.039062 -9.054688 8 -8.640625 C 7.96875 -8.234375 7.953125 -7.8125 7.953125 -7.375 C 7.953125 -7.070312 7.960938 -6.710938 7.984375 -6.296875 C 8.015625 -5.878906 8.097656 -5.476562 8.234375 -5.09375 C 8.378906 -4.71875 8.601562 -4.390625 8.90625 -4.109375 C 9.21875 -3.835938 9.648438 -3.703125 10.203125 -3.703125 C 10.535156 -3.703125 10.878906 -3.734375 11.234375 -3.796875 C 11.585938 -3.859375 11.941406 -3.890625 12.296875 -3.890625 C 12.921875 -3.890625 13.367188 -3.675781 13.640625 -3.25 C 13.910156 -2.820312 14.046875 -2.273438 14.046875 -1.609375 C 14.046875 -1.109375 13.894531 -0.671875 13.59375 -0.296875 C 13.300781 0.0664062 12.925781 0.359375 12.46875 0.578125 C 12.019531 0.804688 11.515625 0.976562 10.953125 1.09375 C 10.398438 1.21875 9.875 1.28125 9.375 1.28125 Z M 9.375 1.28125 "/></g></g><g style="fill:rgb(0%,0%,0%);fill-opacity:1;"><g transform="translate(212.652214, 359.743923)"><path style="stroke:none;" d="M 7.84375 1.03125 C 6.632812 1.03125 5.578125 0.707031 4.671875 0.0625 C 3.765625 -0.570312 3.003906 -1.390625 2.390625 -2.390625 C 1.773438 -3.390625 1.3125 -4.5 1 -5.71875 C 0.6875 -6.945312 0.53125 -8.15625 0.53125 -9.34375 C 0.53125 -10.601562 0.6875 -11.90625 1 -13.25 C 1.3125 -14.59375 1.785156 -15.816406 2.421875 -16.921875 C 3.066406 -18.023438 3.890625 -18.925781 4.890625 -19.625 C 5.890625 -20.332031 7.078125 -20.6875 8.453125 -20.6875 C 9.785156 -20.6875 10.921875 -20.320312 11.859375 -19.59375 C 12.796875 -18.863281 13.550781 -17.957031 14.125 -16.875 C 14.695312 -15.800781 15.097656 -14.617188 15.328125 -13.328125 C 15.566406 -12.046875 15.648438 -10.835938 15.578125 -9.703125 C 15.503906 -8.441406 15.304688 -7.164062 14.984375 -5.875 C 14.671875 -4.59375 14.203125 -3.441406 13.578125 -2.421875 C 12.960938 -1.398438 12.179688 -0.570312 11.234375 0.0625 C 10.285156 0.707031 9.15625 1.03125 7.84375 1.03125 Z M 8.203125 -15.078125 C 7.847656 -15.078125 7.53125 -14.882812 7.25 -14.5 C 6.976562 -14.125 6.753906 -13.660156 6.578125 -13.109375 C 6.398438 -12.566406 6.265625 -11.992188 6.171875 -11.390625 C 6.078125 -10.785156 6.03125 -10.257812 6.03125 -9.8125 C 6.03125 -9.238281 6.082031 -8.617188 6.1875 -7.953125 C 6.289062 -7.285156 6.4375 -6.671875 6.625 -6.109375 C 6.820312 -5.554688 7.054688 -5.09375 7.328125 -4.71875 C 7.597656 -4.351562 7.910156 -4.171875 8.265625 -4.171875 C 8.648438 -4.171875 8.976562 -4.347656 9.25 -4.703125 C 9.519531 -5.054688 9.738281 -5.503906 9.90625 -6.046875 C 10.070312 -6.597656 10.191406 -7.203125 10.265625 -7.859375 C 10.335938 -8.515625 10.375 -9.128906 10.375 -9.703125 C 10.375 -10.222656 10.328125 -10.796875 10.234375 -11.421875 C 10.140625 -12.054688 10.003906 -12.644531 9.828125 -13.1875 C 9.648438 -13.738281 9.421875 -14.191406 9.140625 -14.546875 C 8.867188 -14.898438 8.554688 -15.078125 8.203125 -15.078125 Z M 8.203125 -15.078125 "/></g></g><g style="fill:rgb(0%,0%,0%);fill-opacity:1;"><g transform="translate(228.984397, 359.743923)"><path style="stroke:none;" d="M 16.6875 -10.203125 C 16.6875 -8.890625 16.554688 -7.59375 16.296875 -6.3125 C 16.035156 -5.03125 15.59375 -3.882812 14.96875 -2.875 C 14.351562 -1.863281 13.53125 -1.046875 12.5 -0.421875 C 11.46875 0.191406 10.175781 0.5 8.625 0.5 C 7.101562 0.5 5.832031 0.195312 4.8125 -0.40625 C 3.789062 -1.007812 2.976562 -1.8125 2.375 -2.8125 C 1.769531 -3.8125 1.34375 -4.941406 1.09375 -6.203125 C 0.84375 -7.460938 0.71875 -8.75 0.71875 -10.0625 C 0.71875 -11.488281 0.882812 -12.898438 1.21875 -14.296875 C 1.28125 -14.679688 1.410156 -15.210938 1.609375 -15.890625 C 1.816406 -16.566406 2.082031 -17.226562 2.40625 -17.875 C 2.726562 -18.53125 3.097656 -19.097656 3.515625 -19.578125 C 3.929688 -20.054688 4.390625 -20.296875 4.890625 -20.296875 C 5.359375 -20.296875 5.734375 -20.160156 6.015625 -19.890625 C 6.304688 -19.628906 6.535156 -19.300781 6.703125 -18.90625 C 6.867188 -18.519531 6.972656 -18.109375 7.015625 -17.671875 C 7.066406 -17.234375 7.09375 -16.832031 7.09375 -16.46875 C 7.09375 -15.925781 7.050781 -15.390625 6.96875 -14.859375 C 6.882812 -14.335938 6.796875 -13.816406 6.703125 -13.296875 C 6.609375 -12.585938 6.519531 -11.875 6.4375 -11.15625 C 6.351562 -10.445312 6.3125 -9.734375 6.3125 -9.015625 C 6.3125 -8.660156 6.328125 -8.265625 6.359375 -7.828125 C 6.398438 -7.390625 6.488281 -6.96875 6.625 -6.5625 C 6.769531 -6.15625 6.972656 -5.816406 7.234375 -5.546875 C 7.492188 -5.273438 7.863281 -5.140625 8.34375 -5.140625 C 8.957031 -5.140625 9.445312 -5.304688 9.8125 -5.640625 C 10.1875 -5.972656 10.460938 -6.382812 10.640625 -6.875 C 10.816406 -7.375 10.925781 -7.910156 10.96875 -8.484375 C 11.019531 -9.054688 11.046875 -9.582031 11.046875 -10.0625 C 11.046875 -11.101562 10.972656 -12.128906 10.828125 -13.140625 C 10.691406 -14.148438 10.566406 -15.175781 10.453125 -16.21875 C 10.421875 -16.34375 10.40625 -16.507812 10.40625 -16.71875 C 10.40625 -17.082031 10.460938 -17.441406 10.578125 -17.796875 C 10.703125 -18.148438 10.867188 -18.46875 11.078125 -18.75 C 11.296875 -19.039062 11.5625 -19.273438 11.875 -19.453125 C 12.1875 -19.628906 12.53125 -19.71875 12.90625 -19.71875 C 13.425781 -19.71875 13.890625 -19.53125 14.296875 -19.15625 C 14.703125 -18.789062 15.039062 -18.316406 15.3125 -17.734375 C 15.582031 -17.148438 15.804688 -16.492188 15.984375 -15.765625 C 16.171875 -15.046875 16.316406 -14.335938 16.421875 -13.640625 C 16.523438 -12.941406 16.59375 -12.28125 16.625 -11.65625 C 16.664062 -11.039062 16.6875 -10.554688 16.6875 -10.203125 Z M 16.6875 -10.203125 "/></g></g><g style="fill:rgb(0%,0%,0%);fill-opacity:1;"><g transform="translate(246.778631, 359.743923)"><path style="stroke:none;" d="M 14.296875 -13.6875 C 14.296875 -13.570312 14.285156 -13.445312 14.265625 -13.3125 C 14.242188 -13.1875 14.207031 -13.0625 14.15625 -12.9375 C 13.945312 -12.394531 13.613281 -11.9375 13.15625 -11.5625 C 12.707031 -11.195312 12.171875 -11.015625 11.546875 -11.015625 C 10.617188 -11.015625 9.988281 -11.476562 9.65625 -12.40625 C 9.613281 -12.53125 9.59375 -12.664062 9.59375 -12.8125 C 9.59375 -12.96875 9.582031 -13.128906 9.5625 -13.296875 L 9.5625 -14.328125 C 9.507812 -14.660156 9.421875 -14.921875 9.296875 -15.109375 C 9.179688 -15.304688 8.984375 -15.40625 8.703125 -15.40625 C 8.296875 -15.40625 7.90625 -15.148438 7.53125 -14.640625 C 7.164062 -14.128906 6.847656 -13.519531 6.578125 -12.8125 C 6.304688 -12.113281 6.085938 -11.394531 5.921875 -10.65625 C 5.753906 -9.925781 5.671875 -9.332031 5.671875 -8.875 C 5.671875 -8.519531 5.691406 -8.085938 5.734375 -7.578125 C 5.785156 -7.066406 5.878906 -6.570312 6.015625 -6.09375 C 6.160156 -5.625 6.359375 -5.210938 6.609375 -4.859375 C 6.859375 -4.515625 7.1875 -4.34375 7.59375 -4.34375 C 8 -4.34375 8.375 -4.46875 8.71875 -4.71875 C 9.0625 -4.96875 9.398438 -5.257812 9.734375 -5.59375 C 10.046875 -5.882812 10.382812 -6.179688 10.75 -6.484375 C 11.113281 -6.796875 11.535156 -6.953125 12.015625 -6.953125 C 12.609375 -6.953125 13.078125 -6.738281 13.421875 -6.3125 C 13.765625 -5.882812 13.9375 -5.394531 13.9375 -4.84375 C 13.9375 -4.039062 13.722656 -3.285156 13.296875 -2.578125 C 12.867188 -1.878906 12.332031 -1.273438 11.6875 -0.765625 C 11.050781 -0.253906 10.335938 0.144531 9.546875 0.4375 C 8.765625 0.738281 8.019531 0.890625 7.3125 0.890625 C 6.03125 0.890625 4.941406 0.570312 4.046875 -0.0625 C 3.148438 -0.707031 2.425781 -1.523438 1.875 -2.515625 C 1.332031 -3.503906 0.941406 -4.578125 0.703125 -5.734375 C 0.472656 -6.898438 0.359375 -8.007812 0.359375 -9.0625 C 0.359375 -10.269531 0.523438 -11.582031 0.859375 -13 C 1.191406 -14.414062 1.703125 -15.726562 2.390625 -16.9375 C 3.078125 -18.144531 3.960938 -19.15625 5.046875 -19.96875 C 6.128906 -20.78125 7.421875 -21.1875 8.921875 -21.1875 C 9.847656 -21.1875 10.648438 -20.984375 11.328125 -20.578125 C 12.003906 -20.171875 12.5625 -19.640625 13 -18.984375 C 13.4375 -18.335938 13.765625 -17.609375 13.984375 -16.796875 C 14.210938 -15.984375 14.328125 -15.1875 14.328125 -14.40625 C 14.328125 -14.289062 14.328125 -14.171875 14.328125 -14.046875 C 14.328125 -13.929688 14.316406 -13.8125 14.296875 -13.6875 Z M 14.296875 -13.6875 "/></g></g><g style="fill:rgb(0%,0%,0%);fill-opacity:1;"><g transform="translate(262.00536, 359.743923)"><path style="stroke:none;" d="M 17.265625 -9.234375 C 17.265625 -8.828125 17.253906 -8.222656 17.234375 -7.421875 C 17.222656 -6.628906 17.1875 -5.800781 17.125 -4.9375 C 17.070312 -4.070312 17 -3.25 16.90625 -2.46875 C 16.8125 -1.695312 16.691406 -1.132812 16.546875 -0.78125 C 16.359375 -0.332031 16.109375 0.0546875 15.796875 0.390625 C 15.484375 0.722656 15.066406 0.890625 14.546875 0.890625 C 13.742188 0.890625 13.160156 0.570312 12.796875 -0.0625 C 12.441406 -0.707031 12.203125 -1.503906 12.078125 -2.453125 C 11.960938 -3.410156 11.914062 -4.445312 11.9375 -5.5625 C 11.96875 -6.675781 11.957031 -7.707031 11.90625 -8.65625 C 11.863281 -9.613281 11.734375 -10.410156 11.515625 -11.046875 C 11.304688 -11.691406 10.914062 -12.015625 10.34375 -12.015625 C 9.5625 -12.015625 8.960938 -11.890625 8.546875 -11.640625 C 8.128906 -11.390625 7.828125 -11.0625 7.640625 -10.65625 C 7.460938 -10.257812 7.359375 -9.796875 7.328125 -9.265625 C 7.296875 -8.742188 7.253906 -8.195312 7.203125 -7.625 C 7.148438 -7.082031 7.113281 -6.347656 7.09375 -5.421875 C 7.070312 -4.492188 6.960938 -3.578125 6.765625 -2.671875 C 6.578125 -1.765625 6.265625 -0.984375 5.828125 -0.328125 C 5.390625 0.316406 4.742188 0.640625 3.890625 0.640625 C 3.367188 0.640625 2.945312 0.4375 2.625 0.03125 C 2.300781 -0.375 2.039062 -0.894531 1.84375 -1.53125 C 1.65625 -2.175781 1.519531 -2.890625 1.4375 -3.671875 C 1.351562 -4.453125 1.304688 -5.21875 1.296875 -5.96875 C 1.285156 -6.71875 1.285156 -7.398438 1.296875 -8.015625 C 1.304688 -8.640625 1.3125 -9.109375 1.3125 -9.421875 C 1.3125 -9.890625 1.328125 -10.671875 1.359375 -11.765625 C 1.398438 -12.859375 1.476562 -14.078125 1.59375 -15.421875 C 1.71875 -16.765625 1.875 -18.148438 2.0625 -19.578125 C 2.257812 -21.003906 2.507812 -22.304688 2.8125 -23.484375 C 3.125 -24.660156 3.5 -25.613281 3.9375 -26.34375 C 4.375 -27.082031 4.890625 -27.441406 5.484375 -27.421875 C 5.867188 -27.398438 6.195312 -27.234375 6.46875 -26.921875 C 6.738281 -26.609375 6.960938 -26.207031 7.140625 -25.71875 C 7.328125 -25.238281 7.476562 -24.710938 7.59375 -24.140625 C 7.71875 -23.566406 7.804688 -23 7.859375 -22.4375 C 7.921875 -21.882812 7.957031 -21.367188 7.96875 -20.890625 C 7.976562 -20.421875 7.984375 -20.054688 7.984375 -19.796875 C 7.984375 -19.171875 7.972656 -18.550781 7.953125 -17.9375 C 7.929688 -17.320312 7.894531 -16.703125 7.84375 -16.078125 C 8.394531 -16.816406 9.125 -17.421875 10.03125 -17.890625 C 10.945312 -18.367188 11.867188 -18.609375 12.796875 -18.609375 C 13.984375 -18.609375 14.878906 -18.28125 15.484375 -17.625 C 16.097656 -16.976562 16.535156 -16.171875 16.796875 -15.203125 C 17.054688 -14.242188 17.195312 -13.222656 17.21875 -12.140625 C 17.25 -11.054688 17.265625 -10.085938 17.265625 -9.234375 Z M 17.265625 -9.234375 "/></g></g></g></svg>