<?xml version="1.0" encoding="UTF-8"?><svg xmlns="http://www.w3.org/2000/svg" xmlns:xlink="http://www.w3.org/1999/xlink" contentScriptType="text/ecmascript" width="375" zoomAndPan="magnify" contentStyleType="text/css" viewBox="0 0 375 374.999991" height="374.999991" preserveAspectRatio="xMidYMid meet" version="1.0"><defs><clipPath id="clip-0"><path d="M 61 304.863281 L 139.433594 304.863281 L 139.433594 366.6875 L 61 366.6875 Z M 61 304.863281 " clip-rule="nonzero"/></clipPath></defs><path fill="rgb(30.589294%, 15.289307%, 50.19989%)" d="M 163.378906 88.71875 C 168.902344 92.261719 175.609375 95.027344 181.523438 97.390625 C 181.539062 97.394531 181.554688 97.402344 181.570312 97.410156 C 176.339844 104.121094 170.902344 111.308594 170.25 116.476562 C 170.644531 117.378906 171.339844 118.132812 172.28125 118.6875 C 172.75 118.960938 173.253906 119.117188 173.78125 119.195312 C 181.28125 116.160156 189.417969 120.164062 196.082031 114.144531 C 197.597656 112.117188 205.207031 104.746094 207.789062 105.371094 C 212.707031 106.226562 209.441406 112.613281 208.5 116.484375 C 205.546875 128.621094 197.707031 139.175781 196.90625 150.265625 C 196.738281 152.613281 196.664062 155.703125 196.589844 157.746094 C 197.046875 160.882812 199.738281 162.855469 202.414062 162.507812 C 211.28125 149.734375 221.664062 148.582031 231.894531 134.132812 C 240.636719 121.519531 250.390625 110.566406 261.328125 100.527344 C 262.5 101.636719 263.671875 102.734375 264.8125 103.808594 C 273.074219 111.582031 280.710938 111.851562 283.722656 99.464844 C 286.144531 89.496094 286.242188 77.304688 279.355469 69.902344 C 273.414062 63.519531 267.089844 57.472656 260.390625 51.894531 C 245.308594 39.328125 229.503906 35.476562 215.121094 35.929688 L 207.730469 31.195312 C 207.128906 33.058594 206.527344 34.925781 205.921875 36.789062 C 205.855469 36.796875 205.785156 36.796875 205.71875 36.8125 C 205.457031 36.863281 205.199219 36.910156 204.9375 36.960938 C 204.910156 36.964844 204.882812 36.972656 204.863281 36.976562 C 189.832031 39.9375 177.398438 50.757812 170.335938 60.203125 L 170.351562 60.21875 C 170.347656 60.226562 170.34375 60.238281 170.335938 60.242188 C 170.117188 60.53125 169.902344 60.820312 169.695312 61.113281 C 165.75 66.242188 162.199219 71.363281 159.832031 77.277344 C 157.460938 83.199219 157.066406 84.773438 163.378906 88.71875 " fill-opacity="1" fill-rule="nonzero"/><path fill="rgb(30.589294%, 15.289307%, 50.19989%)" d="M 295.980469 304.867188 C 296.011719 304.804688 296.046875 304.742188 296.0625 304.675781 C 296.164062 304.402344 296.253906 304.128906 296.347656 303.855469 C 301.242188 289.339844 298.027344 273.175781 293.335938 262.359375 L 293.3125 262.367188 C 293.3125 262.355469 293.304688 262.347656 293.304688 262.339844 C 293.160156 262.003906 293.015625 261.671875 292.867188 261.351562 C 290.375 255.378906 287.695312 249.753906 283.734375 244.761719 C 279.769531 239.765625 278.601562 238.640625 272.042969 242.160156 C 266.222656 245.183594 260.488281 249.632812 255.5 253.59375 C 255.484375 253.605469 255.472656 253.613281 255.457031 253.625 C 254.371094 250.976562 253.253906 248.285156 252.082031 245.757812 C 248.34375 242.476562 244.421875 239.472656 240.308594 236.707031 C 238.910156 244.34375 231.867188 249.371094 233.726562 257.898438 C 234.722656 260.222656 237.347656 270.484375 235.515625 272.414062 C 232.328125 276.253906 228.414062 270.25 225.523438 267.511719 C 216.457031 258.914062 211.183594 246.867188 201.953125 240.667969 C 199.992188 239.355469 197.351562 237.753906 195.621094 236.675781 C 192.671875 235.515625 189.617188 236.871094 188.589844 239.363281 C 195.269531 253.398438 191.117188 262.984375 198.574219 279.035156 C 205.179688 292.894531 209.847656 306.796875 213.128906 321.273438 C 211.582031 321.738281 210.050781 322.210938 208.550781 322.667969 C 197.695312 325.972656 193.671875 332.460938 202.929688 341.230469 C 210.375 348.285156 220.910156 354.421875 230.761719 352.128906 C 239.25 350.148438 247.640625 347.660156 255.8125 344.621094 C 274.210938 337.777344 285.410156 325.976562 292.164062 313.273438 L 299.945312 309.214844 C 298.625 307.765625 297.300781 306.316406 295.980469 304.867188 " fill-opacity="1" fill-rule="nonzero"/><path fill="rgb(30.589294%, 15.289307%, 50.19989%)" d="M 50.523438 89.789062 C 50.519531 89.800781 50.515625 89.816406 50.511719 89.828125 C 45.566406 104.324219 48.71875 120.5 53.371094 131.335938 L 53.390625 131.328125 C 53.394531 131.339844 53.402344 131.347656 53.40625 131.355469 C 53.546875 131.691406 53.6875 132.023438 53.835938 132.347656 C 56.308594 138.324219 58.964844 143.960938 62.910156 148.964844 C 66.851562 153.976562 68.019531 155.109375 74.589844 151.613281 C 80.332031 148.65625 85.996094 144.316406 90.945312 140.421875 C 91.851562 142.664062 92.785156 144.960938 93.75 147.179688 C 97.828125 150.863281 102.148438 154.222656 106.691406 157.277344 C 108.546875 150.261719 114.84375 145.332031 113.105469 137.234375 C 112.117188 134.90625 109.523438 124.632812 111.363281 122.710938 C 114.5625 118.878906 118.457031 124.898438 121.34375 127.644531 C 130.375 136.277344 135.605469 148.339844 144.8125 154.578125 C 146.761719 155.890625 149.394531 157.5 151.132812 158.589844 C 154.082031 159.765625 157.136719 158.421875 158.167969 155.925781 C 151.535156 141.867188 155.730469 132.296875 148.332031 116.21875 C 141.59375 101.964844 136.914062 87.664062 133.675781 72.753906 C 135.261719 72.28125 136.839844 71.804688 138.378906 71.339844 C 149.246094 68.070312 153.296875 61.597656 144.070312 52.796875 C 136.648438 45.714844 126.140625 39.535156 116.28125 41.796875 C 107.78125 43.746094 99.382812 46.203125 91.203125 49.210938 C 71.925781 56.296875 60.511719 68.84375 53.824219 82.183594 L 47.078125 85.667969 C 48.253906 86.96875 49.429688 88.269531 50.601562 89.566406 C 50.574219 89.640625 50.550781 89.714844 50.523438 89.789062 " fill-opacity="1" fill-rule="nonzero"/><path fill="rgb(30.589294%, 15.289307%, 50.19989%)" d="M 76.546875 268.726562 C 82.859375 267.816406 84.421875 267.371094 84.679688 259.933594 C 84.996094 253.382812 84.03125 246.191406 83.125 239.890625 C 83.121094 239.871094 83.121094 239.855469 83.117188 239.835938 C 85.9375 240.230469 88.8125 240.617188 91.574219 240.878906 C 96.296875 239.300781 100.886719 237.417969 105.359375 235.253906 C 99.46875 230.199219 98.65625 221.585938 90.359375 218.90625 C 87.847656 218.605469 77.660156 215.710938 76.90625 213.160156 C 75.191406 208.46875 82.347656 208.105469 86.171875 206.984375 C 98.164062 203.472656 111.230469 204.984375 121.238281 200.128906 C 123.351562 199.105469 126.0625 197.621094 127.878906 196.660156 C 130.367188 194.703125 130.730469 191.386719 129.085938 189.246094 C 113.59375 187.949219 107.398438 179.539062 89.773438 177.902344 C 74.472656 176.644531 60.101562 173.671875 45.9375 169.226562 C 46.3125 167.65625 46.679688 166.097656 47.035156 164.570312 C 49.640625 153.53125 46.058594 146.785156 33.820312 150.375 C 23.972656 153.261719 13.367188 159.269531 10.394531 168.933594 C 7.832031 177.269531 5.761719 185.765625 4.277344 194.355469 C 0.203125 217.914062 7.871094 235.953125 18.429688 249.066406 C 18.464844 249.121094 18.503906 249.183594 18.554688 249.234375 C 18.738281 249.457031 18.929688 249.671875 19.117188 249.890625 C 29.203125 261.421875 44.792969 266.777344 56.503906 268.167969 L 56.511719 268.144531 C 56.519531 268.148438 56.53125 268.144531 56.539062 268.148438 C 56.898438 268.195312 57.261719 268.234375 57.613281 268.269531 C 64.027344 269.121094 70.242188 269.640625 76.546875 268.726562 " fill-opacity="1" fill-rule="nonzero"/><path fill="rgb(30.589294%, 15.289307%, 50.19989%)" d="M 183.558594 305.363281 C 178.039062 301.8125 171.332031 299.050781 165.417969 296.683594 C 165.402344 296.683594 165.386719 296.675781 165.371094 296.667969 C 167.125 294.421875 168.902344 292.121094 170.511719 289.859375 C 170.730469 288.785156 170.925781 287.710938 171.113281 286.628906 C 171.054688 286.953125 171.011719 287.269531 170.953125 287.59375 C 171.011719 287.265625 171.0625 286.9375 171.117188 286.605469 C 171.167969 286.304688 171.21875 286.003906 171.269531 285.699219 C 171.417969 284.820312 171.550781 283.9375 171.675781 283.050781 C 171.71875 282.761719 171.757812 282.476562 171.796875 282.1875 C 171.929688 281.1875 172.054688 280.191406 172.160156 279.1875 C 172.175781 279.035156 172.199219 278.878906 172.214844 278.722656 C 172.335938 277.523438 172.449219 276.328125 172.535156 275.125 C 172.535156 275.125 172.53125 275.125 172.53125 275.125 L 172.527344 275.125 C 165.203125 277.699219 157.324219 274.078125 150.863281 279.929688 C 149.339844 281.953125 141.738281 289.332031 139.148438 288.695312 C 134.230469 287.847656 137.492188 281.464844 138.441406 277.59375 C 141.390625 265.457031 149.234375 254.894531 150.039062 243.808594 C 150.203125 241.464844 150.277344 238.375 150.351562 236.324219 C 149.894531 233.1875 147.203125 231.214844 144.527344 231.570312 C 135.660156 244.34375 125.277344 245.492188 115.046875 259.941406 C 106.300781 272.554688 96.546875 283.507812 85.609375 293.542969 C 84.441406 292.433594 83.269531 291.339844 82.128906 290.269531 C 73.863281 282.496094 66.230469 282.226562 63.21875 294.613281 C 60.796875 304.582031 60.699219 316.769531 67.585938 324.175781 C 73.527344 330.558594 79.851562 336.605469 86.550781 342.179688 C 104.921875 357.492188 124.382812 359.871094 141.019531 357.285156 C 141.082031 357.277344 141.15625 357.277344 141.226562 357.261719 C 141.332031 357.242188 141.4375 357.21875 141.542969 357.199219 L 141.554688 357.230469 C 141.539062 357.234375 141.519531 357.234375 141.503906 357.238281 C 141.433594 357.253906 141.574219 357.269531 141.574219 357.277344 L 141.574219 357.269531 L 141.558594 357.230469 C 153.101562 355.171875 163.011719 348.433594 170.277344 341.136719 C 170.714844 340.699219 171.132812 340.257812 171.554688 339.816406 C 171.574219 339.796875 171.59375 339.773438 171.613281 339.753906 C 171.613281 339.753906 171.617188 339.75 171.617188 339.75 C 172.03125 339.316406 172.425781 338.882812 172.820312 338.449219 C 172.921875 338.339844 173.019531 338.226562 173.121094 338.117188 C 173.457031 337.738281 173.785156 337.363281 174.109375 336.984375 C 174.296875 336.757812 174.484375 336.535156 174.667969 336.3125 C 174.90625 336.027344 175.148438 335.738281 175.371094 335.457031 C 175.777344 334.949219 176.167969 334.445312 176.542969 333.945312 C 176.5625 333.921875 176.585938 333.894531 176.605469 333.867188 L 176.589844 333.851562 C 176.589844 333.851562 176.589844 333.851562 176.585938 333.851562 C 176.59375 333.851562 176.597656 333.835938 176.605469 333.832031 C 176.820312 333.539062 177.039062 333.253906 177.246094 332.960938 C 181.1875 327.835938 184.746094 322.714844 187.105469 316.796875 C 189.476562 310.875 189.875 309.300781 183.558594 305.363281 " fill-opacity="1" fill-rule="nonzero"/><path fill="rgb(30.589294%, 15.289307%, 50.19989%)" d="M 328.511719 145.011719 C 328.472656 144.953125 328.4375 144.890625 328.386719 144.84375 C 328.199219 144.621094 328.011719 144.398438 327.820312 144.183594 C 317.734375 132.652344 302.148438 127.296875 290.4375 125.90625 L 290.429688 125.925781 C 290.421875 125.925781 290.410156 125.925781 290.402344 125.925781 C 290.039062 125.882812 289.683594 125.839844 289.328125 125.804688 C 282.914062 124.953125 276.699219 124.4375 270.394531 125.347656 C 264.082031 126.257812 262.519531 126.699219 262.261719 134.136719 C 261.945312 140.691406 262.910156 147.878906 263.816406 154.1875 C 263.820312 154.203125 263.820312 154.21875 263.824219 154.234375 C 260.992188 153.839844 258.101562 153.453125 255.328125 153.1875 C 250.621094 154.765625 246.035156 156.648438 241.578125 158.8125 C 247.476562 163.863281 248.273438 172.484375 256.582031 175.167969 C 259.09375 175.464844 269.285156 178.363281 270.039062 180.917969 C 271.753906 185.605469 264.597656 185.96875 260.769531 187.09375 C 248.777344 190.601562 235.707031 189.089844 225.707031 193.941406 C 223.582031 194.96875 220.871094 196.445312 219.0625 197.414062 C 216.578125 199.367188 216.214844 202.691406 217.859375 204.828125 C 233.351562 206.121094 239.546875 214.535156 257.167969 216.171875 C 272.46875 217.433594 286.835938 220.398438 301 224.847656 C 300.625 226.417969 300.261719 227.980469 299.90625 229.503906 C 297.300781 240.542969 300.882812 247.289062 313.121094 243.703125 C 322.96875 240.816406 333.574219 234.804688 336.546875 225.140625 C 339.109375 216.804688 341.179688 208.3125 342.664062 199.71875 C 346.738281 176.160156 339.070312 158.121094 328.511719 145.011719 " fill-opacity="1" fill-rule="nonzero"/><path fill="rgb(66.668701%, 35.289001%, 34.509277%)" d="M 203.003906 309.917969 C 202.664062 314.148438 201.882812 319.964844 202.234375 325.441406 C 203.929688 324.359375 206.058594 323.425781 208.550781 322.667969 C 210.050781 322.214844 211.585938 321.742188 213.128906 321.269531 C 210.734375 310.6875 207.589844 300.40625 203.492188 290.226562 C 200.179688 295.554688 203.722656 304.039062 203.003906 309.917969 " fill-opacity="1" fill-rule="nonzero"/><path fill="rgb(66.668701%, 35.289001%, 34.509277%)" d="M 239.433594 123.988281 C 244.160156 122.230469 248.679688 117.648438 252.984375 116.054688 C 257.734375 114.074219 264.859375 111.597656 270.007812 107.714844 C 268.332031 106.796875 266.589844 105.476562 264.8125 103.8125 C 263.671875 102.738281 262.5 101.636719 261.335938 100.523438 C 253.429688 107.773438 246.148438 115.503906 239.433594 123.988281 " fill-opacity="1" fill-rule="nonzero"/><path fill="rgb(66.668701%, 35.289001%, 34.509277%)" d="M 199.980469 166.148438 C 200.5 164.957031 201.007812 163.734375 201.585938 162.539062 C 199.625 162.457031 197.777344 161.160156 196.96875 159.136719 C 195.074219 161.308594 193.09375 164.289062 193.746094 167.246094 C 194.730469 171.722656 198.699219 168.609375 199.980469 166.148438 " fill-opacity="1" fill-rule="nonzero"/><path fill="rgb(66.668701%, 35.289001%, 34.509277%)" d="M 217.628906 89.847656 C 218.144531 90.402344 218.648438 90.925781 219.144531 91.441406 C 220.144531 97.53125 225.472656 100.761719 231.257812 98.957031 C 233.089844 99.238281 235.132812 99.226562 237.488281 98.875 C 243.304688 98.269531 251.328125 96.667969 255.539062 92.253906 C 255.539062 92.253906 265.769531 53.148438 253.132812 46.328125 C 240.496094 39.507812 210.605469 52.945312 210.605469 52.945312 C 208.597656 56.15625 208.800781 60.566406 208.800781 64.175781 C 208.597656 74.40625 210.40625 82.226562 217.628906 89.847656 " fill-opacity="1" fill-rule="nonzero"/><path fill="rgb(66.668701%, 35.289001%, 34.509277%)" d="M 188.785156 229.492188 C 184.414062 228.121094 185.140625 233.117188 186.644531 235.445312 C 187.414062 236.484375 188.226562 237.523438 188.980469 238.621094 C 190.027344 236.96875 192.0625 236.023438 194.214844 236.3125 C 193.273438 233.59375 191.679688 230.390625 188.785156 229.492188 " fill-opacity="1" fill-rule="nonzero"/><path fill="rgb(66.668701%, 35.289001%, 34.509277%)" d="M 173.367188 197.160156 C 173.402344 197.121094 173.441406 197.074219 173.472656 197.035156 C 173.59375 197.109375 173.707031 197.167969 173.828125 197.234375 C 173.675781 197.214844 173.519531 197.183594 173.367188 197.160156 Z M 252.085938 245.757812 C 254.164062 247.582031 256.199219 249.496094 258.164062 251.492188 C 262.484375 248.136719 267.230469 244.660156 272.039062 242.15625 C 273.664062 241.28125 274.960938 240.695312 276.046875 240.390625 C 272.054688 236.847656 267.875 233.460938 263.507812 230.253906 C 240.667969 213.90625 199.972656 202.289062 178.878906 198.144531 C 183.023438 195.878906 180.328125 182.917969 180.910156 179.40625 C 183.785156 183.710938 186.058594 181.882812 184.957031 177.308594 C 184.097656 174.15625 180.203125 170.390625 179.335938 167.238281 C 173.089844 142.589844 171.960938 118.976562 178.386719 96.117188 C 173.320312 94.042969 167.945312 91.648438 163.378906 88.71875 C 161.816406 87.734375 160.660156 86.90625 159.851562 86.125 C 158.761719 91.351562 157.894531 96.652344 157.285156 102.035156 C 154.425781 130.113281 164.675781 171.464844 171.558594 191.710938 C 167.421875 189.59375 157.769531 198.175781 154.484375 199.414062 C 156.769531 194.773438 154.054688 193.722656 150.636719 196.953125 C 148.332031 199.28125 147.019531 204.53125 144.722656 206.851562 C 126.496094 224.578125 106.597656 237.367188 83.589844 243.238281 C 84.332031 248.660156 84.9375 254.515625 84.679688 259.933594 C 84.613281 261.777344 84.476562 263.183594 84.195312 264.285156 C 89.265625 262.625 94.296875 260.707031 99.265625 258.554688 C 124.765625 247.105469 155.117188 218.019531 169.398438 201.832031 C 170.292969 206.296875 181.960938 210.152344 184.601562 212.308594 C 179.441406 212.671875 179.894531 215.546875 184.414062 216.867188 C 187.585938 217.683594 192.785156 216.179688 195.953125 216.992188 C 214.285156 222.101562 230.703125 229.40625 244.777344 239.859375 C 247.289062 241.71875 249.722656 243.683594 252.085938 245.757812 " fill-opacity="1" fill-rule="nonzero"/><path fill="rgb(66.668701%, 35.289001%, 34.509277%)" d="M 270.777344 293.757812 C 262 288.503906 254.3125 286.179688 244.105469 288.660156 C 243.371094 288.839844 242.664062 289.011719 241.972656 289.1875 C 236.1875 287.027344 230.730469 290.046875 229.425781 295.964844 C 228.273438 297.417969 227.273438 299.195312 226.40625 301.410156 C 224.039062 306.753906 221.445312 314.515625 223.183594 320.363281 C 223.183594 320.363281 252.050781 348.667969 264.246094 341.089844 C 276.445312 333.511719 279.628906 300.902344 279.628906 300.902344 C 277.84375 297.570312 273.914062 295.550781 270.777344 293.757812 " fill-opacity="1" fill-rule="nonzero"/><path fill="rgb(66.668701%, 35.289001%, 34.509277%)" d="M 137.519531 194.375 C 140.90625 191.296875 136.222656 189.40625 133.457031 189.539062 C 132.160156 189.679688 130.855469 189.859375 129.535156 189.949219 C 130.441406 191.691406 130.242188 193.929688 128.890625 195.648438 C 131.714844 196.195312 135.292969 196.433594 137.519531 194.375 " fill-opacity="1" fill-rule="nonzero"/><path fill="rgb(66.668701%, 35.289001%, 34.509277%)" d="M 69.140625 161.210938 C 67.875 160.433594 66.152344 159.886719 65.011719 159.90625 C 50.839844 158.234375 43.660156 178.488281 43.070312 190.660156 C 41.328125 191.144531 39.601562 191.621094 37.933594 192.085938 C 35.085938 201.367188 34.636719 210.070312 34.636719 210.070312 C 34.25 210.644531 37.5 212.238281 41.898438 217.507812 C 42.179688 217.851562 42.46875 218.203125 42.765625 218.582031 C 43.304688 219.269531 44.105469 219.765625 45.097656 220.164062 C 45.65625 220.390625 46.285156 220.578125 46.941406 220.75 C 47.398438 219.558594 47.933594 218.445312 48.570312 217.472656 C 49.882812 215.464844 51.984375 212.988281 54.28125 210.183594 C 58.027344 212.058594 62.296875 212.78125 66.414062 211.820312 C 73.871094 210.078125 78.417969 202.746094 80.253906 195.15625 C 84.636719 191.398438 83.289062 188.203125 80.796875 182.796875 C 79.660156 175.082031 76.695312 164.992188 69.140625 161.210938 " fill-opacity="1" fill-rule="nonzero"/><path fill="rgb(81.568909%, 44.309998%, 43.919373%)" d="M 110.546875 266.167969 C 104.117188 265.144531 97.9375 272.457031 92.203125 274.503906 C 86.589844 276.777344 77.660156 279.71875 72.53125 284.851562 C 75.4375 285.140625 78.726562 287.070312 82.128906 290.265625 C 83.269531 291.339844 84.441406 292.4375 85.605469 293.542969 C 94.707031 285.199219 102.988281 276.214844 110.546875 266.167969 " fill-opacity="1" fill-rule="nonzero"/><path fill="rgb(81.568909%, 44.309998%, 43.919373%)" d="M 285.675781 227.496094 C 289.265625 230.910156 294.179688 236.164062 299.574219 239.351562 C 298.835938 236.785156 298.980469 233.414062 299.90625 229.5 C 300.265625 227.980469 300.621094 226.421875 301 224.851562 C 291.742188 221.945312 282.386719 219.667969 272.75 218.089844 C 276.234375 221.820312 282.417969 224.132812 285.675781 227.496094 " fill-opacity="1" fill-rule="nonzero"/><path fill="rgb(81.568909%, 44.309998%, 43.919373%)" d="M 157.804688 164.585938 C 162.164062 165.972656 161.457031 160.976562 159.957031 158.644531 C 159.347656 157.808594 158.703125 156.964844 158.09375 156.097656 C 157.210938 158.007812 155.128906 159.1875 152.859375 158.996094 C 153.832031 161.382812 155.34375 163.808594 157.804688 164.585938 " fill-opacity="1" fill-rule="nonzero"/><path fill="rgb(81.568909%, 44.309998%, 43.919373%)" d="M 89.78125 99.789062 C 91.097656 99.410156 92.398438 99.171875 93.636719 99.113281 C 95.933594 98.996094 99.011719 99.210938 102.449219 99.410156 C 102.503906 103.941406 104.011719 108.40625 107.136719 111.734375 C 112.371094 117.324219 120.996094 117.597656 128.496094 115.390625 C 133.933594 117.304688 136.03125 114.542969 139.464844 109.6875 C 145.578125 104.847656 152.839844 97.226562 152.339844 88.796875 C 152.382812 87.308594 151.988281 85.546875 151.40625 84.570312 C 145.863281 71.679688 125.324219 75.25 114.335938 80.671875 C 112.878906 79.515625 111.414062 78.355469 109.976562 77.214844 C 100.519531 79.394531 92.761719 83.351562 92.761719 83.351562 C 92.074219 83.300781 92.316406 86.914062 89.953125 93.359375 C 89.792969 93.777344 89.632812 94.199219 89.457031 94.644531 C 89.128906 95.453125 89.097656 96.398438 89.253906 97.453125 C 89.351562 98.183594 89.546875 98.964844 89.78125 99.789062 " fill-opacity="1" fill-rule="nonzero"/><path fill="rgb(81.568909%, 44.309998%, 43.919373%)" d="M 146.96875 227.929688 C 146.441406 229.121094 145.945312 230.34375 145.355469 231.539062 C 147.324219 231.625 149.164062 232.910156 149.972656 234.941406 C 151.867188 232.761719 153.847656 229.789062 153.195312 226.832031 C 152.210938 222.355469 148.242188 225.46875 146.96875 227.929688 " fill-opacity="1" fill-rule="nonzero"/><path fill="rgb(81.568909%, 44.309998%, 43.919373%)" d="M 209.421875 199.703125 C 206.027344 202.78125 210.71875 204.664062 213.484375 204.539062 C 214.773438 204.398438 216.085938 204.21875 217.414062 204.128906 C 216.507812 202.386719 216.703125 200.148438 218.058594 198.429688 C 215.226562 197.882812 211.648438 197.644531 209.421875 199.703125 " fill-opacity="1" fill-rule="nonzero"/><path fill="rgb(81.568909%, 44.309998%, 43.919373%)" d="M 262.261719 134.136719 C 262.328125 132.300781 262.464844 130.894531 262.746094 129.792969 C 257.675781 131.453125 252.644531 133.371094 247.675781 135.523438 C 221.929688 147.082031 191.238281 176.625 177.136719 192.703125 C 177.167969 188.003906 164.660156 183.871094 161.917969 181.621094 C 167.078125 181.28125 166.632812 178.402344 162.125 177.0625 C 158.960938 176.226562 153.75 177.714844 150.59375 176.898438 C 126.113281 169.980469 105.089844 159.144531 88.503906 142.152344 C 84.167969 145.511719 79.414062 148.964844 74.589844 151.449219 C 72.960938 152.316406 71.664062 152.894531 70.582031 153.203125 C 74.566406 156.757812 78.726562 160.160156 83.078125 163.378906 C 104.023438 178.496094 140.097656 189.664062 162.148438 194.640625 C 167.632812 191.214844 173.621094 188.589844 173.472656 196.867188 C 173.566406 196.816406 173.644531 196.765625 173.734375 196.714844 C 173.648438 196.820312 173.554688 196.933594 173.472656 197.035156 C 162.125 190.066406 166.78125 210.15625 166.03125 214.660156 C 163.15625 210.363281 160.882812 212.195312 161.984375 216.769531 C 162.84375 219.921875 166.738281 223.6875 167.609375 226.832031 C 171.792969 243.371094 173.679688 259.4375 172.53125 275.125 C 172.222656 279.304688 171.703125 283.464844 170.953125 287.59375 C 170.8125 288.351562 170.671875 289.101562 170.515625 289.863281 L 170.515625 289.871094 C 169.960938 292.578125 169.308594 295.273438 168.554688 297.957031 C 173.628906 300.035156 179.003906 302.429688 183.5625 305.363281 C 185.125 306.335938 186.28125 307.167969 187.089844 307.953125 C 188.179688 302.726562 189.046875 297.425781 189.65625 292.042969 C 192.515625 263.960938 182.261719 222.609375 175.382812 202.359375 C 179.515625 204.480469 189.171875 195.898438 192.457031 194.664062 C 190.171875 199.304688 192.886719 200.355469 196.304688 197.117188 C 198.601562 194.796875 199.921875 189.546875 202.21875 187.21875 C 214.445312 175.328125 227.414062 165.660156 241.582031 158.8125 C 242.140625 158.542969 242.695312 158.277344 243.257812 158.015625 C 243.820312 157.75 244.382812 157.496094 244.949219 157.246094 C 247.015625 156.320312 249.113281 155.457031 251.226562 154.664062 C 251.683594 154.488281 252.128906 154.324219 252.582031 154.160156 C 253.035156 153.992188 253.488281 153.828125 253.941406 153.671875 C 254.40625 153.503906 254.871094 153.351562 255.332031 153.191406 C 257.964844 152.316406 260.632812 151.523438 263.351562 150.832031 C 262.609375 145.40625 262.003906 139.554688 262.261719 134.136719 " fill-opacity="1" fill-rule="nonzero"/><path fill="rgb(81.568909%, 44.309998%, 43.919373%)" d="M 128.21875 312.300781 C 127.550781 306.167969 122.40625 302.648438 116.527344 304.136719 C 114.714844 303.757812 112.675781 303.660156 110.304688 303.882812 C 104.46875 304.167969 96.367188 305.332031 91.921875 309.503906 C 91.921875 309.503906 79.574219 348 91.824219 355.496094 C 104.070312 362.992188 134.648438 351.203125 134.648438 351.203125 C 136.824219 348.109375 136.867188 343.691406 137.0625 340.085938 C 137.816406 329.886719 136.445312 321.976562 129.644531 313.976562 C 129.160156 313.394531 128.683594 312.84375 128.21875 312.300781 " fill-opacity="1" fill-rule="nonzero"/><path fill="rgb(81.568909%, 44.309998%, 43.919373%)" d="M 320.363281 152.613281 C 316.648438 151.894531 312.601562 153.667969 309.234375 154.96875 C 299.617188 158.460938 292.96875 162.960938 288.457031 172.441406 C 288.125 173.128906 287.8125 173.792969 287.511719 174.445312 C 282.324219 177.554688 281.207031 183.777344 284.863281 188.433594 C 285.261719 190.242188 286.007812 192.144531 287.183594 194.214844 C 289.839844 199.425781 294.222656 206.332031 299.855469 208.671875 C 299.855469 208.671875 340.035156 204.136719 341.851562 189.894531 C 343.664062 175.652344 320.363281 152.613281 320.363281 152.613281 " fill-opacity="1" fill-rule="nonzero"/><path fill="rgb(80.778503%, 56.079102%, 49.01886%)" d="M 139.613281 53.003906 C 129.320312 44.929688 115.074219 34.035156 101.019531 35.664062 C 85.550781 37.609375 106.445312 55.164062 91.25 53.351562 C 79.820312 51.816406 69.996094 45.855469 58.320312 49.917969 C 49.054688 53.402344 45.964844 65.949219 54.605469 71.496094 C 49.304688 70.804688 43.933594 70.78125 38.046875 73.296875 C 30.488281 76.339844 29.320312 83.457031 37.019531 87.238281 C 44.394531 90.820312 53.71875 92.046875 61.390625 89.527344 C 67.8125 87.558594 72.613281 83.203125 79.730469 84.371094 C 86.003906 85.453125 90.152344 90.566406 96.078125 92.546875 C 105.023438 95.78125 109.15625 87.183594 117.207031 85.128906 C 118.347656 84.835938 119.679688 84.691406 121.128906 84.683594 C 123.367188 86.273438 125.640625 87.828125 128.027344 89.203125 C 133.148438 92.085938 138.996094 94.15625 144.386719 94.367188 L 144.824219 94.652344 C 144.765625 94.558594 144.691406 94.46875 144.628906 94.378906 C 152.035156 94.585938 158.546875 91.234375 161.082031 81.519531 L 159.871094 77.722656 C 160.078125 66.957031 147.164062 58.726562 139.613281 53.003906 " fill-opacity="1" fill-rule="nonzero"/><path fill="rgb(80.778503%, 56.079102%, 49.01886%)" d="M 92.796875 306.765625 C 92.824219 307.019531 92.839844 307.277344 92.863281 307.53125 C 92.933594 307.644531 93.007812 307.757812 93.078125 307.878906 L 92.796875 306.765625 " fill-opacity="1" fill-rule="nonzero"/><path fill="rgb(80.778503%, 56.079102%, 49.01886%)" d="M 354.25 211.859375 C 352.4375 208.339844 350.492188 200.585938 347.066406 196.746094 C 353.589844 183.523438 352.140625 167.800781 341.921875 157.816406 C 343.320312 151.046875 349.625 142.90625 350.878906 137.457031 C 355.710938 118.8125 345.097656 111.359375 330.183594 112.390625 C 344.558594 123.613281 338.5625 131.902344 337.246094 141.566406 C 337.128906 144.347656 336.039062 148.984375 335.777344 153.242188 C 327.78125 149.25 311.804688 147.679688 306.859375 156.152344 L 307.230469 155.035156 C 300.152344 162.855469 308.722656 168.441406 312.445312 175.144531 C 317.65625 183.332031 316.171875 190.039062 310.210938 197.109375 C 309.09375 198.601562 300.527344 206.046875 300.527344 207.535156 C 300.527344 211.257812 309.46875 212.375 312.074219 212.75 C 321.34375 213.742188 335.617188 210.3125 342.855469 203.003906 C 343.933594 209.386719 343.050781 217.5625 344.429688 222.171875 C 349.4375 240.765625 362.351562 242 374.8125 233.734375 C 356.765625 231.078125 357.878906 220.914062 354.25 211.859375 " fill-opacity="1" fill-rule="nonzero"/><g clip-path="url(#clip-0)"><path fill="rgb(80.778503%, 56.079102%, 49.01886%)" d="M 137.445312 333.3125 C 136.914062 333.3125 133.222656 339.914062 132.425781 340.96875 C 132.164062 341.285156 131.886719 341.585938 131.613281 341.890625 C 128.3125 337.550781 118.382812 338.261719 109.886719 339.972656 L 109.894531 339.96875 C 106.820312 332.984375 92.519531 331.335938 92.796875 323.519531 C 93.066406 318.191406 93.324219 312.859375 92.863281 307.53125 C 89.445312 302.1875 82.996094 306.027344 81.625 310.949219 C 80.230469 316.257812 79.671875 326.03125 71.289062 324.914062 C 68.496094 324.636719 66.542969 320.726562 63.746094 322.121094 C 60.394531 323.519531 62.074219 328.542969 62.910156 331.058594 C 63.96875 336.601562 71.175781 348.65625 74.871094 352.617188 C 83.054688 361.328125 93.882812 367.628906 105.234375 366.570312 C 111.40625 365.992188 120.539062 364 126.660156 359.78125 C 128.441406 359.082031 130.070312 358.265625 131.34375 357.308594 C 132.488281 356.546875 134.324219 354.050781 135.777344 351.238281 C 135.996094 350.933594 136.316406 350.253906 136.675781 349.335938 C 137.074219 348.410156 137.398438 347.488281 137.628906 346.613281 C 139.28125 341.375 140.761719 333.683594 137.445312 333.3125 " fill-opacity="1" fill-rule="nonzero"/></g><path fill="rgb(15.289307%, 12.548828%, 18.818665%)" d="M 221.835938 59.96875 C 225.851562 55.351562 234.074219 54.148438 236.484375 61.371094 C 233.273438 63.777344 232.46875 72.199219 233.875 75.207031 C 235.679688 79.617188 239.695312 82.628906 243.503906 85.035156 C 246.914062 87.039062 250.726562 89.246094 252.730469 92.65625 C 254.136719 95.464844 253.933594 99.472656 257.746094 100.277344 L 259.351562 99.273438 C 261.15625 100.476562 264.96875 97.265625 267.375 97.066406 C 270.382812 96.867188 270.382812 98.671875 272.191406 100.277344 C 274.195312 101.878906 276.402344 102.082031 279.210938 101.679688 C 290.242188 99.871094 282.417969 81.824219 282.21875 74.804688 C 282.019531 70.996094 282.621094 67.386719 284.023438 63.777344 C 285.027344 60.765625 287.433594 58.5625 288.640625 55.550781 C 291.246094 49.335938 286.832031 41.3125 282.417969 36.902344 C 277.804688 32.6875 269.378906 36.101562 265.96875 31.285156 C 261.960938 25.46875 264.367188 18.453125 257.746094 14.238281 C 250.722656 9.828125 243.703125 8.222656 236.683594 13.035156 C 231.265625 17.046875 227.253906 25.46875 220.035156 25.671875 C 212.8125 25.871094 209.402344 19.65625 202.78125 18.851562 C 196.363281 18.25 186.59375 16.71875 187.136719 24.066406 C 187.675781 31.417969 199.769531 29.179688 202.628906 34.445312 C 205.488281 39.710938 206.589844 46.429688 207.59375 53.546875 C 208.199219 57.15625 210 60.367188 213.210938 62.375 C 217.222656 64.578125 219.03125 63.171875 221.835938 59.96875 " fill-opacity="1" fill-rule="nonzero"/><path fill="rgb(15.289307%, 12.548828%, 18.818665%)" d="M 291.960938 302.402344 C 286.578125 288.414062 271.78125 286.800781 258.332031 285.992188 C 261.253906 289.304688 267.15625 293.628906 268.410156 300.105469 C 270.617188 311.515625 250.261719 310.316406 255.371094 322.570312 L 255.101562 322.300781 C 241.109375 326.335938 227.660156 318.535156 218.242188 308.046875 C 217.976562 325.261719 222.546875 344.894531 239.765625 352.421875 C 255.636719 359.148438 274.199219 354.308594 286.039062 342.203125 C 295.183594 332.792969 296.800781 314.5 291.960938 302.402344 " fill-opacity="1" fill-rule="nonzero"/><path fill="rgb(15.289307%, 12.548828%, 18.818665%)" d="M 68.574219 152.050781 C 66.378906 150.898438 63.839844 150.464844 61.410156 150.988281 C 60.132812 151.269531 59.09375 151.746094 58.066406 152.558594 C 57.363281 153.113281 56.988281 153.46875 56.578125 152.535156 C 56.128906 151.515625 56.078125 150.386719 55.546875 149.363281 C 54.472656 147.304688 52.921875 145.460938 50.796875 144.433594 C 49.46875 143.789062 47.804688 143.4375 46.441406 144.214844 C 45.191406 144.9375 44.4375 146.171875 43.941406 147.488281 C 43.5 148.660156 43.375 149.207031 42.148438 148.375 C 40.9375 147.546875 39.875 146.757812 38.425781 146.382812 C 35.574219 145.644531 32.65625 146.207031 30.304688 147.996094 C 28.988281 148.996094 27.933594 150.226562 27.160156 151.597656 C 24.519531 152.230469 22.046875 153.542969 20.378906 155.308594 C 18 157.472656 16.484375 160.496094 16.703125 163.742188 C 16.703125 165.902344 18.867188 169.148438 18.429688 170.878906 C 17.78125 173.257812 13.242188 175.636719 11.945312 178.445312 C 10.648438 181.257812 10.429688 184.714844 10.648438 187.742188 C 11.078125 195.09375 15.835938 197.257812 22.324219 197.472656 C 21.460938 200.066406 20.597656 202.015625 22.757812 204.175781 C 24.347656 205.929688 27.226562 206.742188 29.839844 207.21875 C 29.84375 207.269531 29.84375 207.324219 29.851562 207.375 C 30.035156 209.347656 31.324219 211.21875 32.820312 212.453125 C 33.429688 212.957031 34.117188 213.382812 34.910156 213.511719 C 35.511719 213.609375 36.175781 213.597656 36.773438 213.460938 C 37.40625 213.316406 37.792969 212.90625 38.351562 212.613281 C 38.457031 212.5625 38.566406 212.515625 38.671875 212.476562 C 39.621094 212.957031 40.585938 213.308594 41.519531 213.484375 C 44.605469 214.050781 45.730469 213.484375 47.695312 211.519531 C 47.980469 211.238281 47.695312 209.277344 48.257812 208.714844 C 48.539062 207.871094 50.785156 207.3125 51.628906 206.464844 C 53.964844 203.855469 54.347656 200.769531 53.46875 197.9375 C 54.691406 197.316406 55.628906 196.332031 55.90625 194.703125 C 56.316406 192.269531 54.621094 189.378906 52.34375 188.375 C 54.710938 189.421875 58.371094 188.699219 60.226562 187.015625 C 61.78125 185.609375 63.574219 183.101562 62.640625 180.921875 C 62.136719 179.746094 60.691406 178.3125 59.558594 177.746094 C 60.238281 178.085938 62.140625 176.289062 62.523438 175.847656 C 63.328125 174.925781 63.851562 173.839844 64.160156 172.664062 C 64.503906 171.355469 64.496094 170.1875 64.484375 168.855469 C 64.464844 166.484375 66.726562 164.921875 68.113281 163.285156 C 68.953125 162.289062 69.742188 161.21875 70.460938 160.136719 C 70.933594 159.421875 72.507812 157.378906 72.320312 156.484375 C 72.289062 156.351562 72.257812 156.21875 72.210938 156.082031 C 71.652344 154.292969 70.210938 152.910156 68.574219 152.050781 " fill-opacity="1" fill-rule="nonzero"/></svg>